<ttFont>
          <CharString index="0">
            -105 callgsubr
            -204 hmoveto
            -107 callgsubr
            return
          </CharString>
          <CharString index="1">
            rmoveto
            13 14 1 3 12 hvcurveto
            22 44 26 34 48 44 -10 13 -20 21 -33 13 -35 -31 -22 -25 -20 -28 -21 29 -19 21 -36 32 -33 -12 -19 -20 -13 -17 42 -37 34 -36 22 -45 rrcurveto
            -3 17 16 -1 15 hhcurveto
            return
          </CharString>
          <CharString index="2">
            rmoveto
            135 1 202 16 72 14 1 35 -6 57 -8 25 -76 -16 -131 -14 -64 -2 -10 76 -5 79 -4 72 76 11 72 5 87 3 rrcurveto
            47 -3 36 -9 36 vhcurveto
            -82 -3 -71 -11 -74 -18 -1 71 1 64 3 56 86 8 89 4 91 1 rrcurveto
            7 33 7 44 47 vvcurveto
            -169 -2 -134 -20 -150 -28 3 -203 33 -314 32 -210 rrcurveto
            endchar
          </CharString>
          <CharString index="3">
            84 callgsubr
            30 58 27 63 25 65 rrcurveto
            10 74 80 4 80 hhcurveto
            21 -89 16 -95 13 -101 rrcurveto
            -247 376 rmoveto
            30 88 26 92 22 90 36 -81 30 -85 26 -90 -58 -2 -56 -5 -56 -7 rrcurveto
            endchar
          </CharString>
          <CharString index="4">
            rmoveto
            33 12 19 20 13 17 -42 37 -34 36 -22 45 rrcurveto
            -17 3 -16 1 -15 -13 -14 -1 -12 hflex1
            -22 -44 -26 -34 -48 -44 10 -13 20 -21 33 -13 35 31 22 25 20 28 21 -29 19 -21 36 -32 rrcurveto
            return
          </CharString>
          <CharString index="5">
            rmoveto
            118 -22 110 -20 87 vhcurveto
            -46 -1 -68 -9 -45 -18 rrcurveto
            18 -73 26 -125 -145 vvcurveto
            -169 -29 -148 -71 -54 -24 100 179 105 13 114 21 104 vhcurveto
            6 -12 -21 5 -32 hhcurveto
            -28 -31 -5 -5 -18 hvcurveto
            -21 -49 -32 -156 -151 vvcurveto
            -207 59 -141 156 216 65 215 259 vhcurveto
            endchar
          </CharString>
          <CharString index="6">
            40 60 21 52 8 54 -39 15 -52 0 -32 -5 rrcurveto
            return
          </CharString>
          <CharString index="7">
            rmoveto
            -156 -104 -130 -180 -128 56 -118 135 189 70 194 149 134 -71 79 -119 hvcurveto
            -33 -91 rmoveto
            47 26 -48 -124 -99 -30 -104 -48 -55 -21 100 77 118 37 80 44 hvcurveto
            endchar
          </CharString>
          <CharString index="8">
            rrcurveto
            4 305 callsubr
            -56 -99 14 -78 hhcurveto
            -97 -101 -14 -17 -70 hvcurveto
            -6 -12 -2 195 callsubr
            -22 4 -21 -15 flex1
            14 71 97 13 96 hhcurveto
            return
          </CharString>
          <CharString index="9">
            -93 callsubr
            -1 -6 -1 -6 -1 -6 rrcurveto
            92 -33 -60 58 -80 179 callsubr
            4 -21 4 -20 hvcurveto
            40 -62 rlineto
            34 48 50 20 37 hhcurveto
            16 10 -8 -16 -27 -42 -45 -102 -55 hvcurveto
            18 -32 22 -32 34 -23 rrcurveto
            73 46 68 85 60 vvcurveto
            76 -52 59 -62 -26 -25 -7 -12 -23 vhcurveto
            -1 4 0 3 4 vvcurveto
            44 37 22 51 vhcurveto
            return
          </CharString>
          <CharString index="10">
            194 callsubr
            -17 0 -18 0 -21 4 -24 -13 flex1
            return
          </CharString>
          <CharString index="11">
            -16 -38 -18 rrcurveto
            -6 -16 -16 -5 -15 hhcurveto
            -32 -37 22 39 33 18 19 25 25 22 -18 -30 3 hvcurveto
            34 13 27 22 24 32 rrcurveto
            50 -24 -51 37 -58 hhcurveto
            -94 -50 -60 -80 -62 42 -45 58 -22 hvcurveto
            -30 -19 -27 -20 -22 -21 4 -49 15 -41 33 -47 return
          </CharString>
          <CharString index="12">
            70 25 36 37 33 hhcurveto
            34 12 -27 -55 -93 -18 -124 -17 -94 hvcurveto
            48 -9 51 -7 45 -1 rrcurveto
            12 47 27 156 128 vvcurveto
            145 -53 50 -79 -60 -49 -33 -63 -39 vhcurveto
            3 38 3 33 3 25 rrcurveto
            4 -22 -20 2 -19 hhcurveto
            -42 -45 -8 -12 -24 hvcurveto
            -168 16 -266 14 -127 vhcurveto
            return
          </CharString>
          <CharString index="13">
            11 175 5 186 164 vvcurveto
            62 -1 54 -3 51 vhcurveto
            6 -25 -19 2 -26 hhcurveto
            -41 -32 -11 -14 -22 hvcurveto
            23 -218 6 -248 -1 -224 rrcurveto
            44 55 7 8 26 hvcurveto
            endchar
          </CharString>
          <CharString index="14">
            4 26 18 19 24 8 9 4 14 4 13 -52 callsubr
            -43 -8 -38 -10 -36 -15 -37 -15 -19 -23 -7 -38 return
          </CharString>
          <CharString index="15">
            rmoveto
            18 41 8 50 53 vvcurveto
            -121 -11 -118 -4 -138 4 159 164 131 150 97 141 12 27 5 50 4 31 -152 22 -160 27 -162 31 rrcurveto
            -24 -43 -8 -39 -51 vvcurveto
            95 -14 108 -14 122 -7 -84 -136 -107 -137 -171 -175 rrcurveto
            -10 -33 -3 -48 -38 vvcurveto
            131 -21 202 -19 166 -1 rrcurveto
            endchar
          </CharString>
          <CharString index="16">
            hhcurveto
            -79 -50 -45 -62 -28 hvcurveto
            -48 23 -43 30 -27 29 -22 -30 -14 -35 -10 -37 31 -27 51 -27 56 -20 rrcurveto
            -4 -22 -1 -22 -22 vvcurveto
            -124 62 -73 86 2 vhcurveto
            51 1 35 30 35 36 rrcurveto
            2 -15 1 -15 -16 vvcurveto
            -87 -34 -62 -87 -126 -89 135 231 -67 vhcurveto
            -29 -8 -29 -11 -27 -14 rrcurveto
            -211 53 93 -250 216 hhcurveto
            -42 callsubr
            return
          </CharString>
          <CharString index="17">
            rmoveto
            37 -17 81 -6 107 17 2 26 0 28 -2 25 -81 -8 -65 3 -77 12 -4 -20 -1 -39 3 -21 rrcurveto
            return
          </CharString>
          <CharString index="18">
            -34 callsubr
            -107 -98 -14 -17 -63 -19 callsubr
            -18 0 -21 235 callsubr
            return
          </CharString>
          <CharString index="19">
            13 4 111 callgsubr
            19 -3 19 8 flex1
            return
          </CharString>
          <CharString index="20">
            99 94 -13 -14 55 5 callgsubr
            17 -49 -98 14 -98 hhcurveto
            -100 -90 -14 -17 -61 -61 callsubr
            return
          </CharString>
          <CharString index="21">
            93 134 callsubr
            -9 -11 -16 vhcurveto
            -16 -22 -12 -40 -35 vvcurveto
            -9 2 -10 3 -6 vhcurveto
            14 return
          </CharString>
          <CharString index="22">
            -78 callgsubr
            0 return
          </CharString>
          <CharString index="23">
            66 -18 -38 33 -62 hhcurveto
            -23 -36 -5 -7 -29 hvcurveto
            -5 -11 -3 -19 0 -19 0 -20 4 -21 -50 callsubr
            6 24 42 6 29 hhcurveto
            20 17 -3 -6 13 hvcurveto
            -74 -18 -58 -72 -74 vvcurveto
            -67 44 -36 53 39 31 21 31 22 vhcurveto
            return
          </CharString>
          <CharString index="24">
            rrcurveto
            5 -88 callsubr
            return
          </CharString>
          <CharString index="25">
            rmoveto
            -43 -43 53 121 112 28 54 57 9 10 -1 -2 9 hvcurveto
            15 -69 14 -106 1 -106 rrcurveto
            -34 -14 -19 -22 -24 hhcurveto
            -42 -346 rmoveto
            121 127 89 327 121 -18 148 -18 66 hvcurveto
            16 -46 -59 11 -45 hhcurveto
            -165 -89 -103 -181 -145 74 -98 118 40 31 17 32 25 hvcurveto
            -142 -9 -29 -69 -46 hhcurveto
            -38 -20 38 83 -12 hvcurveto
            -44 -6 -47 -18 -34 -26 rrcurveto
            -50 4 33 -110 146 hhcurveto
            endchar
          </CharString>
          <CharString index="26">
            rmoveto
            -2 -41 8 -27 14 -19 rrcurveto
            -30 24 35 -13 45 hhcurveto
            50 42 19 37 19 hvcurveto
            13 24 4 25 -2 34 -22 4 -30 0 -19 -5 rrcurveto
            -40 11 -14 -26 -51 hhcurveto
            -52 -10 26 41 4 hvcurveto
            -30 1 -20 -4 -17 -6 rrcurveto
            return
          </CharString>
          <CharString index="27">
            -40 -30 105 369 87 36 81 -76 80 hstemhm
            31 146 136 164 -159 149 hintmask 11101010
            268 callgsubr
            hintmask 11011010
            139 0 184 6 141 vhcurveto
            hintmask 11011100
            32 2 31 4 29 5 3 26 -1 28 -1 23 -28 -3 -30 -3 -31 -2 rrcurveto
            hintmask 11101100
            2 26 2 23 2 19 rrcurveto
            5 -22 -20 2 -18 hhcurveto
            -41 -45 -8 -12 -24 hvcurveto
            -19 0 -20 -20 vvcurveto
            -36 1 -36 1 -35 2 -4 -19 0 -37 2 -23 32 -3 38 -2 41 -1 rrcurveto
            -13 0 -13 -13 vvcurveto
            2 -11 -12 1 -11 hhcurveto
            -154 -96 -123 -185 -139 53 -114 124 hvcurveto
            hintmask 11101010
            -40 callsubr
            -110 -15 -35 -35 -30 hhcurveto
            endchar
          </CharString>
          <CharString index="28">
            -40 callgsubr
            19 -3 17 -56 callsubr
            return
          </CharString>
          <CharString index="29">
            rrcurveto
            6 82 6 92 88 vvcurveto
            131 -5 116 -10 110 vhcurveto
            2 55 57 2 63 hhcurveto
            3 17 4 23 24 vvcurveto
            25 -3 22 -6 18 vhcurveto
            -207 -1 -143 -15 -188 -38 -1 -34 7 -39 13 -38 66 8 58 7 56 5 24 -195 10 -259 -3 -170 rrcurveto
            return
          </CharString>
          <CharString index="30">
            4 13 4 195 callgsubr
            18 -3 181 callgsubr
            return
          </CharString>
          <CharString index="31">
            24 -4 22 -4 19 -4 -99 callsubr
            26 29 -1 -3 28 hvcurveto
            -1 0 -1 -1 -1 vhcurveto
            -136 -38 -116 -54 -72 -57 3 -37 16 -33 35 -35 rrcurveto
            hintmask 11000000
            98 -14 85 -43 65 -83 rrcurveto
            40 53 4 14 34 hvcurveto
            return
          </CharString>
          <CharString index="32">
            hhcurveto
            -127 -134 -18 -18 -71 -82 callgsubr
            return
          </CharString>
          <CharString index="33">
            22 0 20 18 vvcurveto
            88 -6 60 -17 -40 vvcurveto
            -36 -48 -40 -52 -16 vhcurveto
            20 -48 38 -32 32 -7 rrcurveto
            45 29 41 59 66 vvcurveto
            102 -87 83 -132 27 vhcurveto
            return
          </CharString>
          <CharString index="34">
            383 375 rmoveto
            -25 -28 7 13 -22 326 callgsubr
            15 16 vvcurveto
            41 -17 37 -29 27 vhcurveto
            6 5 0 6 hhcurveto
            34 33 -1 -2 32 hvcurveto
            70 -10 24 -38 -39 vvcurveto
            -42 -34 -38 -63 vhcurveto
            return
          </CharString>
          <CharString index="35">
            149 -26 121 122 101 47 105 77 381 callgsubr
            731 -539 84 169 75 43 101 hintmask 11110111
            520 203 rmoveto
            44 -7 46 -11 38 vhcurveto
            -28 22 -36 23 -30 15 rrcurveto
            -41 -32 -44 -32 -27 hhcurveto
            -13 -16 7 27 37 33 87 41 62 hvcurveto
            -100 39 90 -73 107 5 5 0 4 hhcurveto
            -24 -66 -13 -84 -74 vvcurveto
            -59 5 -58 11 -48 vhcurveto
            27 57 7 10 22 hvcurveto
            -14 63 -7 62 61 vvcurveto
            77 11 72 22 67 vhcurveto
            -15 43 -26 34 -28 19 rrcurveto
            -12 -22 -24 -9 -33 hhcurveto
            -58 -40 28 49 -28 hvcurveto
            hintmask 11111000
            120 -4 112 -14 76 -15 rrcurveto
            4 -40 callgsubr
            18 158 callgsubr
            21 -79 -142 17 -145 hhcurveto
            -145 -136 -17 -21 -84 62 callgsubr
            return
          </CharString>
          <CharString index="36">
            -39 -36 -8 -17 -29 hvcurveto
            -25 -133 -4 -234 20 -142 -23 callgsubr
            return
          </CharString>
          <CharString index="37">
            59 -21 -66 43 -84 hhcurveto
            -122 -99 -88 -108 2 hvcurveto
            -23 23 49 -22 33 hhcurveto
            -3 9 -2 11 10 vvcurveto
            76 65 58 80 39 26 -17 -30 -20 -6 -16 -11 -15 vhcurveto
            15 -17 -22 11 -25 hhcurveto
            -46 -41 -37 -52 -55 44 -33 48 31 26 15 25 20 hvcurveto
            10 -10 6 -15 -15 vvcurveto
            -39 -33 -27 -57 -139 -153 130 227 -56 vhcurveto
            -25 -9 -29 -11 -19 -17 return
          </CharString>
          <CharString index="38">
            5 -8 10 -9 9 -7 rrcurveto
            6 12 11 3 12 hhcurveto
            22 15 -14 -21 -23 -15 -14 -23 -25 -19 19 27 -9 hvcurveto
            -18 -8 -16 -8 -22 -14 rrcurveto
            return
          </CharString>
          <CharString index="39">
            151 callgsubr
            14 64 hintmask 11000000
            451 -4 rmoveto
            -21 75 -7 262 callsubr
            83 5 69 9 76 vhcurveto
            hintmask 11100000
            24 -4 21 -4 19 -4 -99 callsubr
            27 29 -2 -2 29 hvcurveto
            -2 -9 -2 -9 -2 -9 -137 -54 -111 -75 -71 -77 4 -49 15 -42 33 -46 rrcurveto
            hintmask 11000000
            -33 callgsubr
            -139 143 56 callsubr
            return
          </CharString>
          <CharString index="40">
            -77 -97 callsubr
            return
          </CharString>
          <CharString index="41">
            92 98 -13 -14 67 326 callgsubr
            21 251 callgsubr
            -2 325 callsubr
            return
          </CharString>
          <CharString index="42">
            -16 callgsubr
            18 11 flex1
            return
          </CharString>
          <CharString index="43">
            -5 -62 callgsubr
            return
          </CharString>
          <CharString index="44">
            408 383 rmoveto
            -58 -54 56 107 -6 hvcurveto
            13 12 0 12 14 14 0 13 hhcurveto
            75 -5 35 -41 -47 vvcurveto
            -39 -23 -31 -47 vhcurveto
            return
          </CharString>
          <CharString index="45">
            hhcurveto
            -88 -85 -59 -80 -58 hvcurveto
            6 -35 11 -34 19 -33 rrcurveto
            50 -5 58 -25 -44 vvcurveto
            -15 -4 -13 -10 -11 vhcurveto
            -6 -5 -6 -4 -6 -4 21 -40 29 -33 38 -26 return
          </CharString>
          <CharString index="46">
            hvcurveto
            -5 -10 -3 249 callgsubr
            181 callsubr
            return
          </CharString>
          <CharString index="47">
            422 -250 rmoveto
            70 180 63 298 227 vvcurveto
            26 5 13 18 8 259 callgsubr
            3 24 0 20 0 20 -3 176 callgsubr
            rrcurveto
            -37 -15 -22 -30 -41 -21 3 -22 -61 vvcurveto
            -123 -17 -114 -23 -90 vhcurveto
            -23 71 -40 61 -57 44 rrcurveto
            83 43 32 73 74 vvcurveto
            51 -12 39 -20 29 vhcurveto
            -60 38 rlineto
            -33 -23 -44 -35 -43 hhcurveto
            -35 -13 22 32 12 2 14 8 12 hvcurveto
            -41 -40 -8 -18 -30 hvcurveto
            -5 -12 -3 -13 -16 vvcurveto
            -85 47 -54 80 55 55 36 43 35 vhcurveto
            -4 vlineto
            -47 -27 -41 -80 -41 vhcurveto
            -87 -44 5 -43 16 -40 27 -39 rlinecurve
            return
          </CharString>
          <CharString index="48">
            -27 14 -30 12 -30 7 -10 -16 0 -60 10 -28 rrcurveto
            56 -10 31 -37 -68 vvcurveto
            -5 -179 -19 -138 -31 -124 rrcurveto
            -12 31 58 -10 43 hhcurveto
            endchar
          </CharString>
          <CharString index="49">
            hhcurveto
            -11 -12 -2 -2 -7 hvcurveto
            -3 -13 -4 -16 0 -21 0 -18 279 callgsubr
            2 7 6 2 11 hhcurveto
            39 17 -31 -52 2 hvcurveto
            hintmask 01011000
            -3 -158 6 -202 14 -137 rrcurveto
            endchar
          </CharString>
          <CharString index="50">
            -27 13 -32 13 -27 6 rrcurveto
            -54 -37 -35 -46 -25 hhcurveto
            -18 -10 11 30 29 2 34 5 33 hvcurveto
            -3 19 19 -2 18 hhcurveto
            return
          </CharString>
          <CharString index="51">
            11 flex1
            return
          </CharString>
          <CharString index="52">
            1 29 4 10 21 10 9 4 16 6 12 2 51 callsubr
            21 0 19 -30 callgsubr
            -39 -7 -41 -12 -24 -12 rrcurveto
            -28 -14 -17 -23 -32 vvcurveto
            -44 vlineto
            hintmask 01101111
            100 -22 -48 67 -65 232 callsubr
            hintmask 10011111
            -84 callsubr
            hintmask 01101111
            43 callgsubr
            8 11 13 5 15 hhcurveto
            47 return
          </CharString>
          <CharString index="53">
            194 callsubr
            -20 0 -16 0 -20 return
          </CharString>
          <CharString index="54">
            -35 -25 32 -41 hhcurveto
            -51 -25 -42 -66 5 hvcurveto
            17 -6 25 -3 16 1 rrcurveto
            26 -1 10 11 19 hhcurveto
            return
          </CharString>
          <CharString index="55">
            -14 callsubr
            -3 16 10 flex1
            return
          </CharString>
          <CharString index="56">
            -107 -66 -56 -60 -44 hhcurveto
            -23 -15 13 19 32 46 34 55 11 hvcurveto
            -14 34 -42 28 -35 7 rrcurveto
            -43 -17 -47 -43 -67 vvcurveto
            -83 69 -62 80 57 49 42 71 46 382 callgsubr
            -9 -10 vvcurveto
            return
          </CharString>
          <CharString index="57">
            -14 flex1
            return
          </CharString>
          <CharString index="58">
            rmoveto
            -17 0 -16 1 -14 vhcurveto
            -42 67 299 callgsubr
            return
          </CharString>
          <CharString index="59">
            vvcurveto
            49 -20 42 -32 32 vhcurveto
            63 -6 57 -8 40 -9 319 callsubr
            19 261 callsubr
            return
          </CharString>
          <CharString index="60">
            18 -56 callsubr
            return
          </CharString>
          <CharString index="61">
            333 323 rmoveto
            -27 -18 41 42 13 2 12 4 11 hvcurveto
            36 -15 25 -34 -37 vvcurveto
            -22 -8 -11 -14 vhcurveto
            return
          </CharString>
          <CharString index="62">
            -19 callsubr
            -17 0 -22 235 callsubr
            return
          </CharString>
          <CharString index="63">
            14 3 22 0 22 0 17 322 callgsubr
            return
          </CharString>
          <CharString index="64">
            4 14 4 23 0 22 0 17 261 callsubr
            17 -55 -96 14 -104 hhcurveto
            return
          </CharString>
          <CharString index="65">
            133 73 97 143 69 -17 63 -25 49 hvcurveto
            -57 callsubr
            return
          </CharString>
          <CharString index="66">
            rmoveto
            52 41 25 50 36 229 callgsubr
            -78 -37 -17 -24 -25 hhcurveto
            -36 -15 63 148 205 38 79 104 16 hvcurveto
            return
          </CharString>
          <CharString index="67">
            57 45 27 79 31 hvcurveto
            5 -45 5 -40 5 -33 rrcurveto
            -107 117 rmoveto
            -44 -28 55 111 145 56 58 58 11 8 -1 -1 8 hvcurveto
            3 -75 4 -75 4 -72 rrcurveto
            return
          </CharString>
          <CharString index="68">
            236 callgsubr
            21 15 16 22 24 24 -17 -32 16 hvcurveto
            -19 -12 -18 -8 -22 hhcurveto
            return
          </CharString>
          <CharString index="69">
            rmoveto
            29 20 5 5 15 hvcurveto
            15 178 40 170 26 66 -18 20 -23 14 -30 10 -64 -46 -73 -41 -78 -34 15 -37 18 -23 29 -21 24 14 24 15 23 15 -14 -80 -8 -93 -3 -77 -2 -22 -1 -14 -1 -20 rrcurveto
            -3 11 9 -1 17 hhcurveto
            return
          </CharString>
          <CharString index="70">
            rmoveto
            41 62 7 8 25 hvcurveto
            -6 218 3 369 19 191 rrcurveto
            7 -26 -23 3 -25 hhcurveto
            -40 -35 -12 -13 -20 hvcurveto
            -6 -253 12 -290 19 -235 rrcurveto
            return
          </CharString>
          <CharString index="71">
            14 4 158 callsubr
            return
          </CharString>
          <CharString index="72">
            -33 20 31 -21 41 hhcurveto
            57 42 42 66 66 -41 56 -57 24 hvcurveto
            9 12 13 6 17 hhcurveto
            49 47 -51 -85 3 hvcurveto
            -6 return
          </CharString>
          <CharString index="73">
            rrcurveto
            -43 callsubr
            return
          </CharString>
          <CharString index="74">
            rrcurveto
            4 14 4 20 -21 callsubr
            19 -4 -47 callsubr
            return
          </CharString>
          <CharString index="75">
            106 callgsubr
            198 1 288 15 126 vhcurveto
            5 -22 -20 2 -18 hhcurveto
            -41 -45 -8 -12 -24 hvcurveto
            -54 1 -61 1 -64 vhcurveto
            2 -11 -12 1 -11 hhcurveto
            -154 -96 -123 -185 -139 53 -114 124 -40 callsubr
            -111 -15 -35 -34 -30 hhcurveto
            endchar
          </CharString>
          <CharString index="76">
            88 -57 26 101 vvcurveto
            15 -35 -25 4 -33 hhcurveto
            -24 -25 -14 -32 -17 -36 rrcurveto
            58 -20 -31 36 -45 hhcurveto
            -69 -46 -68 -81 -85 47 -64 61 48 34 41 49 11 -2 7 -2 7 hvcurveto
            -18 19 -28 16 -26 6 rrcurveto
            5 -12 3 -13 -11 vvcurveto
            -23 -8 -23 -21 -18 -15 16 30 38 26 31 40 40 35 -32 -53 12 vhcurveto
            9 -8 28 -7 22 -5 14 30 14 38 16 29 rrcurveto
            6 -24 8 -18 -25 vvcurveto
            -40 -25 -38 -69 -38 vhcurveto
            -89 -49 4 -45 15 -40 26 -40 rlinecurve
            92 return
          </CharString>
          <CharString index="77">
            -60 -56 callgsubr
            return
          </CharString>
          <CharString index="78">
            vvcurveto
            -28 8 -34 16 -20 vhcurveto
            12 -5 32 -4 23 21 27 4 13 hflex1
            -24 21 -11 21 23 vvcurveto
            22 12 18 24 32 28 -32 -58 -57 -41 -39 -77 return
          </CharString>
          <CharString index="79">
            -5 callgsubr
            hintmask 01011110
            -12 31 58 -10 43 hhcurveto
            endchar
          </CharString>
          <CharString index="80">
            vvcurveto
            81 11 73 22 68 vhcurveto
            -15 43 -26 33 -28 19 rrcurveto
            -12 -21 -23 -11 -36 hhcurveto
            -91 -66 48 67 -38 hvcurveto
            hintmask 0100011100000000
            -12 -26 -29 -12 -51 hhcurveto
            -78 -59 24 44 -39 hvcurveto
            1 40 41 1 42 hhcurveto
            226 196 -21 -19 97 hvcurveto
            75 callgsubr
            22 -92 -198 22 -227 hhcurveto
            -227 -199 -22 -22 -93 62 callsubr
            hintmask 0101001011110000
            return
          </CharString>
          <CharString index="81">
            16 -31 callgsubr
            return
          </CharString>
          <CharString index="82">
            -63 10 -52 -7 -36 -9 rrcurveto
            -46 2 -29 3 -49 vhcurveto
            43 -6 39 0 52 5 8 45 3 40 1 46 rrcurveto
            return
          </CharString>
          <CharString index="83">
            -33 44 -33 29 -46 19 -60 -36 -59 -50 -58 -66 rrcurveto
            6 60 3 59 54 return
          </CharString>
          <CharString index="84">
            23 6 31 6 37 5 rrcurveto
            -14 -115 -10 -132 -137 vvcurveto
            -108 74 -69 91 return
          </CharString>
          <CharString index="85">
            -51 -63 -35 -44 hhcurveto
            -29 -24 15 41 24 8 37 15 28 hvcurveto
            -21 9 -28 6 -38 1 rrcurveto
            -20 -45 -16 -56 -50 vvcurveto
            -89 50 -58 81 vhcurveto
            return
          </CharString>
          <CharString index="86">
            0 22 0 return
          </CharString>
          <CharString index="87">
            37 -32 32 -40 21 vhcurveto
            42 36 35 20 43 hhcurveto
            34 36 -13 -25 29 hvcurveto
            -46 -56 -53 -50 -52 -44 rrcurveto
            return
          </CharString>
          <CharString index="88">
            hvcurveto
            -5 163 callsubr
            return
          </CharString>
          <CharString index="89">
            45 53 vvcurveto
            43 -16 38 -26 31 vhcurveto
            23 -4 22 -4 19 -4 rrcurveto
            5 -65 callsubr
            19 -68 -101 16 -127 hhcurveto
            -129 -91 -16 -19 -75 237 callsubr
            -17 0 -19 0 -21 4 111 callsubr
            55 11 62 11 74 6 rrcurveto
            -111 -5 -35 -46 169 callsubr
            return
          </CharString>
          <CharString index="90">
            vvcurveto
            31 0 28 1 27 vhcurveto
            78 -7 63 -18 -43 vvcurveto
            -39 -47 -39 -53 -18 vhcurveto
            20 -47 37 -34 31 -6 rrcurveto
            45 28 43 56 76 vvcurveto
            return
          </CharString>
          <CharString index="91">
            -41 callsubr
            hintmask 000000101000000000000000
            5 13 3 111 callgsubr
            19 324 callgsubr
            -72 -13 -51 -20 -33 -28 -36 26 -55 21 -69 14 rrcurveto
            -5 -12 -2 -17 0 -20 0 -20 3 -22 -13 flex1
            hintmask 000000100100000000000000
            105 callgsubr
            return
          </CharString>
          <CharString index="92">
            -9 13 31 -5 22 hhcurveto
            22 24 5 6 14 hvcurveto
            -24 27 -11 25 22 vvcurveto
            30 15 22 29 45 45 -45 -86 -77 -40 -42 -73 -127 -108 159 158 -56 vhcurveto
            -28 -11 -27 -12 -26 -15 return
          </CharString>
          <CharString index="93">
            4 1 callgsubr
            20 return
          </CharString>
          <CharString index="94">
            rrcurveto
            -77 callsubr
            return
          </CharString>
          <CharString index="95">
            rmoveto
            -13 89 -3 79 77 2 0 2 2 vvcurveto
            2 1 65 -93 60 -67 76 -63 rlinecurve
            51 17 34 40 30 38 -93 61 -73 56 -63 74 83 64 67 62 63 83 -20 32 -41 38 -39 19 -68 -97 -57 -76 -73 -70 8 139 20 152 20 92 -36 16 -86 10 -40 -1 rrcurveto
            -18 -112 -9 -208 -123 vvcurveto
            -159 11 -105 13 -88 vhcurveto
            50 41 4 13 38 hvcurveto
            return
          </CharString>
          <CharString index="96">
            rmoveto
            222 67 153 197 188 vvcurveto
            169 -97 106 -208 -81 -67 -17 -35 -72 vhcurveto
            -2 -51 -1 -56 -50 vvcurveto
            -162 9 -163 16 -183 vhcurveto
            -5 33 61 -5 34 hhcurveto
            -6 216 rmoveto
            141 3 121 12 149 vhcurveto
            4 15 15 2 15 hhcurveto
            108 58 -71 -110 -150 -71 -126 -153 -66 hvcurveto
            -1 33 -1 35 38 vvcurveto
            endchar
          </CharString>
          <CharString index="97">
            68 callgsubr
            74 43 19 12 -14 -27 -123 -9 -139 -17 -103 hvcurveto
            54 -20 -25 24 -38 hhcurveto
            return
          </CharString>
          <CharString index="98">
            53 29 -44 -112 -3 hvcurveto
            68 -1 32 10 42 20 rrcurveto
            143 -6 -69 79 -121 hhcurveto
            -193 -128 -189 -235 return
          </CharString>
          <CharString index="99">
            vvcurveto
            -66 45 -37 55 -13 vhcurveto
            -76 -62 -1 -42 17 -46 38 -36 rlinecurve
            return
          </CharString>
          <CharString index="100">
            -23 -23 1 -23 hhcurveto
            -131 -124 -16 -19 -77 70 callgsubr
            -23 -16 flex1
            34 7 41 6 46 6 22 -4 19 -11 15 -18 rrcurveto
            -83 -14 -62 -46 -72 vvcurveto
            -66 50 -49 73 78 47 56 84 vhcurveto
            4 0 3 4 vvcurveto
            87 -2 22 -21 -36 vvcurveto
            -7 0 -11 -1 -15 vhcurveto
            -99 -36 -130 -71 -52 -43 2 -40 14 -31 25 -37 return
          </CharString>
          <CharString index="101">
            104 callsubr
            26 -101 -187 7 -184 hhcurveto
            -201 -150 -9 -24 -114 -45 callsubr
            return
          </CharString>
          <CharString index="102">
            307 140 rmoveto
            -8 0 -8 -7 vvcurveto
            -39 63 -57 45 -58 33 47 42 60 39 53 25 rrcurveto
            -4 -70 -2 -70 -84 vvcurveto
            return
          </CharString>
          <CharString index="103">
            166 0 13 hstemhm
            return
          </CharString>
          <CharString index="104">
            14 17 22 13 30 7 rrcurveto
            5 16 3 23 157 callsubr
            16 9 flex1
            -18 -4 -18 -5 -17 -6 rrcurveto
            4 14 2 15 17 vvcurveto
            63 -35 47 -72 47 vhcurveto
            -54 36 -37 23 61 vvcurveto
            14 2 15 3 18 vhcurveto
            -25 1 -34 -1 -32 -10 rrcurveto
            -4 -22 -2 -20 -17 vvcurveto
            -86 48 -32 81 -58 vhcurveto
            67 -47 32 -23 -37 vvcurveto
            -27 -10 -22 -15 -16 vhcurveto
            return
          </CharString>
          <CharString index="105">
            rmoveto
            -27 -18 40 42 13 2 13 4 10 152 callgsubr
            -10 -13 vhcurveto
            return
          </CharString>
          <CharString index="106">
            176 -183 3 callsubr
            282 -344 50 callgsubr
            -74 callsubr
            return
          </CharString>
          <CharString index="107">
            47 26 -47 -104 10 hvcurveto
            57 48 6 15 47 hvcurveto
            132 -7 -69 93 -129 hhcurveto
            -184 -119 -203 -245 -189 87 -108 126 79 62 34 72 51 hvcurveto
            return
          </CharString>
          <CharString index="108">
            -127 -50 -104 -69 -66 -71 4 -48 15 -43 34 -46 return
          </CharString>
          <CharString index="109">
            -74 -50 -71 -99 -120 74 -77 101 -7 hvcurveto
            24 34 15 55 44 vvcurveto
            -4 -14 -17 -3 -16 hhcurveto
            -48 -47 24 39 30 25 19 38 44 39 -25 -44 32 hvcurveto
            16 -26 rlineto
            return
          </CharString>
          <CharString index="110">
            rmoveto
            -27 -18 15 25 23 17 16 25 20 24 -11 -21 20 hvcurveto
            -30 -9 -24 -17 -28 hhcurveto
            return
          </CharString>
          <CharString index="111">
            rmoveto
            -23 -15 17 21 29 28 21 35 10 10 -2 -4 9 hvcurveto
            -37 2 -17 -45 -39 hhcurveto
            return
          </CharString>
          <CharString index="112">
            rmoveto
            16 callsubr
            hintmask 11110000
            -9 callsubr
            -209 105 -95 144 hvcurveto
            hintmask 11101000
            164 86 93 150 10 hvcurveto
            endchar
          </CharString>
          <CharString index="113">
            36 callgsubr
            -36 -48 32 65 -17 hvcurveto
            2 75 5 65 9 72 rrcurveto
            return
          </CharString>
          <CharString index="114">
            23 10 31 16 31 hvcurveto
            34 -27 38 -27 37 -22 rrcurveto
            -34 -28 -33 -24 return
          </CharString>
          <CharString index="115">
            vhcurveto
            -62 85 -44 -13 -43 -13 -43 -17 rlinecurve
            92 -35 -91 77 -94 hhcurveto
            -66 -54 -38 -73 -29 9 -32 23 -29 hvcurveto
            36 46 12 17 28 hvcurveto
            -14 15 -15 14 22 vvcurveto
            20 12 14 25 49 43 -52 -57 -53 -40 -26 -76 -47 -58 9 21 -66 vhcurveto
            17 -123 rlineto
            -23 59 69 -7 56 hhcurveto
            101 75 37 77 19 hvcurveto
            29 12 29 11 return
          </CharString>
          <CharString index="116">
            vvcurveto
            29 5 12 20 9 vhcurveto
            10 4 14 4 13 -52 callsubr
            -45 -8 -40 -10 -38 -16 rrcurveto
            -30 -13 -24 -28 -40 return
          </CharString>
          <CharString index="117">
            27 -361 rmoveto
            122 -73 116 -136 41 vhcurveto
            -3 26 -13 25 -18 23 36 3 37 2 40 1 23 -95 69 -69 121 -22 rrcurveto
            -4 -62 -2 -61 -55 vvcurveto
            return
          </CharString>
          <CharString index="118">
            -30 -35 -7 -24 hhcurveto
            -31 -23 16 29 21 7 23 7 18 95 callgsubr
            -15 -33 -13 -39 -41 155 callgsubr
            36 8 36 hhcurveto
            return
          </CharString>
          <CharString index="119">
            15 7 16 5 19 5 -48 callgsubr
            91 callsubr
            -41 -7 -37 -12 -31 -13 return
          </CharString>
          <CharString index="120">
            80 callgsubr
            -30 1 rrcurveto
            return
          </CharString>
          <CharString index="121">
            39 17 25 23 24 40 -68 45 -47 43 -40 48 60 42 46 46 49 58 -18 28 -37 28 -35 17 -55 -92 -59 -62 -74 -56 45 -90 65 -70 80 -65 rrcurveto
            return
          </CharString>
          <CharString index="122">
            -71 -21 -54 -69 -72 vvcurveto
            -66 44 -37 52 38 31 21 30 21 vhcurveto
            return
          </CharString>
          <CharString index="123">
            -24 15 -49 10 -44 -4 rrcurveto
            -101 8 -38 -65 -76 hhcurveto
            -80 -42 88 154 172 61 121 71 hvcurveto
            return
          </CharString>
          <CharString index="124">
            66 9 vstem
            -69 callgsubr
            -27 -5 -25 -8 -23 -11 rrcurveto
            226 -36 -162 144 -216 hhcurveto
            -110 -75 -51 -84 -35 15 -29 27 -21 hvcurveto
            52 26 rlineto
            -15 8 -11 12 16 vvcurveto
            39 47 19 78 return
          </CharString>
          <CharString index="125">
            -35 29 -51 23 -45 10 rrcurveto
            -5 -9 -3 -18 0 -19 0 -21 4 -24 -13 flex1
            74 -13 13 -61 -42 vvcurveto
            -3 -185 -13 -138 -19 -124 rrcurveto
            return
          </CharString>
          <CharString index="126">
            119 callgsubr
            20 7 57 10 41 hvcurveto
            48 9 30 21 53 hhcurveto
            74 60 -9 -22 46 hvcurveto
            3 16 1 25 0 20 0 17 -1 -26 callsubr
            23 -45 -60 12 -75 hhcurveto
            -166 -39 -85 -148 hvcurveto
            -4 vlineto
            373 callsubr
            hvcurveto
            return
          </CharString>
          <CharString index="127">
            rmoveto
            hintmask 10111000
            -101 callsubr
            hintmask 11011000
            -100 callgsubr
            -166 hmoveto
            109 callsubr
            return
          </CharString>
          <CharString index="128">
            -61 -78 -23 -47 hhcurveto
            -51 -29 32 38 -26 hvcurveto
            -16 -15 -22 -28 -17 -35 rrcurveto
            -49 32 46 -42 74 hhcurveto
            return
          </CharString>
          <CharString index="129">
            -39 -124 27 -21 56 -18 41 -5 48 79 77 88 82 63 rrcurveto
            -18 -65 -10 -76 -76 vvcurveto
            -41 2 -41 5 -41 vhcurveto
            40 -31 -37 21 -48 hhcurveto
            return
          </CharString>
          <CharString index="130">
            26 -4 24 -5 20 -4 6 callgsubr
            10 2 10 2 11 2 13 -45 75 -34 54 -33 -131 -140 rcurveline
            3 -41 24 -42 40 -32 98 -19 84 -57 65 -108 rrcurveto
            return
          </CharString>
          <CharString index="131">
            -47 -65 -21 -37 hhcurveto
            -32 -24 19 36 21 96 callsubr
            -13 -39 -42 vvcurveto
            -76 56 -53 90 vhcurveto
            return
          </CharString>
          <CharString index="132">
            -55 -76 -23 -43 hhcurveto
            -33 -25 19 36 21 8 24 8 50 callsubr
            -17 -34 -14 -40 -42 vvcurveto
            -77 56 -51 93 vhcurveto
            return
          </CharString>
          <CharString index="133">
            -41 -55 -25 -34 hhcurveto
            -24 -18 13 33 25 10 33 16 29 hvcurveto
            -21 9 -28 5 -35 1 rrcurveto
            -20 -43 -17 -52 -48 vvcurveto
            -78 44 -52 71 vhcurveto
            return
          </CharString>
          <CharString index="134">
            87 callsubr
            23 -87 -120 10 -147 hhcurveto
            return
          </CharString>
          <CharString index="135">
            -35 -25 -18 -21 -12 hvcurveto
            1 -45 12 -51 17 -32 rrcurveto
            return
          </CharString>
          <CharString index="136">
            27 -4 25 -4 20 -5 6 callgsubr
            13 3 15 3 16 2 27 -24 58 -21 44 -19 -131 -101 rcurveline
            3 -30 24 -31 40 -23 98 -14 84 -41 65 -79 rrcurveto
            return
          </CharString>
          <CharString index="137">
            19 82 106 12 138 hhcurveto
            -11 -47 -8 -47 -2 -35 rrcurveto
            373 callsubr
            151 callsubr
            hvcurveto
            40 callsubr
            49 49 -47 -58 35 hvcurveto
            return
          </CharString>
          <CharString index="138">
            rmoveto
            40 53 4 14 33 hvcurveto
            -33 123 -6 185 163 vvcurveto
            105 2 60 7 74 vhcurveto
            return
          </CharString>
          <CharString index="139">
            -34 -17 -28 hhcurveto
            -23 -14 9 16 28 35 30 46 8 hvcurveto
            -14 26 -33 24 -30 4 rrcurveto
            -43 -13 -45 -35 -54 vvcurveto
            -71 74 -56 85 return
          </CharString>
          <CharString index="140">
            vvcurveto
            -36 -18 -24 -37 vhcurveto
            -82 -42 124 -108 hhcurveto
            -66 -50 -49 -73 return
          </CharString>
          <CharString index="141">
            101 callsubr
            -55 64 -67 return
          </CharString>
          <CharString index="142">
            rmoveto
            -22 57 -38 46 -45 30 45 31 54 31 51 25 -10 -75 -17 -81 -18 -64 rrcurveto
            endchar
          </CharString>
          <CharString index="143">
            70 callgsubr
            -24 -15 flex1
            return
          </CharString>
          <CharString index="144">
            rmoveto
            -5 41 -15 51 -18 28 rrcurveto
            -32 -32 -27 -10 -20 hhcurveto
            return
          </CharString>
          <CharString index="145">
            42 4 37 9 42 7 -48 callgsubr
            91 callsubr
            -45 -8 -57 -18 -35 -4 -32 -2 -27 -2 -39 -3 -47 -5 -42 -22 -6 -54 -1 -3 0 -3 -1 -3 rrcurveto
            91 -23 -45 59 -60 hhcurveto
            -54 -43 -45 -64 -21 hvcurveto
            return
          </CharString>
          <CharString index="146">
            -23 7 -24 3 -18 -22 -23 -4 -12 hflex1
            4 -81 2 -69 3 -95 27 -1 36 1 17 6 18 100 9 74 6 65 rrcurveto
            return
          </CharString>
          <CharString index="147">
            8 35 3 33 -6 36 rrcurveto
            -9 -15 -25 -4 -20 hhcurveto
            -30 -19 14 22 27 27 19 40 return
          </CharString>
          <CharString index="148">
            24 -36 29 7 22 8 17 8 70 callsubr
            17 8 10 15 28 31 -63 -105 14 vhcurveto
            1 -6 0 -4 1 -4 rrcurveto
            45 48 13 25 32 hvcurveto
            -17 64 -12 218 137 154 callsubr
            return
          </CharString>
          <CharString index="149">
            rmoveto
            40 49 13 19 32 hvcurveto
            -38 186 callgsubr
            return
          </CharString>
          <CharString index="150">
            137 126 -15 -17 79 hvcurveto
            308 callsubr
            20 -72 -128 16 -139 hhcurveto
            hintmask 11010110
            -139 -119 -16 -20 -77 237 callgsubr
            -20 0 -18 0 -24 4 -21 -13 flex1
            31 7 return
          </CharString>
          <CharString index="151">
            604 26 rmoveto
            -11 callgsubr
            221 callsubr
            27 -13 26 -19 22 36 3 38 1 40 2 rrcurveto
            return
          </CharString>
          <CharString index="152">
            21 -19 -33 -23 -11 -32 -17 -32 hvcurveto
            -37 23 278 callsubr
            return
          </CharString>
          <CharString index="153">
            -73 53 78 -38 59 hhcurveto
            56 38 35 52 2 hvcurveto
            13 -2 11 -3 11 -2 rrcurveto
            4 -65 callsubr
            -16 4 -19 4 -21 4 rrcurveto
            32 -20 -32 16 -43 hhcurveto
            -33 -42 -8 -18 -38 hvcurveto
            return
          </CharString>
          <CharString index="154">
            -94 callgsubr
            -39 -19 -9 -49 -2 return
          </CharString>
          <CharString index="155">
            vvcurveto
            -76 67 -45 64 83 66 56 73 26 vhcurveto
            223 callsubr
            -51 8 20 -56 vhcurveto
            return
          </CharString>
          <CharString index="156">
            vhcurveto
            -24 callsubr
            return
          </CharString>
          <CharString index="157">
            19 13 callsubr
            return
          </CharString>
          <CharString index="158">
            rrcurveto
            5 345 callgsubr
            return
          </CharString>
          <CharString index="159">
            -32 -57 57 -77 hhcurveto
            -97 -59 -89 -108 -109 62 -80 82 66 47 28 callgsubr
            6 -14 5 -18 -14 vvcurveto
            -30 -13 284 callsubr
            35 43 53 return
          </CharString>
          <CharString index="160">
            vvcurveto
            -16 -5 -14 -12 -11 vhcurveto
            -5 -4 -5 -4 -5 -3 179 callgsubr
            78 65 79 81 49 73 4 -15 3 -17 1 -18 rrcurveto
            -4 -62 -2 -67 -70 vvcurveto
            -44 2 -40 3 -31 vhcurveto
            53 -46 -55 21 -71 hhcurveto
            return
          </CharString>
          <CharString index="161">
            98 -5 95 -12 56 -12 rrcurveto
            5 13 3 195 callgsubr
            18 -3 181 callgsubr
            18 -68 -143 18 -130 -75 callsubr
            return
          </CharString>
          <CharString index="162">
            94 -4 80 -9 65 -16 rrcurveto
            6 16 3 25 0 20 0 17 -2 -26 callsubr
            23 -87 -120 12 -150 hhcurveto
            -139 -108 -14 -21 -81 237 callsubr
            -17 0 -18 0 -21 4 -24 -50 callsubr
            return
          </CharString>
          <CharString index="163">
            -49 callsubr
            -69 -83 vvcurveto
            return
          </CharString>
          <CharString index="164">
            -3 98 callgsubr
            return
          </CharString>
          <CharString index="165">
            -52 vvcurveto
            -102 74 -63 71 40 35 21 24 32 382 callgsubr
            -7 -8 vvcurveto
            -84 -29 -60 -74 -111 -82 132 227 -57 vhcurveto
            -28 -9 -29 -12 -25 -14 rrcurveto
            -199 46 83 -246 196 hhcurveto
            return
          </CharString>
          <CharString index="166">
            -42 10 -50 2 -40 -3 4 -65 -7 -77 -18 -97 26 -8 37 -5 37 -1 39 106 12 57 2 81 rrcurveto
            return
          </CharString>
          <CharString index="167">
            -80 -52 -49 -75 -79 56 -57 70 76 47 65 77 2 hvcurveto
            return
          </CharString>
          <CharString index="168">
            rrcurveto
            5 16 4 23 0 21 0 18 -30 callgsubr
            return
          </CharString>
          <CharString index="169">
            237 callgsubr
            -19 0 -18 0 -24 4 -21 -50 callsubr
            return
          </CharString>
          <CharString index="170">
            100 49 56 67 58 -40 52 -83 -79 -50 -45 -62 -28 hvcurveto
            -48 23 -43 30 -27 29 -22 -30 -14 -35 -10 -37 31 -27 51 -27 56 -20 rrcurveto
            -4 -22 -1 -22 -22 vvcurveto
            -124 62 -73 86 2 vhcurveto
            return
          </CharString>
          <CharString index="171">
            223 rmoveto
            -30 -14 15 25 23 16 16 22 24 17 -12 -28 14 hvcurveto
            -27 -7 -13 -12 -29 hhcurveto
            endchar
          </CharString>
          <CharString index="172">
            3 24 6 16 21 8 12 4 12 4 12 3 rrcurveto
            4 125 callsubr
            -41 -7 -35 -10 -32 -13 -30 127 callgsubr
            return
          </CharString>
          <CharString index="173">
            vvcurveto
            2 18 11 14 30 3 28 2 26 0 21 2 43 4 37 10 41 7 rrcurveto
            5 13 4 23 0 19 0 21 57 callsubr
            -45 -8 -56 -19 -36 -3 -32 -3 -27 -2 -38 -3 return
          </CharString>
          <CharString index="174">
            -82 7 -82 14 -77 vhcurveto
            41 40 7 14 26 hvcurveto
            -25 83 -12 83 97 vvcurveto
            39 3 40 5 42 vhcurveto
            return
          </CharString>
          <CharString index="175">
            -24 24 -33 25 -27 14 rrcurveto
            -40 -27 -37 -33 -23 hhcurveto
            -11 -13 7 24 return
          </CharString>
          <CharString index="176">
            -8 callsubr
            94 return
          </CharString>
          <CharString index="177">
            rlinecurve
            -6 10 rlineto
            -10 17 -6 10 13 vvcurveto
            return
          </CharString>
          <CharString index="178">
            100 546 339 callgsubr
            -370 111 94 91 hintmask 10110000
            142 callgsubr
            return
          </CharString>
          <CharString index="179">
            118 callgsubr
            7 20 7 17 13 callsubr
            -15 -32 -13 -36 -40 vvcurveto
            -69 50 -48 84 vhcurveto
            33 33 6 30 hhcurveto
            39 12 -35 -31 16 hvcurveto
            return
          </CharString>
          <CharString index="180">
            131 callsubr
            301 callsubr
            return
          </CharString>
          <CharString index="181">
            rmoveto
            -3 45 -2 64 41 vvcurveto
            55 2 67 4 64 vhcurveto
            return
          </CharString>
          <CharString index="182">
            vvcurveto
            -42 1 -38 3 -31 vhcurveto
            43 -31 -34 23 -47 hhcurveto
            return
          </CharString>
          <CharString index="183">
            116 156 callgsubr
            return
          </CharString>
          <CharString index="184">
            167 430 113 hstemhm
            32 109 183 67 -24 102 103 99 hintmask 11011000
            367 96 rmoveto
            -38 63 -57 48 -60 35 53 39 65 36 58 22 -13 -81 -7 -84 -1 -78 rrcurveto
            return
          </CharString>
          <CharString index="185">
            -5 rrcurveto
            104 callsubr
            18 -51 -131 14 -93 hhcurveto
            -113 -105 -14 -18 -64 -45 callsubr
            return
          </CharString>
          <CharString index="186">
            709 -105 callgsubr
            return
          </CharString>
          <CharString index="187">
            4 16 5 12 3 1 callgsubr
            19 -3 17 -31 callgsubr
            -46 -7 -52 -17 -19 -9 rrcurveto
            -53 -22 -7 -31 -37 -32 7 -112 -99 vvcurveto
            -172 -19 return
          </CharString>
          <CharString index="188">
            18 -1 16 -5 13 vhcurveto
            18 -51 -131 14 -97 hhcurveto
            -109 -104 -14 -18 -64 -45 callsubr
            15 65 101 13 108 hhcurveto
            return
          </CharString>
          <CharString index="189">
            390 -237 154 callgsubr
            4 64 2 67 1 66 rrcurveto
            111 35 60 87 112 vvcurveto
            70 -17 68 -24 50 vhcurveto
            -29 91 callgsubr
            return
          </CharString>
          <CharString index="190">
            -62 callsubr
            rrcurveto
            return
          </CharString>
          <CharString index="191">
            58 -8 43 -15 -44 vvcurveto
            -36 -41 -39 -46 -13 vhcurveto
            16 -40 34 -28 28 -6 rrcurveto
            42 23 40 53 72 vvcurveto
            81 -71 78 -100 33 vhcurveto
            2 28 2 28 2 29 rrcurveto
            1 return
          </CharString>
          <CharString index="192">
            77 -9 63 -13 -55 vvcurveto
            -34 -44 -35 -48 -13 vhcurveto
            19 -46 36 -35 30 -7 rrcurveto
            42 24 return
          </CharString>
          <CharString index="193">
            9 24 4 28 -1 31 rrcurveto
            -5 -10 -13 -5 -14 hhcurveto
            -29 -20 15 27 26 17 11 18 return
          </CharString>
          <CharString index="194">
            -5 rrcurveto
            4 -65 callsubr
            return
          </CharString>
          <CharString index="195">
            -14 callsubr
            -4 -26 callsubr
            return
          </CharString>
          <CharString index="196">
            1 -2 0 -2 1 -2 rrcurveto
            return
          </CharString>
          <CharString index="197">
            131 -32 186 178 return
          </CharString>
          <CharString index="198">
            -4 98 callgsubr
            return
          </CharString>
          <CharString index="199">
            187 73 rmoveto
            -46 -34 20 34 -20 hvcurveto
            127 47 79 111 154 vvcurveto
            35 -5 34 -10 32 vhcurveto
            43 -74 30 -79 -91 vvcurveto
            281 callgsubr
            return
          </CharString>
          <CharString index="200">
            207 callsubr
            -77 -36 -20 -25 -24 hhcurveto
            -36 -22 70 119 209 53 94 129 19 hvcurveto
            5 14 4 23 0 19 0 23 -3 14 -56 callsubr
            return
          </CharString>
          <CharString index="201">
            25 18 25 121 callsubr
            return
          </CharString>
          <CharString index="202">
            -4 -14 -16 -3 -15 hhcurveto
            -41 -39 21 33 26 19 15 30 40 34 -20 -35 28 hvcurveto
            return
          </CharString>
          <CharString index="203">
            150 callgsubr
            -31 1 rrcurveto
            -16 -33 return
          </CharString>
          <CharString index="204">
            -31 108 -86 109 return
          </CharString>
          <CharString index="205">
            rmoveto
            108 -15 148 -2 117 17 228 callgsubr
            -139 -14 -121 0 -118 16 rrcurveto
            -5 -34 -2 -26 -34 vvcurveto
            endchar
          </CharString>
          <CharString index="206">
            -2 -12 115 callsubr
            return
          </CharString>
          <CharString index="207">
            rmoveto
            -20 -28 3 9 -31 hvcurveto
            return
          </CharString>
          <CharString index="208">
            hhcurveto
            71 210 callsubr
            return
          </CharString>
          <CharString index="209">
            34 46 11 18 27 hvcurveto
            -14 12 -13 13 19 vvcurveto
            18 11 13 23 45 40 -46 -52 -49 -37 -24 -72 -45 -56 9 20 -63 vhcurveto
            20 -132 rlineto
            return
          </CharString>
          <CharString index="210">
            -22 2 -19 2 -14 2 rrcurveto
            -9 -9 -7 -44 -18 vvcurveto
            14 -6 23 -6 31 return
          </CharString>
          <CharString index="211">
            4 15 2 289 callsubr
            -1 16 13 flex1
            return
          </CharString>
          <CharString index="212">
            27 21 23 25 19 25 -76 62 -69 58 -69 48 rrcurveto
            return
          </CharString>
          <CharString index="213">
            120 callgsubr
            0 682 return
          </CharString>
          <CharString index="214">
            -26 -25 -6 -10 -23 vhcurveto
            -1 3 0 return
          </CharString>
          <CharString index="215">
            0 20 101 callgsubr
            return
          </CharString>
          <CharString index="216">
            hintmask 10111000
            -101 callsubr
            hintmask 11011000
            -100 callgsubr
            hintmask 10111000
            return
          </CharString>
          <CharString index="217">
            rmoveto
            -22 -10 19 47 79 15 132 20 116 hvcurveto
            15 -45 29 -33 34 -23 rrcurveto
            24 -15 15 -12 -26 vvcurveto
            -98 -61 -141 -59 vhcurveto
            return
          </CharString>
          <CharString index="218">
            -23 -50 callsubr
            return
          </CharString>
          <CharString index="219">
            82 -8 -43 52 -64 hhcurveto
            -62 -34 -51 -66 -66 38 -52 54 21 17 10 13 11 hvcurveto
            -2 26 -12 36 -13 25 rrcurveto
            -15 -9 -10 -11 return
          </CharString>
          <CharString index="220">
            284 rmoveto
            72 0 40 8 66 vhcurveto
            7 54 33 27 124 2 rrcurveto
            4 3 0 4 hhcurveto
            -21 -110 -7 -138 -111 vvcurveto
            return
          </CharString>
          <CharString index="221">
            rmoveto
            -16 -10 11 15 17 13 12 18 15 14 -10 -15 10 hvcurveto
            -3 -4 return
          </CharString>
          <CharString index="222">
            -1 -12 88 callgsubr
            return
          </CharString>
          <CharString index="223">
            77 45 -85 callsubr
            749 -723 98 30 118 131 102 return
          </CharString>
          <CharString index="224">
            57 62 33 48 hhcurveto
            51 269 callsubr
          </CharString>
          <CharString index="225">
            -17 0 -19 0 -23 4 -21 -50 callsubr
            return
          </CharString>
          <CharString index="226">
            -91.5 181.5 return
          </CharString>
          <CharString index="227">
            133 -42 126 -79 129 -132 return
          </CharString>
          <CharString index="228">
            -78 68 -74 57 -73 46 rrcurveto
            return
          </CharString>
          <CharString index="229">
            rmoveto
            45 48 345 callsubr
            return
          </CharString>
          <CharString index="230">
            -30 29 56 -18 42 hhcurveto
            -2 11 -1 15 16 vvcurveto
            75 67 68 86 -3 vhcurveto
            52 -2 30 -28 -48 vvcurveto
            -31 -12 -32 -23 -28 vhcurveto
            return
          </CharString>
          <CharString index="231">
            300 callsubr
            31 vvcurveto
            -5 -11 -12 -5 -15 hhcurveto
            -29 -20 15 27 26 17 11 18 return
          </CharString>
          <CharString index="232">
            14 4 257 callgsubr
            return
          </CharString>
          <CharString index="233">
            101 15 71 58 102 vvcurveto
            93 -57 80 -65 48 vhcurveto
            return
          </CharString>
          <CharString index="234">
            157 callsubr
            18 return
          </CharString>
          <CharString index="235">
            -16 -22 -12 -40 -35 vvcurveto
            -9 2 -10 3 -6 vhcurveto
            14 13 21 14 25 hhcurveto
            24 18 -19 -34 -69 -71 -106 -52 hvcurveto
            -25 1 return
          </CharString>
          <CharString index="236">
            -104 -66 -78 -97 -20 4 -19 4 -18 hvcurveto
            40 -57 358 callsubr
            16 10 -6 -16 -25 -42 -40 -102 -51 hvcurveto
            return
          </CharString>
          <CharString index="237">
            vvcurveto
            65 -52 52 -63 107 callsubr
            2 3 vvcurveto
            41 38 20 50 66 79 -55 -112 4 vhcurveto
            -3 return
          </CharString>
          <CharString index="238">
            69 callsubr
            -19 79 -56 63 -104 rrcurveto
            39 52 4 15 32 hvcurveto
            return
          </CharString>
          <CharString index="239">
            -31 -50 -41 -50 -55 rrcurveto
            7 62 4 63 57 vvcurveto
            12 0 13 -1 return
          </CharString>
          <CharString index="240">
            -73 87 -27 -9 -27 -10 -26 -11 rlinecurve
            -2 90 -10 72 -9 42 rrcurveto
            return
          </CharString>
          <CharString index="241">
            -64 52 -72 -33 -23 return
          </CharString>
          <CharString index="242">
            -107 52 120 -110 177 hhcurveto
            8 8 0 1 8 hvcurveto
            -2 -38 -3 -37 -3 -33 122 callgsubr
            return
          </CharString>
          <CharString index="243">
            rmoveto
            -16 -10 11 15 17 13 12 17 16 14 -10 -15 10 hvcurveto
            -4 -5 -3 -4 -3 -4 rrcurveto
            -11 -11 -11 -6 -12 hhcurveto
            return
          </CharString>
          <CharString index="244">
            595 rmoveto
            33 -6 41 -2 41 4 -4 67 7 61 17 71 -25 6 -30 4 -33 1 rrcurveto
            -32 -63 -15 -80 -63 vvcurveto
            return
          </CharString>
          <CharString index="245">
            hhcurveto
            93 75 73 90 1 hvcurveto
            -232 7 rmoveto
            34 23 22 36 49 41 -37 -51 -34 -24 -22 -35 -48 -42 37 51 vhcurveto
            return
          </CharString>
          <CharString index="246">
            rmoveto
            -15 59 -31 156 -8 149 rrcurveto
            -1 16 17 0 17 hhcurveto
            41 25 2 5 17 hvcurveto
            5 22 5 41 28 vvcurveto
            return
          </CharString>
          <CharString index="247">
            4 -19 -19 2 -19 hhcurveto
            endchar
          </CharString>
          <CharString index="248">
            -5 7 24 4 53 -11 27 rrcurveto
            17 -53 -103 14 -99 hhcurveto
            -122 -88 -14 -17 -65 233 callsubr
            return
          </CharString>
          <CharString index="249">
            vvcurveto
            -66 -14 -37 -34 -23 -12 15 29 16 2 13 4 11 vhcurveto
            10 -32 -38 7 -38 hhcurveto
            -6 -14 -4 -21 -18 vvcurveto
            return
          </CharString>
          <CharString index="250">
            rmoveto
            -14 0 -13 -11 vvcurveto
            -39 76 -60 58 -62 39 51 35 227 callgsubr
            endchar
          </CharString>
          <CharString index="251">
            319 callsubr
            18 322 callgsubr
            23 return
          </CharString>
          <CharString index="252">
            43 57 65 43 18 12 -14 -28 -121 -10 -135 -18 -102 return
          </CharString>
          <CharString index="253">
            74 113 67 247 381 callgsubr
            858 -807 101 return
          </CharString>
          <CharString index="254">
            62 545 -85 callsubr
            644 -344 return
          </CharString>
          <CharString index="255">
            68 72 42 57 hhcurveto
            58 13 -44 -39 21 hvcurveto
            return
          </CharString>
          <CharString index="256">
            93 616 98 285 callsubr
            return
          </CharString>
          <CharString index="257">
            21 -26 33 -20 42 -8 rrcurveto
            -3 vlineto
            return
          </CharString>
          <CharString index="258">
            -78 61 -61 75 19 20 4 3 4 return
          </CharString>
          <CharString index="259">
            -77 57 -42 63 22 20 6 9 14 return
          </CharString>
          <CharString index="260">
            rrcurveto
            3 -13 -13 2 -14 hhcurveto
            return
          </CharString>
          <CharString index="261">
            vvcurveto
            66 0 38 8 61 vhcurveto
            return
          </CharString>
          <CharString index="262">
            -65 -48 -52 -75 -78 66 return
          </CharString>
          <CharString index="263">
            vhcurveto
            9 9 0 9 hhcurveto
            return
          </CharString>
          <CharString index="264">
            -21 callsubr
            18 -2 return
          </CharString>
          <CharString index="265">
            22 0 20 0 20 return
          </CharString>
          <CharString index="266">
            hhcurveto
            31 20 -15 -24 -13 -4 -14 -6 -14 hvcurveto
            17 -15 -23 12 -24 hhcurveto
            -42 -39 -35 -53 -49 37 -34 44 hvcurveto
            return
          </CharString>
          <CharString index="267">
            2 -11 1 -12 -11 vvcurveto
            -76 -43 -43 -85 -125 -106 124 197 -47 vhcurveto
            -28 -8 -27 -11 -26 -12 rrcurveto
            return
          </CharString>
          <CharString index="268">
            170 callgsubr
            76 3 return
          </CharString>
          <CharString index="269">
            -70 rrcurveto
            -8 89 rmoveto
            -38 35 -58 29 -56 22 44 20 53 16 49 12 2 -45 2 -48 2 -41 rrcurveto
            endchar
          </CharString>
          <CharString index="270">
            -10 -3 -17 0 return
          </CharString>
          <CharString index="271">
            -55 -5 -50 -3 -57 -5 7 74 3 55 1 51 rrcurveto
            3 -14 -19 2 -15 hhcurveto
            -23 -26 -6 -7 -12 hvcurveto
            return
          </CharString>
          <CharString index="272">
            133 67 28 53 hhcurveto
            26 20 -12 -20 15 hvcurveto
            15 20 188 callgsubr
            -29 13 -36 hhcurveto
            return
          </CharString>
          <CharString index="273">
            -50 -5 -48 -3 -46 -2 -1 50 -4 48 -6 42 -33 1 -27 -1 -33 -5 5 -46 3 -45 2 -44 rrcurveto
            return
          </CharString>
          <CharString index="274">
            -33 rmoveto
            24 114 17 182 194 vvcurveto
            22 7 16 return
          </CharString>
          <CharString index="275">
            84 -17 68 -33 46 -126 rrcurveto
            46 -25 -33 21 -45 hhcurveto
            return
          </CharString>
          <CharString index="276">
            -30 callsubr
            72 47 54 97 22 hvcurveto
            return
          </CharString>
          <CharString index="277">
            hvcurveto
            -28 11 -35 8 -29 4 rrcurveto
            -43 -37 -35 -38 -27 hhcurveto
            -17 -12 9 19 24 20 55 23 49 hvcurveto
            return
          </CharString>
          <CharString index="278">
            16 hvcurveto
            17 24 12 42 33 vvcurveto
            10 -1 9 -2 4 vhcurveto
            -12 -14 -20 -14 -26 hhcurveto
            -25 -18 13 29 return
          </CharString>
          <CharString index="279">
            68 58 -11 -9 41 369 callgsubr
            21 0 21 0 19 -2 17 12 flex1
            110 -19 -57 83 return
          </CharString>
          <CharString index="280">
            31 -3 22 hhcurveto
            22 23 4 5 14 hvcurveto
            -20 16 -7 19 24 vvcurveto
            45 35 28 70 78 45 -32 -47 return
          </CharString>
          <CharString index="281">
            30 56 32 41 17 rrcurveto
            -1 -28 0 -30 -31 vvcurveto
            endchar
          </CharString>
          <CharString index="282">
            -140 -14 -120 0 -119 15 rrcurveto
            return
          </CharString>
          <CharString index="283">
            227 callsubr
            -55 44 -60 return
          </CharString>
          <CharString index="284">
            325 callgsubr
            -38 -33 14 24 21 24 return
          </CharString>
          <CharString index="285">
            -5 -33 -2 -26 -34 vvcurveto
            return
          </CharString>
          <CharString index="286">
            hhcurveto
            -104 -66 -86 -106 -22 return
          </CharString>
          <CharString index="287">
            54 vvcurveto
            81 13 74 21 return
          </CharString>
          <CharString index="288">
            -22 -16 flex1
            return
          </CharString>
          <CharString index="289">
            90 callgsubr
            -33 109 -28 139 165 vvcurveto
            110 7 67 8 81 vhcurveto
            return
          </CharString>
          <CharString index="290">
            60 5 67 4 71 1 -6 -52 -5 -59 -1 -46 rrcurveto
            return
          </CharString>
          <CharString index="291">
            31 32 vvcurveto
            175 callsubr
            return
          </CharString>
          <CharString index="292">
            16 79 108 15 130 hhcurveto
            return
          </CharString>
          <CharString index="293">
            -188 76 -120 117 vhcurveto
            return
          </CharString>
          <CharString index="294">
            rrcurveto
            -12 323 callsubr
            return
          </CharString>
          <CharString index="295">
            rmoveto
            32 1 34 5 30 12 return
          </CharString>
          <CharString index="296">
            -15 -14 3 -14 hhcurveto
            hintmask 1110111011000000
            155 callsubr
            -56 72 45 44 26 38 28 hvcurveto
            return
          </CharString>
          <CharString index="297">
            hhcurveto
            -202 -178 -20 -22 -97 -92 callgsubr
            return
          </CharString>
          <CharString index="298">
            61 73 24 61 hhcurveto
            59 28 -35 -44 16 hvcurveto
            5 -27 -32 3 -35 hhcurveto
            -123 -94 -43 -92 return
          </CharString>
          <CharString index="299">
            vstem
            141 -40 rmoveto
            202 161 139 203 76 242 -26 11 -29 8 -28 6 return
          </CharString>
          <CharString index="300">
            59 60 36 50 hhcurveto
            59 16 -34 -34 18 hvcurveto
            endchar
          </CharString>
          <CharString index="301">
            hvcurveto
            -6 -11 -2 return
          </CharString>
          <CharString index="302">
            -16 0 -18 0 return
          </CharString>
          <CharString index="303">
            vvcurveto
            -4 -13 -15 -2 -15 hhcurveto
            -46 -43 20 34 26 23 16 36 39 35 -20 -34 28 hvcurveto
            return
          </CharString>
          <CharString index="304">
            89 callsubr
            -367 223 rmoveto
            -29 -15 15 25 23 17 16 22 23 return
          </CharString>
          <CharString index="305">
            19 36 20 7 23 7 18 hvcurveto
            9 -20 -28 7 -30 hhcurveto
            -16 -32 -13 -38 -42 vvcurveto
            -78 return
          </CharString>
          <CharString index="306">
            24 -4 22 -4 18 -4 rrcurveto
            5 305 callsubr
            return
          </CharString>
          <CharString index="307">
            -11 vvcurveto
            -40 69 -55 50 -59 35 47 42 60 39 53 25 rrcurveto
            -4 -70 -2 -70 -84 vvcurveto
            return
          </CharString>
          <CharString index="308">
            74 -3 -5 66 hvcurveto
            -20 -107 -10 -134 -107 vvcurveto
            return
          </CharString>
          <CharString index="309">
            95 -196 8 vhcurveto
            -15 -121 -5 -101 -140 return
          </CharString>
          <CharString index="310">
            107 callsubr
            3 3 vvcurveto
            return
          </CharString>
          <CharString index="311">
            8 -24 -27 vvcurveto
            -73 -55 -40 -83 -41 return
          </CharString>
          <CharString index="312">
            435 89 339 callsubr
            return
          </CharString>
          <CharString index="313">
            247 callgsubr
            hvcurveto
            return
          </CharString>
          <CharString index="314">
            32 -39 57 -36 20 vhcurveto
            return
          </CharString>
          <CharString index="315">
            -60 -79 -23 -47 hhcurveto
            -51 return
          </CharString>
          <CharString index="316">
            503 -436 113 return
          </CharString>
          <CharString index="317">
            46 76 107 115 return
          </CharString>
          <CharString index="318">
            97 callsubr
            278 263 callsubr
            8 93 2 91 118 71 return
          </CharString>
          <CharString index="319">
            -61 -52 55 109 -7 hvcurveto
            41 -1 42 -3 22 -4 rrcurveto
            39 -6 34 -29 -50 vvcurveto
            return
          </CharString>
          <CharString index="320">
            44 37 22 51 65 80 -62 -113 2 vhcurveto
            -6 -146 -18 -114 -30 -107 rrcurveto
            return
          </CharString>
          <CharString index="321">
            rmoveto
            6 44 4 47 1 48 46 2 45 4 41 6 228 callgsubr
            return
          </CharString>
          <CharString index="322">
            28 6 23 8 16 8 rlinecurve
            -14 24 rlineto
            -4 7 -2 7 5 vvcurveto
            13 10 8 16 return
          </CharString>
          <CharString index="323">
            rmoveto
            -29 -22 -23 -28 -32 23 -28 36 29 22 23 28 32 -24 28 -35 hvcurveto
            endchar
          </CharString>
          <CharString index="324">
            56 19 -25 -23 22 hvcurveto
            endchar
          </CharString>
          <CharString index="325">
            390 -135 rmoveto
            32 98 19 212 133 vvcurveto
            101 -10 82 -10 47 vhcurveto
            return
          </CharString>
          <CharString index="326">
            -109 124 -88 110 506 106 hstemhm
            -3 97 -66 99 213 112 return
          </CharString>
          <CharString index="327">
            42 8 54 7 61 6 44 3 26 -24 4 -35 153 callsubr
            return
          </CharString>
          <CharString index="328">
            323 callgsubr
            27 -361 rmoveto
            122 -73 116 -136 41 vhcurveto
            -3 return
          </CharString>
          <CharString index="329">
            -28 91 callgsubr
            -61 -37 -35 -53 -27 363 callgsubr
            34 21 return
          </CharString>
          <CharString index="330">
            13 -19 204 callsubr
            return
          </CharString>
          <CharString index="331">
            348 -125 rmoveto
            30 35 5 10 29 hvcurveto
            return
          </CharString>
          <CharString index="332">
            111 hstemhm
            8 93 62 64 200 112 return
          </CharString>
          <CharString index="333">
            28 111 vvcurveto
            17 -38 -28 3 -36 hhcurveto
            -28 return
          </CharString>
          <CharString index="334">
            -15 0 -14 -13 vvcurveto
            -41 58 return
          </CharString>
          <CharString index="335">
            43 161 178 157 return
          </CharString>
          <CharString index="336">
            33 154 247 157 return
          </CharString>
          <CharString index="337">
            114 -112 102 76 63 return
          </CharString>
          <CharString index="338">
            91 118 71 44 112 return
          </CharString>
          <CharString index="339">
            hhcurveto
            -53 -44 -45 -65 -22 hvcurveto
            return
          </CharString>
          <CharString index="340">
            hvcurveto
            -12 -22 4 -54 8 -28 return
          </CharString>
          <CharString index="341">
            80 228 114 return
          </CharString>
          <CharString index="342">
            4 181 callsubr
            return
          </CharString>
          <CharString index="343">
            -22 -50 callsubr
            return
          </CharString>
          <CharString index="344">
            hvcurveto
            -6 -10 -2 return
          </CharString>
          <CharString index="345">
            77 113 94 75 111 288 callsubr
            46 98 -81 98 hstemhm
            return
          </CharString>
          <CharString index="346">
            -85 125 -89 117 474 96 hstemhm
            -29 97 -40 123 118 94 return
          </CharString>
          <CharString index="347">
            17 81 145 15 140 hhcurveto
            22 -639 rmoveto
            209 callgsubr
            return
          </CharString>
          <CharString index="348">
            -33 129 112 94 68 57 139 94 hstemhm
            214 124 29 58 return
          </CharString>
          <CharString index="349">
            704 190 rmoveto
            -41 -55 24 48 -42 hvcurveto
            2 32 1 33 1 34 rrcurveto
            return
          </CharString>
          <CharString index="350">
            344 callsubr
            -19 43 -86 4 rlineto
            -29 vlineto
            -128 -136 rlineto
            -24 vlineto
            return
          </CharString>
          <CharString index="351">
            27 -17 17 -26 -26 -16 -17 -27 return
          </CharString>
          <CharString index="352">
            -77 -35 125 343 123 return
          </CharString>
          <CharString index="353">
            rmoveto
            -13 82 -7 76 -4 69 rrcurveto
            return
          </CharString>
          <CharString index="354">
            379 callsubr
            13 vvcurveto
            return
          </CharString>
          <CharString index="355">
            8 322 callsubr
            return
          </CharString>
          <CharString index="356">
            88 67 62 34 113 return
          </CharString>
          <CharString index="357">
            0 -17 0 -22 return
          </CharString>
          <CharString index="358">
            -85 callsubr
            475 -422 107 152 129 hintmask 11011000
            441 return
          </CharString>
          <CharString index="359">
            -71 254 92 155 139 hstem
            28 81 84 92 68 158 vstem
            return
          </CharString>
          <CharString index="360">
            rmoveto
            57 127 26 207 188 73 -4 93 32 vvcurveto
            34 4 8 return
          </CharString>
          <CharString index="361">
            486 rmoveto
            83 1 -63 61 -86 hhcurveto
            -93 -73 -72 -92 -1 hvcurveto
            -82 -1 return
          </CharString>
          <CharString index="362">
            -8 19 -11 359 callsubr
            return
          </CharString>
          <CharString index="363">
            251 90 72 94 38 -85 callsubr
            return
          </CharString>
          <CharString index="364">
            39 314 368 callsubr
            74 38 7 return
          </CharString>
          <CharString index="365">
            -57 -247 89 162 95 340 92 return
          </CharString>
          <CharString index="366">
            556 -181 207 hstemhm
            41 154 return
          </CharString>
          <CharString index="367" raw="1">
            a0760a9e 0b  
          </CharString>
          <CharString index="368">
            -2 17 -56 callsubr
            return
          </CharString>
          <CharString index="369">
            112 115 vvcurveto
            return
          </CharString>
          <CharString index="370">
            88 58 117 hstemhm
            return
          </CharString>
          <CharString index="371">
            337 callsubr
            657 -577 340 callgsubr
            return
          </CharString>
          <CharString index="372">
            122 callsubr
            -16 60 -9 344 callsubr
            vvcurveto
            66 return
          </CharString>
          <CharString index="373">
            33 409 114 hstem
            37 109 163 87 45 114 vstem
            return
          </CharString>
          <CharString index="374">
            71 -36 115 -24 45 51 95 26 82 hstemhm
            20 100 47 131 return
          </CharString>
          <CharString index="375">
            56 19 -26 -22 22 hvcurveto
            endchar
          </CharString>
          <CharString index="376">
            365 callsubr
            endchar
          </CharString>
          <CharString index="377">
            -86 412 337 callsubr
            496 -416 113 return
          </CharString>
          <CharString index="378">
            rrcurveto
            4 313 callgsubr
            return
          </CharString>
          <CharString index="379">
            29 7 22 8 16 8 -6 10 rcurveline
            -10 17 -6 10 13 vvcurveto
            return
          </CharString>
          <CharString index="380">
            -5 -24 -35 -1 -42 hhcurveto
            -15 -15 0 1 -15 hvcurveto
            108 1 return
          </CharString>
          <CharString index="381">
            26 -51 19 -49 21 46 21 51 16 48 12 -6 -39 -4 -40 return
          </CharString>
          <CharString index="382">
            -53 -57 122 vhcurveto
            17 23 12 24 7 29 rrcurveto
            67 -135 return
          </CharString>
          <CharString index="383">
            -79 -190 114 46 234 callsubr
            149 108 return
          </CharString>
          <CharString index="384">
            232 callgsubr
            5 14 return
          </CharString>
          <CharString index="385">
            -39 27 -34 27 rrcurveto
            36 28 34 26 return
          </CharString>
          <CharString index="386">
            vvcurveto
            1 25 25 1 27 hhcurveto
            return
          </CharString>
          <CharString index="387">
            -25 23 -35 26 -27 15 rrcurveto
            return
          </CharString>
          <CharString index="388">
            rrcurveto
            -29 -17 -18 -12 -22 hhcurveto
            return
          </CharString>
          <CharString index="389">
            25 150 147 144 return
          </CharString>
          <CharString index="390">
            rcurveline
            3 -44 24 -44 41 -34 return
          </CharString>
          <CharString index="391">
            -31 -28 -23 -20 20 39 53 return
          </CharString>
          <CharString index="392">
            hstemhm
            10 119 -63 154 return
          </CharString>
          <CharString index="393">
            290 callsubr
            -40 -21 return
          </CharString>
          <CharString index="394">
            vvcurveto
            -39 -24 -31 -46 vhcurveto
            return
          </CharString>
          <CharString index="395">
            -104 106 161 108 return
          </CharString>
          <CharString index="396">
            21 0 21 0 18 return
          </CharString>
          <CharString index="397">
            -29 -7 -24 hhcurveto
            return
          </CharString>
          <CharString index="398">
            hstemhm
            39 164 211 142 -125 117 hintmask 11101000
            return
          </CharString>
          <CharString index="399">
            -85 callsubr
            759 -733 95 -20 80 222 102 return
          </CharString>
          <CharString index="400">
            vhcurveto
            -25 42 -31 38 -30 24 rrcurveto
            286 callgsubr
            return
          </CharString>
          <CharString index="401">
            116 246 119 172 124 hstem
            61 170 return
          </CharString>
          <CharString index="402">
            238 -200 125 -89 119 15 108 -55 103 return
          </CharString>
          <CharString index="403">
            88 hstemhm
            -40 112 11 138 -66 124 28 112 return
          </CharString>
          <CharString index="404">
            95 72 82 156 381 callgsubr
            602 -384 101 return
          </CharString>
          <CharString index="405">
            rmoveto
            76 callgsubr
            return
          </CharString>
          <CharString index="406">
            31 88 110 rcurveline
            61 -27 rlineto
            -3 -55 -1 -58 -63 vvcurveto
            return
          </CharString>
          <CharString index="407">
            153 callgsubr
            vhcurveto
            9 24 4 28 return
          </CharString>
          <CharString index="408">
            -16 75 -4 117 108 vvcurveto
            90 3 68 8 76 vhcurveto
            return
          </CharString>
          <CharString index="409">
            35 -1 46 3 33 15 rrcurveto
            endchar
          </CharString>
          <CharString index="410">
            35 -1 46 3 32 15 rrcurveto
            endchar
          </CharString>
          <CharString index="411">
            hvcurveto
            -5 -9 -3 return
          </CharString>
          <CharString index="412">
            -40 callgsubr
            18 158 callgsubr
            17 return
          </CharString>
          <CharString index="413">
            24 680 90 hstem
            90 124 173 154 vstem
            return
          </CharString>
          <CharString index="414">
            6 5 0 6 hhcurveto
            10 -31 6 -44 -29 vvcurveto
            -17 -2 return
          </CharString>
          <CharString index="415">
            4 14 4 20 -21 callsubr
            19 158 callgsubr
            return
          </CharString>
          <CharString index="416">
            1 -50 13 -42 30 -48 93 -26 78 -66 56 -119 return
          </CharString>
          <CharString index="417">
            vvcurveto
            58 -20 -34 36 -36 hhcurveto
            -30 -25 -26 -42 -11 hvcurveto
            return
          </CharString>
          <CharString index="418">
            -38 9 -43 10 -20 9 -10 53 rlinecurve
            -14 -4 -22 -8 return
          </CharString>
          <CharString index="419">
            -48 vvcurveto
            -198 9 -170 23 -229 vhcurveto
            37 -7 return
          </CharString>
          <CharString index="420">
            -25 30 36 -22 hvcurveto
            -20 -12 -30 -20 -21 -27 rrcurveto
            -57 return
          </CharString>
          <CharString index="421">
            -95 -31 -111 -64 -46 -39 2 -43 8 -36 26 -37 return
          </CharString>
          <CharString index="422">
            -193 98 95 108 -99 100 return
          </CharString>
          <CharString index="423">
            89 339 85 hstemhm
            70 147 return
          </CharString>
          <CharString index="424">
            -42 155 callgsubr
            return
          </CharString>
          <CharString index="425">
            hstemhm
            0 316 -259 117 return
          </CharString>
          <CharString index="426">
            rrcurveto
            5 14 3 21 -21 callsubr
            return
          </CharString>
          <CharString index="427">
            -10 -9 -1 -2 -8 return
          </CharString>
          <CharString index="428">
            16 -25 -25 -19 -18 return
          </CharString>
          <CharString index="429">
            29 4 31 32 vvcurveto
            return
          </CharString>
          <CharString index="430">
            -20 290 callsubr
            return
          </CharString>
          <CharString index="431">
            64 199 112 return
          </CharString>
          <CharString index="432">
            18 12 flex1
            return
          </CharString>
          <CharString index="433">
            99 -75 98 hstemhm
            return
          </CharString>
          <CharString index="434">
            112 119 callsubr
            return
          </CharString>
          <CharString index="435">
            -80 rmoveto
            123 255 84 262 38 300 return
          </CharString>
          <CharString index="436">
            15 3 289 callsubr
            -2 16 13 flex1
            return
          </CharString>
          <CharString index="437">
            -91 -10 93 hstem
            234 callgsubr
            vstem
            return
          </CharString>
          <CharString index="438">
            6 61 4 65 rrcurveto
            -43 35 55 -35 63 hhcurveto
            71 return
          </CharString>
          <CharString index="439">
            50 37 67 37 46 17 -2 -30 -2 -30 -1 -30 return
          </CharString>
          <CharString index="440">
            368 -233 rmoveto
            -11 66 2 98 13 102 rrcurveto
            return
          </CharString>
          <CharString index="441">
            -171 29 114 -224 212 hhcurveto
            endchar
          </CharString>
          <CharString index="442">
            71 35 -30 -33 17 hvcurveto
            endchar
          </CharString>
          <CharString index="443">
            33 40 5 11 31 hvcurveto
            return
          </CharString>
          <CharString index="444">
            87 366 callgsubr
            return
          </CharString>
          <CharString index="445">
            14 24 21 24 13 39 return
          </CharString>
          <CharString index="446">
            hstemhm
            18 102 -82 142 return
          </CharString>
          <CharString index="447">
            13 21 10 39 28 vvcurveto
            return
          </CharString>
          <CharString index="448">
            41 -15 35 -25 32 hvcurveto
            return
          </CharString>
          <CharString index="449" raw="1">
            f8001d6a 0b  
          </CharString>
          <CharString index="450">
            -85 callsubr
            562 return
          </CharString>
          <CharString index="451">
            119 126 return
          </CharString>
          <CharString index="452">
            14 24 32 hvcurveto
            return
          </CharString>
          <CharString index="453">
            -102 44 -96 113 160 51 160 104 return
          </CharString>
          <CharString index="454">
            17 4 20 18 vvcurveto
            1 13 -1 14 -2 13 return
          </CharString>
          <CharString index="455">
            93 rlinecurve
            -23 -6 -33 -12 -30 -21 23 -145 return
          </CharString>
          <CharString index="456">
            6 10 189 callgsubr
            59 68 vvcurveto
            31 return
          </CharString>
          <CharString index="457">
            -81 -89 -68 -1 -54 rcurveline
            86 -67 153 -82 return
          </CharString>
          <CharString index="458">
            16 -21 -26 4 hvcurveto
            -1 -32 0 -33 -37 vvcurveto
            return
          </CharString>
          <CharString index="459">
            -36 39 54 -22 56 hhcurveto
            -2 -50 -1 -54 -49 return
          </CharString>
          <CharString index="460">
            321 callsubr
            -25 -24 19 -19 25 25 return
          </CharString>
          <CharString index="461">
            136 69 87 102 60 -25 56 -38 42 hvcurveto
            return
          </CharString>
          <CharString index="462">
            -5 -37 4 -32 19 -31 37 -5 38 -12 37 return
          </CharString>
          <CharString index="463">
            -29 rmoveto
            48 50 4 6 29 hvcurveto
            -12 58 -8 return
          </CharString>
          <CharString index="464">
            hvcurveto
            9 -19 -27 6 -29 hhcurveto
            return
          </CharString>
          <CharString index="465">
            rlineto
            31 48 50 18 37 hhcurveto
            return
          </CharString>
          <CharString index="466">
            19 -14 12 rrcurveto
            -29 -18 -18 return
          </CharString>
          <CharString index="467">
            5 379 callgsubr
            -62 85 return
          </CharString>
          <CharString index="468">
            rrcurveto
            -46 14 -40 27 -44 vhcurveto
            return
          </CharString>
          <CharString index="469">
            33 150 142 151 return
          </CharString>
          <CharString index="470">
            hhcurveto
            -77 -59 -55 -77 return
          </CharString>
          <CharString index="471">
            7 87 112 66 return
          </CharString>
          <CharString index="472">
            11 -38 -34 18 hvcurveto
            return
          </CharString>
          <CharString index="473">
            7 23 8 18 return
          </CharString>
          <CharString index="474">
            vvcurveto
            -62 5 -57 return
          </CharString>
          <CharString index="475">
            112 139 return
          </CharString>
          <CharString index="476">
            6 -16 vhcurveto
            -10 23 44 -8 35 hhcurveto
            -11 return
          </CharString>
          <CharString index="477">
            63 118 70 41 108 -81 106 hstemhm
            return
          </CharString>
          <CharString index="478">
            284 callsubr
            34 43 53 return
          </CharString>
          <CharString index="479">
            19 23 8 232 callgsubr
            return
          </CharString>
          <CharString index="480">
            53 -32 -39 29 -43 363 callsubr
            return
          </CharString>
          <CharString index="481">
            rmoveto
            44 49 3 8 34 hvcurveto
            -17 58 -11 return
          </CharString>
          <CharString index="482">
            16 114 hhcurveto
            16 16 0 -1 16 hvcurveto
            return
          </CharString>
          <CharString index="483">
            40 41 6 10 26 hvcurveto
            -26 60 -9 59 return
          </CharString>
          <CharString index="484">
            4 63 57 vvcurveto
            12 0 13 -1 13 vhcurveto
            return
          </CharString>
          <CharString index="485">
            -2 hvcurveto
            -12 30 36 -6 34 hhcurveto
            endchar
          </CharString>
          <CharString index="486">
            6 10 4 13 return
          </CharString>
          <CharString index="487">
            44 7 61 vhcurveto
            return
          </CharString>
          <CharString index="488">
            1 rrcurveto
            -18 -39 return
          </CharString>
        <CharString name=".notdef">
          -582 endchar
        </CharString>
        <CharString name=".null">
          -582 endchar
        </CharString>
        <CharString name="A">
          367 callgsubr
          hstem
          2 638 vstem
          491 -112 -104 callsubr
        </CharString>
        <CharString name="AE">
          292 -43 116 91 104 51 119 171 124 hstemhm
          376 157 -136 140 hintmask 11111000
          431 -43 rmoveto
          135 1 202 16 72 14 rrcurveto
          34 -5 58 -9 25 vhcurveto
          hintmask 11110100
          -75 -16 -132 -15 -64 -1 -9 76 -6 78 -3 72 75 11 72 6 87 3 1 47 -4 36 -9 36 rrcurveto
          hintmask 11111000
          -82 -3 -70 -12 -74 -18 -1 71 1 65 2 55 rrcurveto
          9 87 89 4 91 hhcurveto
          7 34 7 44 -1 46 -159 -1 -121 -19 -139 -26 rrcurveto
          10 -43 -43 8 -42 hhcurveto
          -69 -255 -66 -186 -130 -227 26 -31 44 -25 53 -10 28 53 31 60 30 66 62 9 64 4 66 1 7 -72 8 -70 9 -65 rrcurveto
          -170 299 rmoveto
          42 100 40 109 33 113 4 -96 8 -107 9 -107 -46 -2 -45 -4 -45 -6 rrcurveto
          endchar
        </CharString>
        <CharString name="Aacute">
          367 callgsubr
          471 -4 callsubr
          2 638 hintmask 11010000
          370 749 rmoveto
          hintmask 10110000
          -101 callsubr
          hintmask 11010000
          -100 callgsubr
          121 -861 81 callgsubr
          hintmask 10110000
          30 58 27 63 25 65 rrcurveto
          10 74 80 4 80 hhcurveto
          hintmask 11010000
          21 -89 16 -95 13 -101 rrcurveto
          hintmask 10110000
          -247 376 rmoveto
          30 88 26 92 22 90 36 -81 30 -85 26 -90 -58 -2 -56 -5 -56 -7 rrcurveto
          endchar
        </CharString>
        <CharString name="Abreve">
          367 callgsubr
          486 72 hstem
          201 67 115 68 vstem
          201 894 -81 callsubr
          290 -1006 -104 callsubr
        </CharString>
        <CharString name="Acircumflex">
          367 callgsubr
          hstem
          2 638 vstem
          403 741 -103 callsubr
          88 -853 -104 callsubr
        </CharString>
        <CharString name="Adieresis">
          367 callgsubr
          474 146 hstem
          2 638 vstem
          524 882 -107 callsubr
          171 -994 -104 callsubr
        </CharString>
        <CharString name="Agrave">
          367 callgsubr
          472 177 hstem
          215 123 vstem
          372 761 -90 callgsubr
          119 -873 -104 callsubr
        </CharString>
        <CharString name="Amacron">
          367 callgsubr
          496 85 hstem
          213 225 vstem
          213 790 -90 callsubr
          278 -902 -104 callsubr
        </CharString>
        <CharString name="Aogonek">
          67 -294 68 399 105 hstem
          434 90 vstem
          529 -294 rmoveto
          52 36 23 36 27 hvcurveto
          255 callsubr
          -12 -21 hhcurveto
          -20 -10 13 22 32 17 34 36 31 hvcurveto
          23 7 21 10 19 12 -46 294 -75 244 -126 219 -44 10 -36 5 -57 1 -65 -252 -62 -187 -127 -231 26 -31 45 -25 52 -9 30 58 27 63 25 65 rrcurveto
          10 74 80 4 80 hhcurveto
          21 -89 16 -94 13 -101 rrcurveto
          -37 -31 -20 -34 -41 vvcurveto
          -47 38 -30 57 vhcurveto
          -285 558 rmoveto
          30 88 26 92 22 90 36 -81 30 -85 26 -90 -58 -2 -56 -5 -56 -7 rrcurveto
          endchar
        </CharString>
        <CharString name="Aring">
          367 callgsubr
          465 45 107 42 hstem
          230 74 58 76 vstem
          348 937 -35 callgsubr
          155 -1007 -104 callsubr
        </CharString>
        <CharString name="Atilde">
          367 callgsubr
          469 79 -47 79 hstemhm
          2 638 -445 58 142 59 hintmask 11000100
          367 826 rmoveto
          hintmask 10101000
          -53 callsubr
          hintmask 11000100
          -53 callgsubr
          124 -938 81 callgsubr
          hintmask 11010000
          30 58 27 63 25 65 rrcurveto
          10 74 80 4 80 hhcurveto
          hintmask 11000100
          21 -89 16 -95 13 -101 rrcurveto
          hintmask 11010000
          -247 376 rmoveto
          30 88 26 92 22 90 36 -81 30 -85 26 -90 -58 -2 -56 -5 -56 -7 rrcurveto
          endchar
        </CharString>
        <CharString name="B">
          32 -20 93 579 89 hstemhm
          76 146 166 148 -102 152 hintmask 11101000
          270 -20 rmoveto
          177 139 124 159 72 -47 61 -98 23 hvcurveto
          hintmask 11110000
          72 43 23 58 57 vvcurveto
          101 -81 63 -162 -75 -75 -18 -32 -66 vhcurveto
          -1 -56 0 -49 -48 vvcurveto
          -167 6 -148 15 -193 vhcurveto
          hintmask 11101000
          -30 50 62 -20 61 hhcurveto
          5 672 rmoveto
          hintmask 11110000
          78 35 -37 -58 -73 -44 -51 -122 -16 hvcurveto
          2 74 3 77 7 79 rrcurveto
          hintmask 11101000
          3 15 15 2 11 hhcurveto
          9 -579 rmoveto
          -22 -20 6 10 -19 hvcurveto
          -2 46 -1 47 54 26 0 27 28 vvcurveto
          10 29 36 8 31 hhcurveto
          89 29 -45 -58 -79 -65 -80 -85 hvcurveto
          endchar
        </CharString>
        <CharString name="C">
          211 callgsubr
          548 208 5 callsubr
        </CharString>
        <CharString name="CR">
          -582 endchar
        </CharString>
        <CharString name="Cacute">
          6 -35 98 535 95 58 166 0 13 291 callsubr
          393 751 rmoveto
          hintmask 11011000
          -101 callsubr
          hintmask 11101000
          -100 callgsubr
          hintmask 11011010
          155 -543 rmoveto
          16 callsubr
          hintmask 11011100
          -9 callsubr
          -209 105 -95 144 hvcurveto
          hintmask 11011010
          164 86 93 150 10 hvcurveto
          endchar
        </CharString>
        <CharString name="Ccaron">
          211 callgsubr
          365 743 -106 callsubr
          183 -535 5 callsubr
        </CharString>
        <CharString name="Ccedilla">
          6 -251 56 72 54 35 97 535 95 hstemhm
          39 164 134 90 -13 142 -125 117 hintmask 11111100
          301 -251 rmoveto
          247 callgsubr
          320 callsubr
          326 callgsubr
          13 2 11 rrcurveto
          hintmask 11111001
          142 12 75 91 9 139 16 callsubr
          hintmask 11111010
          -9 callsubr
          -199 95 -96 134 -8 hvcurveto
          hintmask 11111100
          -5 -26 -9 -27 -13 -21 -69 callsubr
          178 callgsubr
        </CharString>
        <CharString name="D">
          314 callgsubr
          206 -10 -11 callsubr
        </CharString>
        <CharString name="Dcaron">
          314 callgsubr
          281 752 -106 callsubr
          -75 -762 -11 callsubr
        </CharString>
        <CharString name="Dcroat">
          -70 callgsubr
        </CharString>
        <CharString name="E">
          -10 -42 294 callsubr
          vstem
          129 -42 -105 callsubr
        </CharString>
        <CharString name="Eacute">
          89 callgsubr
          19 -4 callsubr
          61 170 hintmask 11101000
          294 754 rmoveto
          hintmask 11011000
          -101 callsubr
          hintmask 11101000
          -100 callgsubr
          hintmask 11011000
          -165 -796 -105 callsubr
        </CharString>
        <CharString name="Ecaron">
          89 callgsubr
          hstem
          61 170 vstem
          290 759 -106 callsubr
          -161 -801 -105 callsubr
        </CharString>
        <CharString name="Ecircumflex">
          89 callgsubr
          hstem
          61 170 vstem
          355 755 -103 callsubr
          -226 -797 -105 callsubr
        </CharString>
        <CharString name="Edieresis">
          89 callgsubr
          38 146 hstem
          61 170 vstem
          482 903 -107 callsubr
          -149 -945 -105 callsubr
        </CharString>
        <CharString name="Edotaccent">
          89 callgsubr
          40 146 hstem
          61 170 vstem
          381 905 -105 callgsubr
          -252 -947 -105 callsubr
        </CharString>
        <CharString name="Egrave">
          89 callgsubr
          18 177 hstemhm
          61 170 -50 123 hintmask 11101000
          338 764 -90 callgsubr
          hintmask 11010000
          -209 -806 -105 callsubr
        </CharString>
        <CharString name="Emacron">
          89 callgsubr
          48 85 hstemhm
          61 170 -61 225 hintmask 00101000
          170 799 -90 callsubr
          hintmask 11110000
          -41 -841 -105 callsubr
        </CharString>
        <CharString name="Eogonek">
          -10 -220 68 110 294 callsubr
          152 91 vstem
          477 -220 rmoveto
          51 39 23 36 26 hvcurveto
          -7 19 -11 20 -14 11 rrcurveto
          -29 -18 -18 -12 -21 hhcurveto
          -20 -10 14 21 35 21 38 43 33 hvcurveto
          1 35 -6 57 -8 25 -76 -15 -131 -15 -64 -2 -10 76 -5 79 -4 72 76 11 72 5 87 3 rrcurveto
          47 -3 36 -9 36 vhcurveto
          -82 -3 -71 -11 -74 -18 -1 71 1 64 3 56 86 8 89 4 91 1 rrcurveto
          7 33 7 44 47 vvcurveto
          -169 -2 -134 -20 -150 -28 3 -203 33 -314 32 -210 100 1 137 9 94 10 rrcurveto
          -50 -35 -27 -37 -46 vvcurveto
          -50 36 -30 58 vhcurveto
          endchar
        </CharString>
        <CharString name="Eth">
          -70 callgsubr
        </CharString>
        <CharString name="Euro">
          -7 -40 97 103 101 -91 87 50 101 166 94 hstemhm
          10 365 -358 368 -287 162 157 138 hintmask 1101100110000000
          322 -40 rmoveto
          111 68 61 127 51 hvcurveto
          -22 32 -36 26 -41 6 rrcurveto
          -100 -13 -33 -55 -52 hhcurveto
          hintmask 1011101010000000
          -45 -27 47 66 -14 hvcurveto
          34 4 35 6 40 7 8 21 0 43 -4 21 rrcurveto
          hintmask 1011100110000000
          -45 -7 -39 -5 -38 -3 rrcurveto
          7 0 7 7 vvcurveto
          13 0 12 1 12 vhcurveto
          hintmask 1101110010000000
          34 3 38 5 42 7 8 22 -1 43 -3 20 -40 -5 -36 -4 -34 -2 rrcurveto
          107 16 36 63 39 hhcurveto
          39 23 -39 -113 -5 hvcurveto
          67 29 9 18 42 hvcurveto
          145 -3 -61 74 -104 hhcurveto
          -137 -99 -110 -157 -37 hvcurveto
          -33 2 -34 2 -37 3 -5 -27 5 -47 4 -21 rrcurveto
          hintmask 1101100110000000
          28 -3 28 -2 30 -1 rrcurveto
          -1 -15 -1 -15 -16 vvcurveto
          -6 vlineto
          hintmask 1101101010000000
          -26 2 -27 2 -28 2 -5 -27 4 -47 4 -21 rrcurveto
          -3 29 28 -3 30 hhcurveto
          hintmask 1101100110000000
          -136 26 83 -64 106 hhcurveto
          endchar
        </CharString>
        <CharString name="F">
          -43 -82 856 -460 121 hstemhm
          109 146 hintmask 10100000
          248 -68 rmoveto
          hintmask 01100000
          6 112 2 114 -1 142 66 8 68 5 67 1 rrcurveto
          48 -3 36 -9 37 vhcurveto
          -66 -1 -63 -9 -62 -13 -2 72 -4 69 -5 63 89 7 82 10 91 12 4 17 4 23 -1 25 rrcurveto
          24 -3 21 -6 19 vhcurveto
          -160 -26 -115 -20 -171 -11 38 -230 17 -335 -2 -234 rrcurveto
          hintmask 10100000
          58 -1 42 6 39 9 rrcurveto
          endchar
        </CharString>
        <CharString name="G">
          29 -21 118 532 95 hstemhm
          39 158 198 152 -146 152 hintmask 11101000
          599 -17 -2 callgsubr
          hintmask 11110000
          0 callsubr
          hintmask 11101000
          184 callgsubr
          endchar
        </CharString>
        <CharString name="Gbreve">
          29 -21 118 532 95 42 72 hstemhm
          39 158 3 67 115 68 -55 152 -146 152 hintmask 11101100
          200 896 -81 callsubr
          hintmask 11110001
          399 -913 -2 callgsubr
          hintmask 11110010
          0 callsubr
          hintmask 11110001
          184 callgsubr
          endchar
        </CharString>
        <CharString name="H">
          70 302 127 hstem
          55 162 227 149 vstem
          593 -58 rmoveto
          203 -7 335 -12 239 vhcurveto
          12 -19 -29 11 -34 hhcurveto
          -25 -19 -4 -6 -25 hvcurveto
          7 -71 4 -112 4 -120 -77 -2 -72 -7 -72 -13 1 117 4 111 6 69 rrcurveto
          7 -25 -23 3 -26 hhcurveto
          -42 -36 -11 -13 -21 hvcurveto
          -211 16 -266 15 -208 vhcurveto
          44 -1 61 7 27 8 -2 72 -1 100 1 104 74 9 76 4 74 1 rrcurveto
          3 -135 1 -132 -85 vvcurveto
          -8 29 70 -7 50 hhcurveto
          endchar
        </CharString>
        <CharString name="I">
          -290 -30 715 hstem
          84 141 vstem
          209 -15 rmoveto
          -94 callsubr
        </CharString>
        <CharString name="Iacute">
          -290 746 -4 callsubr
          84 141 hintmask 10100000
          171 746 rmoveto
          hintmask 01100000
          -101 callsubr
          hintmask 10100000
          -100 callgsubr
          hintmask 01100000
          38 -761 rmoveto
          -94 callsubr
        </CharString>
        <CharString name="Icircumflex">
          -290 -30 942 hstem
          84 141 vstem
          209 741 -103 callsubr
          -756 vmoveto
          -94 callsubr
        </CharString>
        <CharString name="Idieresis">
          -290 766 146 hstem
          84 141 vstem
          332 896 -107 callsubr
          81 -911 rmoveto
          -94 callsubr
        </CharString>
        <CharString name="Idotaccent">
          -290 768 146 hstem
          84 141 vstem
          232 898 -105 callgsubr
          -23 -913 rmoveto
          -94 callsubr
        </CharString>
        <CharString name="Igrave">
          -290 -30 950 -179 177 hstemhm
          30 123 -69 141 hintmask 01100000
          187 752 -90 callgsubr
          hintmask 10010000
          22 -767 rmoveto
          -94 callsubr
        </CharString>
        <CharString name="Imacron">
          -290 779 85 hstemhm
          28 225 -169 141 hintmask 11000000
          28 795 -90 callsubr
          hintmask 10100000
          181 -810 rmoveto
          -94 callsubr
        </CharString>
        <CharString name="Iogonek">
          -290 -228 68 hstemhm
          35 90 -41 141 hintmask 11000000
          131 -228 rmoveto
          52 36 23 36 26 hvcurveto
          hintmask 10100000
          -8 19 -10 20 -15 11 281 callsubr
          -19 -11 14 21 35 22 37 42 33 hvcurveto
          8 2 6 1 6 2 rrcurveto
          11 175 5 186 164 vvcurveto
          62 -1 54 -3 51 vhcurveto
          6 -25 -19 2 -26 hhcurveto
          -41 -32 -11 -14 -22 hvcurveto
          23 -218 6 -248 -1 -224 rrcurveto
          hintmask 11000000
          9 9 0 1 10 hvcurveto
          -50 -36 -27 -38 -48 vvcurveto
          -47 39 -30 57 vhcurveto
          endchar
        </CharString>
        <CharString name="J">
          -79 -88 100 hstem
          286 155 vstem
          217 -88 rmoveto
          93 72 65 136 29 hvcurveto
          23 106 7 100 159 vvcurveto
          83 -4 84 -7 72 vhcurveto
          -25 6 -23 2 -26 -1 -42 -1 -37 -11 -22 -14 rrcurveto
          22 -178 9 -178 -120 vvcurveto
          -165 -30 -45 -42 -43 -18 47 128 -18 vhcurveto
          -43 -6 -39 -14 -34 -28 rrcurveto
          -130 15 79 -97 104 hhcurveto
          endchar
        </CharString>
        <CharString name="K">
          33 -106 810 hstem
          59 151 -28 callgsubr
          endchar
        </CharString>
        <CharString name="L">
          -71 -72 116 hstem
          65 159 vstem
          510 -72 -46 callgsubr
        </CharString>
        <CharString name="Lacute">
          -71 -72 116 691 -4 callsubr
          65 159 hintmask 11010000
          187 735 rmoveto
          hintmask 10110000
          -101 callsubr
          hintmask 11010000
          -100 callgsubr
          hintmask 10110000
          323 -807 -46 callgsubr
        </CharString>
        <CharString name="Lcaron">
          -71 -72 116 hstem
          65 159 106 129 vstem
          403 440 -24 callgsubr
          107 -512 -46 callgsubr
        </CharString>
        <CharString name="Lslash">
          -77 -72 116 hstemhm
          80 141 -131 134 hintmask 10100000
          118 -102 rmoveto
          136 19 103 10 150 1 rrcurveto
          36 -9 55 -8 25 vhcurveto
          -76 -92 -10 -19 -80 hvcurveto
          -10 66 -5 68 -3 67 72 49 71 50 71 54 -13 36 -21 35 -24 20 rrcurveto
          hintmask 11000000
          -54 -42 -52 -39 -53 -38 rrcurveto
          10 0 11 10 vvcurveto
          116 4 108 10 76 vhcurveto
          2 -13 -15 1 -13 hhcurveto
          -49 -43 -7 -12 -39 hvcurveto
          -2 -121 7 -148 12 -144 -43 -29 -44 -28 -45 -27 rrcurveto
          hintmask 10100000
          13 -37 14 -22 26 -25 30 18 30 18 29 18 8 -84 10 -79 10 -68 rrcurveto
          endchar
        </CharString>
        <CharString name="M">
          215 -53 815 hstem
          64 134 413 125 vstem
          589 -53 rmoveto
          70 41 11 16 44 hvcurveto
          2 211 1 314 -11 226 -39 19 -43 11 -40 6 -75 -114 -65 -124 -54 -138 -55 144 -81 130 -75 103 -49 -8 -54 -23 -42 -27 -3 -215 18 -301 29 -192 rrcurveto
          47 63 6 9 29 hvcurveto
          -32 139 -17 171 155 14 0 13 14 vvcurveto
          64 -102 52 -107 45 -117 29 -5 37 0 27 9 45 127 52 110 62 105 -2 -202 -7 -211 -13 -177 rrcurveto
          endchar
        </CharString>
        <CharString name="N">
          95 -43 803 hstem
          63 153 255 142 vstem
          223 -28 -101 callgsubr
          endchar
        </CharString>
        <CharString name="Nacute">
          95 746 -4 callsubr
          63 153 255 142 hintmask 10110000
          372 746 rmoveto
          hintmask 01110000
          -101 callsubr
          hintmask 10110000
          -100 callgsubr
          hintmask 01110000
          -149 -774 -101 callgsubr
          endchar
        </CharString>
        <CharString name="Ncaron">
          95 -43 962 hstem
          63 153 255 142 vstem
          338 746 -106 callsubr
          -115 -774 -101 callgsubr
          endchar
        </CharString>
        <CharString name="Ntilde">
          95 786 79 -47 79 hstemhm
          63 153 -16 58 142 59 12 142 hintmask 10101100
          372 865 rmoveto
          hintmask 01010100
          -53 callsubr
          hintmask 10101100
          -53 callgsubr
          hintmask 10100100
          -149 -893 -101 callgsubr
          endchar
        </CharString>
        <CharString name="O">
          180 callgsubr
          hstem
          229 callsubr
          vstem
          591 416 -99 callgsubr
        </CharString>
        <CharString name="OE">
          340 -29 116 -105 100 238 119 169 124 -99 101 hstemhm
          36 154 232 160 hintmask 10110110
          480 -29 rmoveto
          135 1 202 16 72 13 1 36 -6 57 -8 25 -76 -15 -131 -15 -64 -2 -10 76 -5 70 -4 68 76 11 72 5 87 3 rrcurveto
          47 -3 36 -9 36 vhcurveto
          -82 -3 -71 -11 -74 -18 -1 70 1 64 3 54 rrcurveto
          9 86 89 4 91 hhcurveto
          7 33 7 45 46 vvcurveto
          -146 -1 -119 -16 -126 -22 rrcurveto
          hintmask 01101110
          27 -36 -44 14 -52 hhcurveto
          -191 -115 -173 -230 -187 77 -162 167 81 61 32 50 45 hvcurveto
          hintmask 10110110
          4 -32 5 -32 4 -29 rrcurveto
          hintmask 01101110
          -58 407 rmoveto
          -145 1 -22 -151 -92 hhcurveto
          -90 -29 148 122 168 41 113 80 76 34 -79 -176 1 hvcurveto
          endchar
        </CharString>
        <CharString name="Oacute">
          180 callgsubr
          23 -4 callsubr
          229 callsubr
          hintmask 11101100
          332 756 112 callgsubr
          hintmask 11011100
          259 -340 -99 callgsubr
        </CharString>
        <CharString name="Ocircumflex">
          180 callgsubr
          hstem
          229 callsubr
          vstem
          392 754 -103 callsubr
          199 -338 -99 callgsubr
        </CharString>
        <CharString name="Odieresis">
          180 callgsubr
          45 146 hstem
          229 callsubr
          vstem
          511 908 -107 callsubr
          284 -492 -99 callgsubr
        </CharString>
        <CharString name="Ograve">
          180 callgsubr
          26 177 hstemhm
          33 154 44 123 80 157 vstemhm
          388 770 -90 callgsubr
          203 -354 rmoveto
          hintmask 11010100
          205 -87 112 -154 -193 -124 -173 -231 -186 76 -163 168 vhcurveto
          hintmask 11111100
          240 74 271 165 hvcurveto
          hintmask 11010100
          -157 -39 rmoveto
          -133 -26 -164 -103 -90 -28 148 123 168 51 112 82 78 36 -71 -183 vhcurveto
          endchar
        </CharString>
        <CharString name="Ohungarumlaut">
          180 callgsubr
          23 -4 callsubr
          229 callsubr
          hintmask 11101100
          447 756 21 callgsubr
          310 -340 -99 callgsubr
        </CharString>
        <CharString name="Omacron">
          180 callgsubr
          62 85 hstemhm
          33 154 21 225 1 157 hintmask 11111000
          208 811 -90 callsubr
          hintmask 11110100
          383 -395 -99 callgsubr
        </CharString>
        <CharString name="Oslash">
          41 -20 100 551 102 hstem
          33 155 244 156 vstem
          188 351 rmoveto
          168 49 112 80 29 24 -10 -21 18 vhcurveto
          -64 -129 -62 -120 -65 -116 rrcurveto
          -6 38 -3 40 38 vvcurveto
          115 -271 rmoveto
          -24 -19 11 18 -16 hvcurveto
          66 114 61 110 59 113 rrcurveto
          1 -21 1 -23 -25 vvcurveto
          -133 -26 -164 -103 vhcurveto
          -29 -100 rmoveto
          240 74 271 165 98 -20 77 -37 53 hvcurveto
          14 30 15 30 14 30 -26 27 -37 22 -31 9 -12 -26 -12 -26 -12 -25 rrcurveto
          12 -29 -31 6 -36 hhcurveto
          -191 -124 -173 -231 -100 22 -94 46 -65 hvcurveto
          -20 -34 -20 -33 -21 -34 28 -28 24 -12 40 -13 17 29 16 28 16 27 rrcurveto
          -13 27 31 -7 35 hhcurveto
          endchar
        </CharString>
        <CharString name="Otilde">
          180 callgsubr
          55 79 -47 79 hstemhm
          33 154 5 58 142 59 -17 157 hintmask 11101010
          364 867 rmoveto
          hintmask 11010101
          -53 callsubr
          hintmask 11101010
          -53 callgsubr
          hintmask 11101001
          227 -451 -99 callgsubr
        </CharString>
        <CharString name="P">
          17 653 89 hstem
          63 149 194 155 vstem
          225 -68 rmoveto
          -7 103 -4 88 -2 96 rrcurveto
          221 64 128 116 148 vvcurveto
          113 -81 82 -174 -81 -88 -18 -28 -67 vhcurveto
          -4 -49 -3 -61 312 callsubr
          54 -3 39 1 rrcurveto
          56 721 rmoveto
          94 31 -63 -69 -105 -70 -65 -124 -31 hvcurveto
          2 107 5 107 10 113 rrcurveto
          4 17 17 2 18 hhcurveto
          endchar
        </CharString>
        <CharString name="Q">
          53 -40 100 511 102 hstem
          34 155 248 157 vstem
          533 -119 rmoveto
          39 25 33 30 13 36 -35 43 -35 38 -37 33 rrcurveto
          58 83 25 111 93 vvcurveto
          192 -84 108 -161 -179 -136 -164 -235 -175 78 -139 160 66 55 19 32 44 vhcurveto
          33 -39 31 -43 32 -48 rrcurveto
          -233 179 rmoveto
          -78 -33 115 121 164 53 111 87 70 38 -64 -174 -59 -8 -60 -17 -49 hvcurveto
          -21 14 -22 14 -23 14 -25 -13 -15 -21 -10 -19 25 -21 24 -22 22 -23 rrcurveto
          -18 -18 -22 -10 -27 hhcurveto
          endchar
        </CharString>
        <CharString name="R">
          306 callsubr
          466 -44 -85 callgsubr
          endchar
        </CharString>
        <CharString name="Racute">
          24 680 90 31 -4 callsubr
          90 124 173 154 hintmask 11011000
          306 801 rmoveto
          hintmask 10111000
          -101 callsubr
          hintmask 11011000
          -100 callgsubr
          160 -845 rmoveto
          57 16 48 27 30 29 -61 130 -62 106 -73 83 rrcurveto
          hintmask 10111000
          88 56 48 74 89 vvcurveto
          115 -77 89 -172 -75 -92 -26 -52 -66 vhcurveto
          21 -189 10 -149 -190 vvcurveto
          -58 -2 -47 -3 -57 vhcurveto
          37 -6 53 -3 39 1 9 93 5 94 3 92 21 6 20 7 20 7 rrcurveto
          hintmask 11011000
          70 -101 45 -99 59 -137 rrcurveto
          hintmask 10111000
          -234 438 rmoveto
          93 -4 87 -5 98 vhcurveto
          5 16 17 3 17 hhcurveto
          76 38 -52 -79 -96 -51 -57 -104 -29 hvcurveto
          9 0 9 9 vvcurveto
          endchar
        </CharString>
        <CharString name="Rcaron">
          306 callsubr
          295 806 -106 callsubr
          171 -850 -85 callgsubr
          endchar
        </CharString>
        <CharString name="S">
          -57 -40 149 callsubr
          117 152 hintmask 11011000
          489 177 rmoveto
          -83 callgsubr
          hintmask 11101000
          40 callgsubr
          hintmask 11011000
          285 callgsubr
          endchar
        </CharString>
        <CharString name="Sacute">
          -57 -40 93 616 98 27 166 0 13 285 callsubr
          117 152 hintmask 11100110
          328 794 rmoveto
          hintmask 11010110
          -101 callsubr
          hintmask 11100110
          -100 callgsubr
          hintmask 11010110
          161 -617 rmoveto
          -83 callgsubr
          hintmask 11011010
          40 callgsubr
          hintmask 11010110
          285 callgsubr
          endchar
        </CharString>
        <CharString name="Scaron">
          -57 -40 149 callsubr
          117 152 hintmask 11011000
          311 792 -106 callsubr
          178 -615 rmoveto
          -83 callgsubr
          hintmask 11101000
          40 callgsubr
          hintmask 11011000
          285 callgsubr
          endchar
        </CharString>
        <CharString name="T">
          348 callgsubr
          246 23 rmoveto
          60 1 41 6 37 10 -78 callsubr
          endchar
        </CharString>
        <CharString name="Tcaron">
          348 callgsubr
          292 813 -106 callsubr
          -46 -790 rmoveto
          60 1 41 6 37 10 -78 callsubr
          endchar
        </CharString>
        <CharString name="Thorn">
          12 505 89 99 14 hstem
          61 148 196 155 vstem
          222 -68 rmoveto
          -3 49 -3 46 -2 45 rrcurveto
          219 64 127 116 147 vvcurveto
          113 -81 82 -174 -28 -28 -2 -4 -28 vhcurveto
          2 35 3 35 4 35 -45 13 -60 5 -57 -8 rrcurveto
          -4 -49 -3 -68 312 callsubr
          52 -3 40 1 rrcurveto
          -13 336 rmoveto
          74 2 76 4 78 vhcurveto
          5 21 22 4 22 hhcurveto
          94 31 -63 -69 -105 -71 -66 -124 -31 hvcurveto
          -1 32 0 32 33 vvcurveto
          endchar
        </CharString>
        <CharString name="U">
          332 callgsubr
          539 394 -102 callsubr
        </CharString>
        <CharString name="Uacute">
          -2 -80 101 678 -4 callsubr
          228 callsubr
          hintmask 11011000
          291 699 rmoveto
          109 callsubr
          248 -305 -102 callsubr
        </CharString>
        <CharString name="Ucircumflex">
          332 callgsubr
          349 723 -103 callsubr
          190 -329 -102 callsubr
        </CharString>
        <CharString name="Udieresis">
          -2 -80 101 721 146 hstem
          228 callsubr
          vstem
          479 872 -107 callsubr
          264 -478 -102 callsubr
        </CharString>
        <CharString name="Ugrave">
          -2 -80 101 680 177 hstemhm
          43 161 -53 123 108 157 hintmask 11011000
          308 712 -90 callgsubr
          231 -318 rmoveto
          118 -22 110 -20 87 vhcurveto
          -46 -1 -68 -9 -45 -18 rrcurveto
          18 -73 26 -125 -145 vvcurveto
          -169 -29 -148 -71 vhcurveto
          hintmask 10101000
          -54 -24 100 179 105 13 114 21 104 hvcurveto
          6 -12 -21 5 -32 hhcurveto
          -28 -31 -5 -5 -18 hvcurveto
          -21 -49 -32 -156 -151 vvcurveto
          -207 59 -141 156 vhcurveto
          hintmask 11011000
          216 65 215 259 hvcurveto
          endchar
        </CharString>
        <CharString name="Uhungarumlaut">
          -2 -80 101 700 -4 callsubr
          228 callsubr
          hintmask 11011000
          380 721 20 callsubr
          325 -327 -102 callsubr
        </CharString>
        <CharString name="Umacron">
          -2 -80 101 691 85 hstemhm
          43 161 -57 225 10 157 hintmask 11011000
          147 728 -90 callsubr
          hintmask 11101000
          392 -334 -102 callsubr
        </CharString>
        <CharString name="Uogonek">
          -2 -284 66 138 101 hstemhm
          43 161 -26 90 114 157 hintmask 11011000
          275 -284 rmoveto
          49 38 21 37 26 hvcurveto
          -8 19 -10 359 callsubr
          -13 -21 hhcurveto
          -19 -12 15 24 38 34 48 59 30 hvcurveto
          127 63 51 154 240 vvcurveto
          118 -22 110 -20 87 vhcurveto
          -46 -1 -68 -9 -45 -18 rrcurveto
          18 -73 26 -125 -145 vvcurveto
          -169 -29 -148 -71 vhcurveto
          hintmask 11101000
          -54 -24 100 179 105 13 114 21 104 hvcurveto
          6 -12 -21 5 -32 hhcurveto
          -28 -31 -5 -5 -18 hvcurveto
          -21 -49 -32 -156 -151 vvcurveto
          -204 57 -140 151 -4 vhcurveto
          hintmask 11011000
          -48 -38 -25 -42 -40 vvcurveto
          -55 40 -29 57 vhcurveto
          endchar
        </CharString>
        <CharString name="Uring">
          -2 -80 101 679 45 107 42 hstemhm
          43 161 -40 74 58 76 10 157 hintmask 11101110
          282 894 -35 callgsubr
          hintmask 11110010
          269 -458 -102 callsubr
        </CharString>
        <CharString name="V">
          14 -96 861 hstem
          9 574 vstem
          338 328 callsubr
          -43 17 -47 9 -47 2 -28 -252 -45 -232 -80 -212 -61 170 -40 211 -23 187 -60 -2 -54 -11 -46 -21 43 -250 71 -234 89 -215 rrcurveto
          47 47 4 12 32 hvcurveto
          endchar
        </CharString>
        <CharString name="W">
          270 -74 784 hstem
          3 855 vstem
          305 -55 rmoveto
          55 137 37 130 31 142 13 -125 33 -123 35 -143 41 3 36 4 32 6 120 219 79 234 41 232 -34 26 -45 19 -58 4 -20 -185 -40 -173 -70 -194 -33 149 -17 126 -15 141 rrcurveto
          -47 -63 -8 -11 -49 hvcurveto
          -21 -139 -27 -127 -52 -165 -52 203 -32 172 -14 173 -60 -2 -53 -10 -53 -16 38 -254 53 -204 90 -260 41 1 45 7 35 11 rrcurveto
          endchar
        </CharString>
        <CharString name="X">
          64 -44 826 hstem
          4 616 vstem
          495 -44 rmoveto
          38 19 44 26 25 27 -56 143 -55 121 -62 112 67 84 64 87 60 94 -25 35 -41 36 -39 19 -49 -90 -50 -78 -51 -75 -55 89 -60 86 -69 91 -51 -18 -53 -36 -39 -34 rrcurveto
          87 -95 73 -96 66 -106 -83 -112 -81 -92 -96 -111 17 -25 35 -34 27 -17 94 96 73 85 81 98 55 -99 53 -107 56 -123 rrcurveto
          endchar
        </CharString>
        <CharString name="Y">
          -39 -94 827 hstem
          3 523 vstem
          210 -94 -51 callgsubr
        </CharString>
        <CharString name="Yacute">
          -39 739 -4 callsubr
          3 523 hintmask 10100000
          298 739 rmoveto
          hintmask 01100000
          -101 callsubr
          hintmask 10100000
          -100 callgsubr
          -88 -833 -51 callgsubr
        </CharString>
        <CharString name="Ydieresis">
          -39 772 146 hstem
          3 523 vstem
          478 902 -107 callsubr
          -64 -996 -51 callgsubr
        </CharString>
        <CharString name="Z">
          6 -35 133 hstem
          15 556 vstem
          514 -35 -92 callsubr
        </CharString>
        <CharString name="Zacute">
          6 -35 133 650 -4 callsubr
          15 556 hintmask 11010000
          382 748 rmoveto
          hintmask 10110000
          -101 callsubr
          hintmask 11010000
          -100 callgsubr
          hintmask 10110000
          132 -783 -92 callsubr
        </CharString>
        <CharString name="Zcaron">
          6 -35 133 hstem
          15 556 vstem
          354 746 -106 callsubr
          160 -781 -92 callsubr
        </CharString>
        <CharString name="Zdotaccent">
          6 -35 133 666 146 hstem
          15 556 vstem
          454 894 -105 callgsubr
          60 -929 -92 callsubr
        </CharString>
        <CharString name="a">
          51 callgsubr
          hstem
          282 callsubr
          vstem
          405 -35 -106 callgsubr
        </CharString>
        <CharString name="aacute">
          51 callgsubr
          32 -4 callsubr
          282 callsubr
          hintmask 11110110
          314 584 rmoveto
          hintmask 11101110
          -101 callsubr
          hintmask 11110110
          -100 callgsubr
          hintmask 11101110
          91 -619 -106 callgsubr
        </CharString>
        <CharString name="abreve">
          51 callgsubr
          30 72 hstemhm
          25 150 -16 67 96 144 -125 68 hintmask 11110101
          159 712 -81 callsubr
          hintmask 11101010
          246 -747 -106 callgsubr
        </CharString>
        <CharString name="acircumflex">
          51 callgsubr
          hstem
          282 callsubr
          vstem
          365 579 -103 callsubr
          40 -614 -106 callgsubr
        </CharString>
        <CharString name="acute">
          -322 571 -4 callsubr
          49 157 hintmask 10100000
          137 571 rmoveto
          hintmask 01100000
          -101 callsubr
          hintmask 10100000
          -100 callgsubr
          endchar
        </CharString>
        <CharString name="adieresis">
          51 callgsubr
          39 146 hstem
          282 callsubr
          vstem
          485 721 -107 callsubr
          124 -756 -106 callgsubr
        </CharString>
        <CharString name="ae">
          200 -39 87 -66 74 142 67 -45 77 149 83 hstemhm
          25 150 142 143 145 133 hintmask 10011111
          554 297 rmoveto
          -20 -29 3 9 -31 hvcurveto
          76 18 34 62 41 hhcurveto
          30 8 -23 -35 -30 -7 -32 -7 -27 hvcurveto
          -1 -6 -20 -2 -11 hhcurveto
          191 -194 rmoveto
          -26 27 -44 23 -38 7 rrcurveto
          -50 -15 -44 -62 -40 hhcurveto
          -53 -25 63 82 13 1 13 1 13 hvcurveto
          -8 32 33 -4 30 hhcurveto
          62 55 5 18 41 hvcurveto
          13 36 10 54 46 vvcurveto
          87 -61 62 -93 -65 -58 -32 -49 -46 vhcurveto
          47 -25 -44 35 -73 hhcurveto
          -110 -91 -66 -73 -20 hvcurveto
          18 -43 42 -26 67 -2 rrcurveto
          78 2 36 49 42 hhcurveto
          44 17 -43 -88 2 hvcurveto
          hintmask 01101111
          -15 1 -17 -1 -20 vhcurveto
          1 -15 -20 1 -37 hhcurveto
          -159 -66 -55 -85 -87 65 -56 102 56 55 15 49 55 hvcurveto
          hintmask 10101111
          -51 34 53 -34 69 hhcurveto
          hintmask 10011111
          138 78 94 48 15 hvcurveto
          hintmask 01101111
          -510 -47 rmoveto
          -40 -20 23 37 48 35 35 107 -1 hvcurveto
          -5 0 0 0 vhcurveto
          -36 6 -34 12 -31 vhcurveto
          -23 -35 -36 -13 -29 hhcurveto
          endchar
        </CharString>
        <CharString name="agrave">
          51 callgsubr
          31 177 hstemhm
          25 150 9 123 15 144 vstemhm
          341 594 -90 callgsubr
          hintmask 11111010
          64 -629 -106 callgsubr
        </CharString>
        <CharString name="amacron">
          51 callgsubr
          45 85 hstemhm
          25 150 -7 225 -71 144 hintmask 11110100
          168 613 -90 callsubr
          hintmask 11111010
          237 -648 -106 callgsubr
        </CharString>
        <CharString name="ampersand">
          227 -67 103 347 7 254 78 hstemhm
          40 148 33 135 100 133 2 134 hintmask 11111010
          706 -69 rmoveto
          40 27 28 37 16 44 -45 17 -42 19 -38 20 28 48 19 57 8 67 4 33 2 33 -1 37 -49 24 -54 1 -44 -12 rrcurveto
          8 -35 5 -30 -39 vvcurveto
          -45 -10 -42 -18 -36 vhcurveto
          -94 67 -62 78 -30 93 rrcurveto
          hintmask 11111100
          125 24 87 63 105 vvcurveto
          78 -61 58 -98 -141 -68 -100 -126 -32 3 -30 5 -30 vhcurveto
          -121 -32 -68 -85 -104 vvcurveto
          -145 120 -105 189 87 74 21 39 58 vhcurveto
          hintmask 11111010
          44 -23 46 -21 48 -18 rrcurveto
          hintmask 11111100
          -350 597 rmoveto
          75 21 41 34 30 15 -27 -42 -54 -28 -49 -65 -24 vhcurveto
          -5 26 -2 26 28 vvcurveto
          25 -492 rmoveto
          -114 -79 74 110 55 22 39 36 26 hvcurveto
          38 -114 79 -95 104 -75 rrcurveto
          -13 -26 -29 -7 -31 hhcurveto
          endchar
        </CharString>
        <CharString name="aogonek">
          -72 -235 68 171 75 141 67 182 83 hstemhm
          25 150 8 90 49 144 hintmask 11111010
          238 79 rmoveto
          -39 -24 22 39 47 33 34 112 -1 hvcurveto
          -2 -39 -4 -38 -6 -44 rrcurveto
          -13 -21 -22 -7 -27 hhcurveto
          155 -254 rmoveto
          hintmask 11111110
          255 callsubr
          -13 -21 hhcurveto
          -19 -11 14 22 33 19 37 40 31 hvcurveto
          -3 25 25 -2 23 hhcurveto
          27 108 34 177 101 vvcurveto
          99 -38 102 -155 -120 -83 -72 -67 -18 vhcurveto
          18 -43 42 -26 67 -2 rrcurveto
          77 2 36 50 42 hhcurveto
          49 14 -60 -109 hvcurveto
          -5 0 -5 -5 vvcurveto
          1 -16 -20 1 -36 hhcurveto
          hintmask 11111010
          -158 -67 -52 -86 -88 68 -57 102 41 34 9 15 27 hvcurveto
          -3 -14 -2 -15 -3 -16 rrcurveto
          hintmask 11111110
          -69 -42 -37 -42 -56 vvcurveto
          -48 38 -30 58 vhcurveto
          hintmask 11111010
          51 37 23 37 26 hvcurveto
          endchar
        </CharString>
        <CharString name="approxequal">
          -142 171 89 -46 89 47 89 -46 89 hstemhm
          30 64 250 65 hintmask 10100100
          292 439 rmoveto
          hintmask 10011000
          52 callgsubr
          1 -179 rmoveto
          hintmask 01101000
          52 callgsubr
          endchar
        </CharString>
        <CharString name="aring">
          51 callgsubr
          30 45 107 42 hstemhm
          25 150 5 74 58 76 -66 144 hintmask 1110101100000000
          298 776 rmoveto
          -68 -50 -40 -65 hvcurveto
          hintmask 1111101100000000
          -51 34 -38 57 75 42 50 64 vhcurveto
          hintmask 1110101100000000
          51 -35 29 -55 vhcurveto
          -12 -42 rmoveto
          15 11 -12 -37 hvcurveto
          hintmask 1111101100000000
          -32 -10 -26 -20 -16 -12 17 30 vhcurveto
          hintmask 1110101100000000
          38 14 22 18 vhcurveto
          hintmask 1110110010000000
          119 -769 -106 callgsubr
        </CharString>
        <CharString name="asa_ba">
          -82 -68 callsubr
          -287 -82 rmoveto
          59 -10 78 -40 40 -49 18 10 15 16 6 16 -29 58 -88 55 -59 18 303 callgsubr
        </CharString>
        <CharString name="asa_ba.half">
          -65 callgsubr
          -34 -174 rmoveto
          -30 72 -76 51 -81 28 -43 -51 rcurveline
          85 -13 76 -39 51 -76 rrcurveto
          endchar
        </CharString>
        <CharString name="asa_ba_ukaar">
          46 callgsubr
          -69 -83 -10 callgsubr
          hintmask 11101100
          6 callsubr
          hintmask 11110000
          -104 callgsubr
          hintmask 11101100
          -33 callgsubr
          -426 61 rmoveto
          77 -13 105 -69 45 -82 18 9 15 16 7 18 -40 85 -110 87 -77 23 303 callgsubr
        </CharString>
        <CharString name="asa_ba_uukaar">
          71 callsubr
          -69 -83 vvcurveto
          139 -143 rmoveto
          -21 74 -7 109 114 vvcurveto
          34 15 34 14 32 13 rrcurveto
          -3 -28 33 callgsubr
          -13 -41 -21 177 callgsubr
          hintmask 11000000
          -104 callgsubr
          hintmask 10110000
          -33 callgsubr
          -426 61 rmoveto
          77 -13 105 -69 45 -82 18 9 15 16 7 18 -40 85 -110 87 -77 23 303 callgsubr
        </CharString>
        <CharString name="asa_ra">
          -82 541 -78 callgsubr
          316 108 12 64 hintmask 11000000
          454 -1 rmoveto
          -22 74 -8 111 114 vvcurveto
          83 4 69 8 76 vhcurveto
          hintmask 11100000
          199 callsubr
          -55 -99 14 -78 hhcurveto
          -97 -102 -14 -17 -69 hvcurveto
          -6 -12 -3 195 callsubr
          -22 4 -21 -15 flex1
          14 70 98 13 96 hhcurveto
          27 29 -2 -2 29 hvcurveto
          -2 -9 -1 -9 -2 -9 -136 -51 -113 -74 -70 -74 4 -52 15 -44 33 -48 rrcurveto
          hintmask 11000000
          98 -21 85 -59 64 -116 rrcurveto
          39 53 7 21 38 hvcurveto
          -138 227 rmoveto
          -22 38 -31 31 -33 26 32 21 33 18 30 14 -4 -48 -3 -48 -2 -52 rrcurveto
          -1 -87 rmoveto
          -24 1 -22 -19 vvcurveto
          -44 78 -68 57 -71 38 12 12 14 11 14 11 55 -23 49 -42 38 -65 rrcurveto
          -4 0 -4 -4 vvcurveto
          endchar
        </CharString>
        <CharString name="asa_ra.half">
          256 callgsubr
          13 65 hintmask 11000000
          451 158 rmoveto
          -21 53 -7 80 81 vvcurveto
          hintmask 11100000
          56 5 48 8 50 vhcurveto
          -76 callsubr
          -137 180 rmoveto
          -17 19 -20 18 -22 15 22 10 23 9 22 8 -4 -26 -2 -26 -2 -27 rrcurveto
          -2 -77 rmoveto
          -11 0 -11 -9 vvcurveto
          -38 50 -53 39 -57 25 11 6 12 7 13 7 43 -19 38 -27 31 -39 rrcurveto
          -6 0 -6 -6 vvcurveto
          endchar
        </CharString>
        <CharString name="asa_ra_ukaar">
          100 109 106 callsubr
          -370 112 -102 101 164 76 hintmask 11100110
          174 callgsubr
          hintmask 11101010
          -1 -91 310 callgsubr
          12 10 13 11 13 10 48 -24 43 -38 34 -57 rrcurveto
          -5 0 -6 -6 -10 callgsubr
          hintmask 11100110
          6 callsubr
          hintmask 11110000
          -104 callgsubr
          hintmask 11101010
          -33 callgsubr
          endchar
        </CharString>
        <CharString name="asa_ra_uukaar">
          100 546 339 callgsubr
          -369 110 94 91 hintmask 10110000
          174 callgsubr
          138 -234 rmoveto
          -21 74 -7 109 114 vvcurveto
          34 15 34 14 32 13 rrcurveto
          -3 -28 33 callgsubr
          -13 -41 -21 177 callgsubr
          hintmask 11000000
          -104 callgsubr
          hintmask 10110000
          -33 callgsubr
          -139 143 310 callgsubr
          12 10 13 11 13 10 48 -24 43 -38 34 -57 rrcurveto
          -5 0 -6 -6 vvcurveto
          endchar
        </CharString>
        <CharString name="asciicircum">
          -126 154 386 hstem
          7 442 vstem
          364 154 rmoveto
          33 7 22 7 30 15 -45 117 -81 150 -68 89 -54 1 rcurveline
          -67 -86 -82 -153 -45 -117 29 -15 23 -8 33 -6 41 96 44 87 50 77 51 -78 45 -86 41 -97 rrcurveto
          endchar
        </CharString>
        <CharString name="asciitilde">
          -142 264 89 -46 89 hstemhm
          30 64 250 65 hintmask 10010000
          292 353 rmoveto
          hintmask 01100000
          -53 -48 43 -59 hhcurveto
          -71 -38 -49 -81 7 hvcurveto
          21 -7 24 -4 19 1 rrcurveto
          35 -2 13 16 39 hhcurveto
          hintmask 10010000
          46 48 -43 68 hhcurveto
          71 39 48 82 -7 hvcurveto
          -17 8 -28 3 -20 -1 rrcurveto
          -35 1 -14 -16 -39 hhcurveto
          endchar
        </CharString>
        <CharString name="asterisk">
          -99 295 430 hstemhm
          189 97 -81 68 hintmask 10100000
          293 308 rmoveto
          -9 50 -7 41 -4 51 50 -35 40 -27 37 -22 10 11 7 9 8 13 11 19 5 22 1 14 -44 19 -40 18 -43 19 52 23 45 22 33 20 -4 14 -4 11 -8 13 rrcurveto
          -10 19 -17 17 -11 7 rrcurveto
          hintmask 11000000
          -38 -34 -33 -26 -43 -29 rrcurveto
          6 61 3 48 44 vvcurveto
          3 -14 -11 2 -15 hhcurveto
          -22 -22 -6 -7 -13 hvcurveto
          5 -47 5 -43 6 -48 -47 34 -41 28 -35 18 -10 -11 -7 -9 -7 -13 rrcurveto
          -11 -19 -6 -22 -14 vvcurveto
          48 -16 38 -15 46 -23 -55 -25 -43 -21 -38 -21 5 -14 4 -11 7 -13 11 -19 17 -16 11 -8 rrcurveto
          hintmask 10100000
          39 28 35 26 39 28 -7 -57 -3 -50 1 -38 rrcurveto
          -4 15 11 -2 15 hhcurveto
          22 22 7 6 12 hvcurveto
          endchar
        </CharString>
        <CharString name="at">
          319 -112 84 113 67 -56 84 281 68 117 81 hstemhm
          32 104 121 116 112 110 171 94 hintmask 1101111110000000
          421 -112 rmoveto
          95 76 22 41 71 hvcurveto
          -16 29 -18 22 -25 24 rrcurveto
          -35 -46 -50 -19 -79 hhcurveto
          -193 -100 132 201 206 129 135 210 192 99 -115 -168 -128 -52 -83 -56 -42 -21 45 110 66 2 64 7 114 hvcurveto
          -29 7 -38 3 -56 -13 rrcurveto
          -7 1 -8 -7 vvcurveto
          2 -10 -10 1 -9 hhcurveto
          -118 -78 -94 -148 hvcurveto
          hintmask 1011111110000000
          -108 46 -83 85 49 41 25 67 26 vhcurveto
          hintmask 1101111110000000
          -66 20 48 -37 76 hhcurveto
          105 107 100 176 186 -108 180 -265 -280 -175 -184 -261 -235 145 -159 244 hvcurveto
          hintmask 1011111110000000
          6 292 rmoveto
          -33 -21 42 80 103 38 56 50 9 8 -1 -2 7 hvcurveto
          2 -66 3 -58 2 -50 rrcurveto
          -77 -13 -27 -27 -25 hhcurveto
          endchar
        </CharString>
        <CharString name="atilde">
          51 callgsubr
          47 79 -47 79 hstemhm
          25 150 -23 58 112 144 -114 59 hintmask 1111010010000000
          324 678 rmoveto
          hintmask 1110101100000000
          -53 callsubr
          hintmask 1111010010000000
          -53 callgsubr
          hintmask 1111010100000000
          81 -713 -106 callgsubr
        </CharString>
        <CharString name="b">
          -63 -49 99 360 96 hstem
          55 142 138 150 vstem
          230 -49 rmoveto
          143 112 133 197 145 -53 80 -106 -52 -37 -21 -34 -28 hvcurveto
          8 93 10 85 14 70 rrcurveto
          6 -21 -16 1 -23 hhcurveto
          -43 -46 -6 -13 -25 hvcurveto
          -8 -80 -4 -118 -113 vvcurveto
          -105 3 -156 8 -114 vhcurveto
          -24 36 48 -26 80 hhcurveto
          8 99 rmoveto
          -14 -15 6 9 -12 hvcurveto
          20 0 23 25 vvcurveto
          66 2 65 2 62 vhcurveto
          59 20 28 25 27 hhcurveto
          42 17 -42 -66 -138 -26 -114 -71 hvcurveto
          endchar
        </CharString>
        <CharString name="backslash">
          -118 -205 960 hstem
          -23 532 vstem
          419 -205 rmoveto
          29 9 39 19 22 17 -114 207 -216 465 -95 243 -30 -4 -45 -22 -32 -33 118 -278 179 -363 145 -260 rrcurveto
          endchar
        </CharString>
        <CharString name="bar">
          -311 -169 898 hstem
          94 103 vstem
          94 -168 rmoveto
          26 -3 38 4 24 8 -6 193 6 485 15 206 -33 9 -50 -4 -40 -17 -1 -255 5 -367 16 -259 rrcurveto
          endchar
        </CharString>
        <CharString name="bn_a">
          118 60 131 219 89 47 108 hstem
          180 97 90 87 55 116 vstem
          562 -31 rmoveto
          40 92 23 175 140 vvcurveto
          55 -3 51 -4 46 vhcurveto
          30 -4 28 -5 24 -5 292 callgsubr
          20 -74 -117 16 -139 hhcurveto
          -152 -130 -16 -20 -88 -19 callsubr
          -17 0 -23 4 -22 -15 flex1
          17 92 125 15 149 hhcurveto
          46 44 -2 -3 41 hvcurveto
          8 -56 4 -61 -90 vvcurveto
          -106 -6 -90 -19 -74 vhcurveto
          -15 30 -17 28 -19 26 rrcurveto
          14 29 7 36 38 vvcurveto
          124 -65 124 -105 -62 -42 -56 -66 -24 4 -16 369 callsubr
          20 -4 20 18 vvcurveto
          29 11 20 22 33 24 -41 -68 -70 -26 -40 -54 -80 -78 114 147 -52 vhcurveto
          -25 -8 -24 -14 -20 -13 rrcurveto
          -180 52 88 -177 152 hhcurveto
          31 26 8 15 22 hvcurveto
          30 -26 27 -31 24 -38 rrcurveto
          -11 23 45 -8 34 hhcurveto
          endchar
        </CharString>
        <CharString name="bn_aa">
          384 54 131 219 90 57 107 hstem
          180 97 90 87 48 110 142 125 87 8 vstem
          889 -41 rmoveto
          -13 149 -2 176 22 189 15 19 22 15 33 7 9 30 3 54 -12 20 -50 -10 -49 -21 -34 -32 rrcurveto
          75 -82 -188 28 -163 hhcurveto
          -159 -146 -17 -23 -95 233 callsubr
          rrcurveto
          20 98 142 17 156 hhcurveto
          47 49 -1 -4 47 hvcurveto
          -28 -105 -9 -149 -150 -22 0 -19 -18 vvcurveto
          -17 27 -22 25 -24 22 rrcurveto
          10 26 5 31 32 vvcurveto
          123 -66 125 -105 -61 -42 -57 -66 -23 4 -17 369 callsubr
          21 -4 20 17 vvcurveto
          29 11 20 22 32 25 -40 -69 -70 -27 -40 -53 -80 -78 114 148 -52 vhcurveto
          -25 -8 -24 -14 -20 -14 rrcurveto
          -179 52 88 -178 152 hhcurveto
          40 33 14 25 25 hvcurveto
          43 -30 39 -40 32 -52 rrcurveto
          40 53 7 18 34 hvcurveto
          -20 75 -7 112 117 vvcurveto
          81 5 84 12 69 vhcurveto
          80 -15 60 -29 14 -53 -22 -204 -3 -147 -4 -132 29 -3 62 1 44 7 rrcurveto
          endchar
        </CharString>
        <CharString name="bn_aakaar">
          -64 682 hstem
          -7 364 callsubr
          8 vstem
          178 23 callgsubr
          endchar
        </CharString>
        <CharString name="bn_aakaar.b">
          519 105 hstem
          87 112 66 8 vstem
          178 -64 rmoveto
          11 155 9 189 1 197 14 17 22 13 30 7 9 30 4 54 -13 20 -44 -9 -43 -17 -33 -25 -23 43 -37 15 -35 -1 rrcurveto
          -16 -17 -2 -4 -17 hvcurveto
          -5 -13 -2 249 callgsubr
          -21 -50 callsubr
          4 15 12 1 8 hhcurveto
          37 14 -35 -75 1 hvcurveto
          -4 -190 -14 -142 -26 -127 rrcurveto
          -8 29 60 -6 46 hhcurveto
          endchar
        </CharString>
        <CharString name="bn_ai">
          118 239 callgsubr
          319 60 hintmask 01111110
          440 -32 rmoveto
          336 callsubr
          14 118 10 131 2 158 rrcurveto
          70 69 37 67 80 vvcurveto
          99 -54 66 -120 19 vhcurveto
          -78 12 -75 11 -34 19 -17 93 rlinecurve
          -23 -6 -33 -12 -29 -20 22 -140 68 -26 135 -18 rrcurveto
          112 -15 66 -10 -64 vvcurveto
          -35 -19 -33 -30 -28 vhcurveto
          88 -14 -69 54 -76 hhcurveto
          -118 -124 -132 -121 -88 65 -49 74 28 24 8 11 17 hvcurveto
          -12 callgsubr
          hintmask 10111110
          -22 callsubr
          hintmask 01111110
          148 callsubr
          endchar
        </CharString>
        <CharString name="bn_aikaar">
          -266 -79 82 681 99 -80 99 318 callsubr
          hintmask 10101000
          250 -79 -41 callsubr
          hintmask 10110000
          5 13 3 111 callgsubr
          19 324 callgsubr
          97 -16 -45 87 -86 hhcurveto
          hintmask 11010000
          -41 -45 -19 -32 hhcurveto
          -45 313 callsubr
          34 46 -49 72 hhcurveto
          hintmask 10110000
          44 43 19 39 hhcurveto
          59 16 -48 -52 11 hvcurveto
          -40 -12 -30 -15 -22 -19 -36 26 -55 21 -69 14 rrcurveto
          -5 -12 -2 -17 0 -20 0 -20 3 -22 -13 flex1
          hintmask 10101000
          105 callgsubr
          186 callsubr
          endchar
        </CharString>
        <CharString name="bn_aikaar.init">
          -248 -79 82 681 99 -80 99 hstemhm
          35 117 119 63 hintmask 10111000
          235 -79 rmoveto
          53 42 25 50 35 hvcurveto
          93 callsubr
          97 -15 -45 87 -86 hhcurveto
          hintmask 11011000
          -41 -45 -19 -33 hhcurveto
          -44 313 callsubr
          33 47 -49 72 hhcurveto
          hintmask 10111000
          44 43 19 39 hhcurveto
          59 16 -49 -52 11 hvcurveto
          -162 -53 -74 -122 -208 vvcurveto
          -177 82 -121 118 vhcurveto
          endchar
        </CharString>
        <CharString name="bn_anusvar">
          -131 323 82 144 81 hstem
          67 83 149 83 vstem
          382 254 callsubr
          63 -61 84 138 callsubr
          286 -483 rmoveto
          -73 136 -158 124 -138 51 -26 -31 -19 -37 -13 -44 126 -33 145 -96 82 -136 33 15 27 26 14 25 rrcurveto
          endchar
        </CharString>
        <CharString name="bn_au">
          194 241 callsubr
          153 95 18 61 hintmask 11110101
          468 -33 rmoveto
          hintmask 11110111
          354 callsubr
          17 20 14 25 9 27 rrcurveto
          hintmask 11111101
          63 67 39 74 82 vvcurveto
          98 -55 65 -120 19 vhcurveto
          -76 13 -79 13 -31 18 -16 92 rlinecurve
          -23 -7 -33 -12 -29 -21 22 -137 66 -25 136 -21 rrcurveto
          113 -17 64 -11 -64 vvcurveto
          -31 -14 -32 -22 -27 vhcurveto
          85 -25 -80 53 -99 hhcurveto
          -133 -106 -98 -130 2 hvcurveto
          123 callsubr
          hintmask 11110111
          58 callgsubr
          hintmask 11110101
          96 callgsubr
        </CharString>
        <CharString name="bn_aukaar">
          161 callgsubr
          172 85 -48 84 18 84 56 84 55 85 16 84 -46 84 -51 92 67 112 -43 62 hintmask 100110100101011001100000
          1192 224 callgsubr
          hintmask 000000100000000001010000
          -3 callsubr
          hintmask 000000100000000000100000
          18 callsubr
          hintmask 100110100101011001100000
          -5 28 59 -4 45 hhcurveto
          -942 -21 -16 callsubr
          hintmask 100110100101011001100000
          186 callsubr
          hintmask 000000010000010000000000
          459 646 rmoveto
          27 -16 17 -26 -27 -15 -17 -27 -27 15 -16 27 27 15 16 27 vhcurveto
          hintmask 000000100000101000000000
          140 -39 rmoveto
          26 -18 347 callgsubr
          18 16 282 callgsubr
          347 callgsubr
          17 16 25 vhcurveto
          hintmask 000001000001000100000000
          380 -101 rmoveto
          27 -15 353 callsubr
          15 17 26 vhcurveto
          -482 -1 rmoveto
          28 -14 16 -26 -26 -18 -17 -26 -24 18 -19 26 24 16 18 24 vhcurveto
          hintmask 000010000010000010000000
          -36 -135 rmoveto
          27 -15 16 -26 -27 -17 -18 -25 -26 17 -18 27 26 15 17 27 vhcurveto
          556 hmoveto
          27 -15 16 -26 -26 -17 -18 -25 -25 17 -19 26 26 15 17 27 vhcurveto
          hintmask 000100000001000100000000
          -38 -136 rmoveto
          26 -15 353 callgsubr
          15 17 28 vhcurveto
          -482 hmoveto
          26 -15 16 -25 -26 -18 -17 -25 -27 18 -18 26 25 15 17 28 vhcurveto
          hintmask 001000000000101000000000
          382 -103 rmoveto
          26 -18 349 callgsubr
          18 17 282 callgsubr
          349 callgsubr
          17 17 25 vhcurveto
          hintmask 010000000000010000000000
          140 -38 rmoveto
          27 -16 17 -26 -27 -15 -17 -27 -26 15 -16 27 26 16 17 25 vhcurveto
          endchar
        </CharString>
        <CharString name="bn_aumark">
          -58 1031 hstemhm
          -72 92 67 112 -43 62 hintmask 11100000
          184 224 callgsubr
          hintmask 11010000
          -3 callsubr
          hintmask 11100000
          18 callsubr
          -5 28 59 -4 45 hhcurveto
          endchar
        </CharString>
        <CharString name="bn_aumark_reph">
          -58 1113 hstemhm
          -72 92 67 112 -43 109 hintmask 11100000
          184 224 callgsubr
          hintmask 11010000
          14 17 22 13 30 7 rrcurveto
          5 16 3 23 157 callsubr
          16 9 flex1
          -18 -4 -18 -5 -17 -6 rrcurveto
          4 14 2 15 17 vvcurveto
          53 -25 41 -50 40 vhcurveto
          72 75 67 88 26 73 -9 15 -19 14 -19 7 -31 -76 -69 -86 -77 -69 rrcurveto
          -39 27 -25 25 50 vvcurveto
          14 2 15 3 18 vhcurveto
          -25 1 -34 -1 -32 -10 rrcurveto
          -4 -22 -2 -20 -17 vvcurveto
          -67 29 -34 51 -39 vhcurveto
          -24 -17 -23 -14 -23 -11 15 -27 17 -23 22 -16 25 16 27 20 29 25 rrcurveto
          56 -40 27 -22 -34 vvcurveto
          -27 -10 -22 -15 -16 vhcurveto
          hintmask 11100000
          18 callsubr
          -5 28 59 -4 45 hhcurveto
          endchar
        </CharString>
        <CharString name="bn_avagraha">
          -98 364 63 78 77 hstem
          68 80 170 104 vstem
          201 427 rmoveto
          -33 -20 18 24 21 17 15 35 26 24 -10 -16 20 hvcurveto
          -30 -10 -24 -22 -35 hhcurveto
          230 -482 rmoveto
          25 22 23 25 18 24 121 callsubr
          90 12 60 50 87 vvcurveto
          52 -21 53 -34 43 vhcurveto
          17 51 11 49 8 48 -23 14 -38 11 -32 3 -3 -29 -7 -38 -11 -41 rrcurveto
          19 -33 -37 11 -37 hhcurveto
          -61 -53 -29 -66 -85 80 -38 74 42 31 14 27 20 hvcurveto
          2 -9 1 -9 -9 vvcurveto
          -52 -36 -29 -77 -54 -64 13 27 -64 368 callgsubr
          133 -43 127 -79 128 -132 rlinecurve
          endchar
        </CharString>
        <CharString name="bn_b_ba">
          310 552 -78 callgsubr
          312 111 280 112 13 64 hintmask 11100000
          478 552 rmoveto
          hintmask 11110000
          96 90 -6 -9 76 hvcurveto
          -2 -9 -2 -9 -2 -9 -131 -52 -109 -72 -71 -74 1 86 5 74 10 80 rrcurveto
          hintmask 11100000
          13 13 0 13 hhcurveto
          364 -556 rmoveto
          -21 75 -6 262 callsubr
          82 4 69 9 76 vhcurveto
          hintmask 11110000
          24 -4 21 -3 19 -4 -83 callsubr
          19 -85 -153 23 -177 190 callsubr
          77 15 125 15 148 5 -3 -13 -2 -13 -3 -14 -136 -53 -111 -75 -71 -77 4 -49 15 -42 33 -46 -33 callgsubr
          -19 66 -7 95 -2 101 8 -31 15 -29 22 -31 rrcurveto
          hintmask 11100000
          302 callgsubr
          -139 143 162 callgsubr
          -391 hmoveto
          -17 0 -16 1 -14 vhcurveto
          -42 67 -60 50 -62 35 304 callgsubr
          57 27 rrcurveto
          -6 -67 -3 -70 -82 vvcurveto
          endchar
        </CharString>
        <CharString name="bn_b_bha">
          346 callgsubr
          209 84 133 106 -20 84 hintmask 11101000
          426 221 rmoveto
          -9 0 -8 -8 vvcurveto
          -49 55 -58 40 -63 30 53 36 64 33 61 27 rrcurveto
          -6 -60 -2 -62 -74 vvcurveto
          -46 -481 rmoveto
          hintmask 11100100
          328 callgsubr
          hintmask 11111000
          -7 6 -9 7 -8 6 rrcurveto
          -11 74 2 96 90 vvcurveto
          73 4 54 7 60 vhcurveto
          33 -4 29 -4 25 -5 rrcurveto
          87 callgsubr
          4 callgsubr
          14 76 115 13 122 hhcurveto
          44 43 -2 -2 41 hvcurveto
          -124 -52 -119 -64 -72 -62 3 -38 11 -30 27 -37 109 -10 94 -58 59 -95 1 -9 0 -8 1 -7 rrcurveto
          -28 -39 32 callsubr
          vhcurveto
          hintmask 11100100
          52 46 23 37 43 hvcurveto
          160 callsubr
          hintmask 11101000
          334 callsubr
        </CharString>
        <CharString name="bn_b_da">
          122 545 -85 callsubr
          704 -375 99 99 99 hintmask 10110000
          645 -31 rmoveto
          -12 60 -7 58 180 callsubr
          69 vhcurveto
          -28 40 -25 30 -39 16 -51 132 callsubr
          13 vhcurveto
          hintmask 11000000
          108 -4 100 -12 69 -14 -33 callsubr
          21 -79 -134 14 -141 hhcurveto
          -141 -125 -14 -21 -84 -44 callgsubr
          85 17 116 13 137 1 rrcurveto
          -1 0 -2 -1 vvcurveto
          -107 -42 -109 -55 -63 -51 2 -38 12 -31 26 -35 88 -12 65 -41 19 -83 25 -20 40 -26 33 -4 rrcurveto
          hintmask 10110000
          43 72 69 78 73 58 rrcurveto
          -17 -64 -10 -74 -74 vvcurveto
          -53 6 -53 11 -50 vhcurveto
          27 2 51 11 23 13 rrcurveto
          -352 262 rmoveto
          -23 52 -39 40 -44 28 43 26 51 25 48 21 -8 -63 -13 -66 -15 -63 rrcurveto
          endchar
        </CharString>
        <CharString name="bn_b_da_ukaar">
          46 callgsubr
          -70 -82 -10 callgsubr
          hintmask 11101100
          6 callsubr
          hintmask 11110000
          -104 callgsubr
          hintmask 11101100
          -33 callgsubr
          endchar
        </CharString>
        <CharString name="bn_b_da_uukaar">
          71 callsubr
          -70 -82 vvcurveto
          139 -143 rmoveto
          -21 74 -7 109 113 vvcurveto
          34 15 34 15 32 12 rrcurveto
          -3 -27 33 callgsubr
          -14 -41 -20 177 callgsubr
          hintmask 11000000
          -104 callgsubr
          hintmask 10110000
          -33 callgsubr
          endchar
        </CharString>
        <CharString name="bn_b_dha">
          57 545 -85 callsubr
          639 -294 94 -85 87 54 91 hintmask 10011000
          354 302 rmoveto
          -4 vlineto
          -29 -13 -30 -13 -28 -15 -28 19 -32 14 -31 14 55 41 76 40 45 15 rrcurveto
          2 -30 0 -33 -35 vvcurveto
          141 -185 rmoveto
          67 callsubr
          133 callsubr
          hintmask 11000000
          85 -6 78 -11 56 -11 -47 callgsubr
          16 79 108 15 127 6 6 0 6 hhcurveto
          3 -10 3 -11 2 -11 -103 -40 -126 -73 -51 -47 3 -40 12 -31 26 -37 32 -7 33 -7 30 -12 -45 -26 -40 -27 -31 -25 288 callgsubr
          66 -18 54 -52 35 -81 rrcurveto
          hintmask 10101000
          201 callgsubr
          hintmask 10011000
          -3 -43 -2 -41 -45 vvcurveto
          hintmask 10101000
          -195 -158 35 callsubr
        </CharString>
        <CharString name="bn_b_ja">
          -72 callsubr
          57 12 78 11 87 6 -84 -35 -82 -40 -50 -40 2 -36 8 -33 15 -28 90 -1 65 -20 46 -42 rrcurveto
          -33 28 39 -18 38 hhcurveto
          hintmask 11110111
          40 35 21 24 32 hvcurveto
          1 -8 0 -7 -8 vvcurveto
          -84 -29 -60 -74 -96 -87 64 133 -33 vhcurveto
          -28 -10 -29 -11 -26 -14 rrcurveto
          -130 30 86 -153 176 hhcurveto
          119 66 91 138 hvcurveto
          -328 179 rmoveto
          -12 1 -11 2 -11 vhcurveto
          -28 21 -29 17 -28 12 28 15 30 15 31 14 rrcurveto
          -4 -21 -3 -20 -19 vvcurveto
          endchar
        </CharString>
        <CharString name="bn_b_la">
          -81 -241 86 91 108 -98 99 496 -78 callgsubr
          -35 67 275 354 callgsubr
          hintmask 11011100
          -5 callsubr
          -160 -289 rmoveto
          -3 -14 -15 -3 -16 hhcurveto
          -37 -33 19 32 25 17 15 28 28 21 -19 -28 21 hvcurveto
          30 -44 rlineto
          hintmask 10111100
          29 7 22 8 16 9 -13 21 rcurveline
          -6 11 -3 8 10 vvcurveto
          16 9 11 15 29 38 -56 -123 11 vhcurveto
          41 51 4 13 34 hvcurveto
          -29 131 -7 198 175 vvcurveto
          95 3 70 5 75 vhcurveto
          hintmask 10111010
          29 -4 28 -5 22 -5 -99 callsubr
          21 22 -1 -2 22 hvcurveto
          -1 -10 -1 -9 -1 -10 1 callsubr
          87 -22 110 -56 32 -133 rrcurveto
          -1 vlineto
          51 -20 -28 24 -37 hhcurveto
          -29 -24 -23 -40 -12 hvcurveto
          hintmask 11011100
          39 -24 -29 23 -34 hhcurveto
          -64 -45 -58 -81 -88 68 -53 90 -5 hvcurveto
          15 23 9 39 30 vvcurveto
          endchar
        </CharString>
        <CharString name="bn_b_ra">
          -81 -165 114 592 -78 callgsubr
          -29 92 244 354 callgsubr
          hintmask 11010000
          -5 callsubr
          12 -347 rmoveto
          41 52 4 13 34 hvcurveto
          -27 123 -5 191 164 vvcurveto
          95 3 70 5 75 vhcurveto
          hintmask 11101000
          29 -4 28 -5 22 -5 -99 callsubr
          21 22 -1 -2 22 hvcurveto
          -1 -10 -1 -9 -1 -10 -55 callgsubr
          hintmask 11010000
          268 callsubr
        </CharString>
        <CharString name="bn_b_ra_ukaar">
          91 -165 114 160 120 callgsubr
          -29 92 -63 673 -366 107 165 76 hintmask 11111011
          -5 callsubr
          12 -347 rmoveto
          41 52 4 13 34 hvcurveto
          -23 105 -7 156 -2 145 rrcurveto
          -71 29 41 -36 54 34 callsubr
          hvcurveto
          hintmask 11110100
          -36 -24 -18 -21 -12 hvcurveto
          -45 12 -51 17 -32 vhcurveto
          hintmask 11111011
          28 12 22 30 22 hhcurveto
          20 13 -17 -33 -43 -26 -35 -37 -37 -49 33 68 -16 hvcurveto
          1 78 3 62 6 68 rrcurveto
          hintmask 11110100
          54 callsubr
          hintmask 11111011
          15 73 130 17 126 hhcurveto
          1 hlineto
          -2 -13 -1 -12 -1 -12 -55 callgsubr
          268 callsubr
        </CharString>
        <CharString name="bn_b_ra_uukaar">
          91 -165 114 597 -78 callgsubr
          -29 92 -63 673 -366 107 -84 85 86 91 hintmask 11101010
          -5 callsubr
          12 -347 rmoveto
          41 52 4 13 34 hvcurveto
          -26 117 -5 178 -1 158 32 13 31 12 30 365 callgsubr
          -28 -27 -54 callgsubr
          31 5 32 vhcurveto
          -62 86 -42 -13 -41 -15 -42 -18 rlinecurve
          1 59 3 51 5 55 rrcurveto
          hintmask 11010000
          54 callsubr
          hintmask 11100110
          15 73 130 17 126 hhcurveto
          1 hlineto
          -2 -13 -1 -12 -1 -12 -55 callgsubr
          hintmask 11101010
          268 callsubr
        </CharString>
        <CharString name="bn_ba">
          -81 -68 callsubr
          endchar
        </CharString>
        <CharString name="bn_ba.half">
          -65 callgsubr
          endchar
        </CharString>
        <CharString name="bn_ba_phala">
          -582 -305 325 hstem
          -55 93 vstem
          54 -293 rmoveto
          -11 35 -5 45 53 vvcurveto
          48 4 41 14 78 vhcurveto
          -86 13 -109 -35 -93 -38 -67 -44 rlinecurve
          1 -40 9 -33 24 -38 82 -11 91 -24 42 -61 33 -3 44 4 27 10 rrcurveto
          -109 74 rmoveto
          -33 31 -50 24 -49 22 41 23 47 21 48 13 rrcurveto
          -5 -47 1 -44 -43 vvcurveto
          endchar
        </CharString>
        <CharString name="bn_bh_la">
          -27 -127 86 90 109 -99 100 77 94 212 343 callsubr
          -553 68 24 80 222 102 hintmask 1101101010000000
          269 542 rmoveto
          hintmask 1101110000000000
          67 callgsubr
          hintmask 1101101010000000
          15 65 103 13 101 hhcurveto
          -77 -577 rmoveto
          -4 -14 -16 -2 -15 hhcurveto
          -37 -33 19 30 26 17 15 28 34 23 -28 -39 27 hvcurveto
          hintmask 1011101110000000
          16 -23 29 7 22 8 16 8 rlinecurve
          -6 10 rlineto
          -10 16 -6 10 13 vvcurveto
          17 8 11 16 31 38 -55 -127 vhcurveto
          38 47 4 12 35 hvcurveto
          15 129 10 141 179 vvcurveto
          1 35 -13 31 -21 25 280 callsubr
          -51 callsubr
          -63 -10 -112 -13 -108 vhcurveto
          82 -22 -37 38 -50 hhcurveto
          -30 -24 -24 -40 -11 hvcurveto
          hintmask 1101101110000000
          39 -24 -29 24 -34 hhcurveto
          hintmask 1101101010000000
          -64 -46 -59 -81 -87 60 -52 99 -6 hvcurveto
          16 23 8 39 30 vvcurveto
          endchar
        </CharString>
        <CharString name="bn_bh_ra">
          -27 -54 125 -92 117 140 94 212 343 callsubr
          -536 95 -20 80 222 102 hintmask 01110011
          269 542 rmoveto
          hintmask 01111000
          67 callgsubr
          hintmask 01110011
          15 65 103 13 101 hhcurveto
          119 -635 rmoveto
          209 callgsubr
          14 120 8 132 167 vvcurveto
          1 35 -13 31 -21 25 280 callsubr
          -51 callsubr
          -66 -8 -136 -17 -102 vhcurveto
          53 -20 -25 25 -40 hhcurveto
          hintmask 10110101
          26 callsubr
          hintmask 01110011
          117 callsubr
        </CharString>
        <CharString name="bn_bh_ra_ukaar">
          180 -54 125 -92 117 13 125 2 94 32 109 75 292 callsubr
          159 76 hintmask 0101110011100000
          366 546 rmoveto
          hintmask 0101111000000000
          146 163 -14 -18 84 hvcurveto
          -77 callsubr
          21 -78 -164 15 -148 hhcurveto
          -141 -150 -17 -19 -78 -82 callgsubr
          hintmask 0101110011100000
          240 callsubr
          hintmask 0110110011100000
          10 86 7 92 3 107 rrcurveto
          -66 28 40 -33 52 34 callsubr
          28 callsubr
          36 callgsubr
          -33 -43 27 55 -20 hvcurveto
          8 0 9 9 vvcurveto
          1 35 -13 31 -21 25 280 callsubr
          hintmask 0101110011100000
          -51 callsubr
          -66 -8 -136 -17 -102 vhcurveto
          53 -20 -25 25 -40 hhcurveto
          hintmask 1001110101100000
          26 callsubr
          hintmask 0101110011100000
          117 callsubr
        </CharString>
        <CharString name="bn_bh_ra_uukaar">
          180 -54 125 -92 117 140 94 216 292 callsubr
          82 91 hintmask 0111001110000000
          366 546 rmoveto
          hintmask 0111100000000000
          146 163 -14 -18 84 hvcurveto
          -77 callsubr
          21 -78 -164 15 -148 hhcurveto
          -141 -150 -17 -19 -78 -82 callgsubr
          hintmask 0111001110000000
          240 callsubr
          13 109 7 119 2 146 30 13 29 13 29 11 rrcurveto
          -3 -27 -3 -28 -26 367 callsubr
          15 -56 vhcurveto
          40 40 6 11 189 callgsubr
          58 69 vvcurveto
          30 6 31 5 32 vhcurveto
          -63 86 -46 -14 -44 -22 -46 -20 rlinecurve
          -5 10 -6 9 -7 8 280 callsubr
          -51 callsubr
          -66 -8 -136 -17 -102 vhcurveto
          53 -20 -25 25 -40 hhcurveto
          hintmask 1011010110000000
          26 callsubr
          hintmask 0111001110000000
          117 callsubr
        </CharString>
        <CharString name="bn_bha">
          48 -31 130 125 95 222 -3 callgsubr
          -572 rmoveto
          140 81 96 142 56 -12 58 -20 47 hvcurveto
          -22 23 -31 25 -25 16 rrcurveto
          -65 -64 -55 -48 -43 hhcurveto
          -23 -15 12 20 32 47 33 55 11 hvcurveto
          -15 34 -42 29 -34 6 rrcurveto
          -44 -17 -47 -43 -67 vvcurveto
          -82 70 -63 80 55 49 31 48 44 vhcurveto
          3 -19 2 -19 -19 vvcurveto
          -93 -43 -54 -87 -134 -95 133 226 -68 vhcurveto
          -29 -10 -28 -13 -27 -16 rrcurveto
          -199 53 99 -251 225 hhcurveto
          endchar
        </CharString>
        <CharString name="bn_bha.half">
          48 138 100 81 74 148 -3 callgsubr
          -403 rmoveto
          140 81 70 103 40 -12 42 -20 34 hvcurveto
          -23 17 -31 18 -25 12 rrcurveto
          -47 -65 -55 -34 -43 hhcurveto
          -22 -14 8 14 24 47 23 55 9 hvcurveto
          -15 24 -45 22 -35 5 rrcurveto
          -43 -12 -44 -33 -49 vvcurveto
          -62 71 -47 81 55 49 20 34 44 vhcurveto
          2 -12 1 -11 -11 vvcurveto
          -63 -44 -38 -88 -132 -92 94 161 -66 vhcurveto
          -31 -8 -30 -9 -28 -12 rrcurveto
          -143 53 99 -183 225 hhcurveto
          endchar
        </CharString>
        <CharString name="bn_bisarga">
          -148 -15 81 135 82 40 82 144 81 hstemhm
          65 83 -79 82 140 82 -76 83 hintmask 11111001
          380 254 callsubr
          64 -61 83 138 callsubr
          hintmask 11110110
          225 -352 rmoveto
          81 -63 61 -82 -90 -69 -70 -89 -80 62 -59 82 89 71 69 87 vhcurveto
          -222 7 rmoveto
          33 21 20 34 49 36 -37 -47 -32 -21 -19 -33 -48 -38 37 45 vhcurveto
          endchar
        </CharString>
        <CharString name="bn_c_ca">
          233 -30 82 -2 74 428 -85 callsubr
          815 -764 101 243 106 153 129 hintmask 10101110
          258 callgsubr
          54 rrcurveto
          6 68 78 4 82 hhcurveto
          -10 -54 -10 -64 -8 -64 -12 30 -26 19 -38 16 rrcurveto
          449 -157 rmoveto
          68 -32 33 -58 28 vhcurveto
          -59 28 -57 37 -20 72 rrcurveto
          1 1 1 2 vvcurveto
          hintmask 10110000
          107 -8 90 -15 60 -11 -83 callsubr
          18 -77 -139 24 -162 hhcurveto
          -186 -162 -22 -20 -89 -92 callgsubr
          hintmask 01101110
          24 4 28 5 32 5 rrcurveto
          -18 -101 -15 -128 -81 vvcurveto
          -116 72 -52 75 87 75 70 89 36 vhcurveto
          -1 -18 0 -16 -15 vvcurveto
          hintmask 10101110
          -133 76 -57 79 129 104 155 153 vhcurveto
          hintmask 01101110
          -601 -154 -13 callgsubr
          hintmask 10101110
          352 -72 rmoveto
          -23 -10 19 47 79 14 132 21 115 hvcurveto
          16 -45 29 -33 33 -22 rrcurveto
          25 -15 15 -12 -26 vvcurveto
          -98 -61 -141 -59 vhcurveto
          endchar
        </CharString>
        <CharString name="bn_c_ch_ba">
          277 -250 433 -133 146 callsubr
          144 208 94 106 18 108 hintmask 0111011010000000
          258 callgsubr
          53 rrcurveto
          hintmask 0111100000000000
          183 callsubr
          hintmask 0111011010000000
          -15 17 -20 12 -27 12 rrcurveto
          193 -131 100 callgsubr
          hintmask 0111100000000000
          150 callsubr
          hintmask 0111011010000000
          289 callgsubr
          -345 -180 -13 callgsubr
          hintmask 1011011110000000
          416 -294 rmoveto
          -36 32 -55 25 -54 23 51 24 61 20 55 13 -11 -45 -9 -49 252 callgsubr
          15 vhcurveto
          32 -28 32 -29 33 -32 105 callsubr
          hintmask 1011011010000000
          126 callsubr
          -74 11 -73 22 -39 38 361 callgsubr
          hintmask 0111100000000000
          141 -3 120 -20 74 -14 -83 callsubr
          18 -78 -141 24 -162 190 callsubr
          hintmask 0111011010000000
          -15 callgsubr
          hintmask 1011011010000000
          -73 -55 -40 -83 -41 -52 8 20 -55 vhcurveto
          14 -121 32 -13 31 -15 30 -17 rlinecurve
          -89 -24 -72 -28 -52 -36 rrcurveto
          -39 9 -36 27 -37 vhcurveto
          89 -11 102 -23 45 -61 rrcurveto
          hintmask 1011011110000000
          37 -1 48 2 33 15 rrcurveto
          endchar
        </CharString>
        <CharString name="bn_c_ch_ra">
          277 -207 118 139 146 callsubr
          99 93 -48 208 100 106 12 108 hintmask 1111011001000000
          258 callgsubr
          53 rrcurveto
          hintmask 1111100000000000
          183 callsubr
          hintmask 1111011001000000
          -15 17 -20 12 -27 12 rrcurveto
          hintmask 1111010101000000
          193 -131 100 callgsubr
          hintmask 1111100000000000
          150 callsubr
          hintmask 1111010101000000
          289 callgsubr
          hintmask 1111010111000000
          -345 -180 -13 callgsubr
          534 -357 rmoveto
          -7 42 -3 55 4 62 31 -27 31 -28 31 -31 105 callsubr
          hintmask 1111011001000000
          126 callsubr
          -74 10 -73 22 -39 39 361 callgsubr
          hintmask 1111100000000000
          141 -3 120 -20 74 -14 -83 callsubr
          17 -78 -141 25 -162 hhcurveto
          -203 -177 -20 -22 -97 -92 callgsubr
          hintmask 1111011001000000
          -15 callgsubr
          -73 -55 -40 -83 -41 -52 8 20 -55 vhcurveto
          14 -121 rlineto
          hintmask 1111011011000000
          61 -24 58 -33 57 -42 -9 -47 -9 -51 -4 -47 rrcurveto
          54 -27 -43 11 -47 -32 -41 -9 -26 hhcurveto
          -25 -19 15 27 19 7 21 6 16 hvcurveto
          10 -19 -29 7 -30 hhcurveto
          -16 -31 -12 -37 -40 vvcurveto
          -69 51 -47 84 vhcurveto
          40 41 9 39 hhcurveto
          56 27 -25 -27 14 hvcurveto
          hintmask 1111010111000000
          303 callsubr
        </CharString>
        <CharString name="bn_c_cha">
          277 50 146 callsubr
          144 208 218 108 hintmask 11101110
          872 -89 rmoveto
          200 callgsubr
          -74 10 -73 22 -39 39 361 callgsubr
          hintmask 11110000
          141 -3 120 -20 74 -14 -83 callsubr
          17 -78 -141 25 -162 190 callsubr
          hintmask 11101110
          -15 callgsubr
          -73 -55 -40 -83 -41 -52 8 20 -55 vhcurveto
          19 -139 119 -49 117 -73 112 -110 rlinecurve
          27 21 23 25 19 25 rrcurveto
          -538 524 rmoveto
          -51 23 -51 30 -22 53 rrcurveto
          hintmask 11110000
          183 callsubr
          hintmask 11101110
          -15 17 -20 12 -27 12 rrcurveto
          193 -131 100 callgsubr
          hintmask 11110000
          150 callsubr
          hintmask 11101110
          289 callgsubr
          -345 -180 -13 callgsubr
          endchar
        </CharString>
        <CharString name="bn_c_nya">
          319 -208 137 -95 130 -92 101 45 71 -36 115 -24 45 -19 71 -1 95 26 82 109 -85 callsubr
          69 -24 96 -89 101 48 129 162 112 41 48 104 73 -70 73 hintmask 000000100101011110000000
          167 241 rmoveto
          -18 -8 12 31 52 12 88 18 78 hvcurveto
          12 -30 22 -21 26 -15 rrcurveto
          20 -10 11 -7 -18 vvcurveto
          -25 -7 -30 -12 -27 vhcurveto
          -9 -13 -7 -13 -6 -13 rrcurveto
          -23 -16 -19 -16 -19 hhcurveto
          hintmask 001000010101011101000000
          569 -268 rmoveto
          -41 -53 23 47 -43 hvcurveto
          2 33 1 33 1 35 rrcurveto
          hintmask 000101010101011110000000
          65 42 53 31 48 hhcurveto
          32 19 -15 -24 -13 -4 -14 -6 -13 hvcurveto
          16 -15 -23 12 -24 hhcurveto
          -42 319 callgsubr
          hintmask 001100100101011101000000
          26 24 13 23 18 hvcurveto
          4 -9 3 -11 -9 vvcurveto
          hintmask 001000010101011101000000
          -29 -22 -23 -42 vhcurveto
          hintmask 010101000101011110000000
          -17 116 rmoveto
          -16 -10 11 15 16 13 13 17 16 14 -10 -15 10 hvcurveto
          -3 -4 -4 -5 -3 -4 rrcurveto
          -11 -11 -11 -6 -12 hhcurveto
          -246 -339 rmoveto
          33 39 5 11 32 hvcurveto
          hintmask 001000100101011101000000
          7 58 331 callsubr
          55 45 74 40 -15 35 -25 32 hvcurveto
          hintmask 000000010101011110000000
          22 109 callgsubr
          -55 -50 -27 -38 -35 vhcurveto
          hintmask 000000101110011110000000
          104 -77 69 -85 -23 -23 -5 -9 -23 vhcurveto
          -12 24 -23 16 -33 13 -36 14 -35 17 -22 28 rrcurveto
          6 83 95 5 101 hhcurveto
          173 148 -21 -17 89 hvcurveto
          4 -88 callsubr
          19 -85 -151 23 -174 hhcurveto
          -209 -182 -19 -23 -100 -92 callgsubr
          20 4 23 3 26 4 rrcurveto
          hintmask 000000101101011110000000
          -14 -73 -10 -84 -55 vvcurveto
          -99 68 -44 70 6 6 0 1 6 vhcurveto
          hintmask 010010001101011110000000
          -77 9 60 -41 69 hhcurveto
          27 25 7 12 171 callsubr
          15 4 16 8 17 hvcurveto
          8 12 8 14 6 13 rrcurveto
          36 25 35 28 29 hhcurveto
          24 15 -19 -34 -149 -10 -165 -21 -124 hvcurveto
          64 -23 -28 30 -47 hhcurveto
          hintmask 100000100100111110000000
          -51 -62 -35 -44 hhcurveto
          -29 -24 15 41 23 8 37 14 28 hvcurveto
          -21 9 -28 6 -37 1 rrcurveto
          -21 -45 -16 -55 -50 vvcurveto
          -89 51 -58 80 vhcurveto
          hintmask 010000100101011110000000
          69 71 42 57 hhcurveto
          hintmask 010101000101011110000000
          59 13 -44 -40 21 hvcurveto
          endchar
        </CharString>
        <CharString name="bn_c_ra">
          -107 -206 111 -98 110 53 82 486 -78 callgsubr
          -51 92 -41 475 -422 107 152 129 -128 92 hintmask 0111001100000000
          192 52 110 callsubr
          hintmask 0111001010000000
          117 -293 rmoveto
          32 1 34 5 30 11 7 121 4 129 2 124 rrcurveto
          hintmask 0111001100000000
          15 41 8 43 44 vvcurveto
          68 -32 33 -58 28 vhcurveto
          -57 27 -55 36 -22 68 rrcurveto
          7 8 0 7 hhcurveto
          hintmask 0111010000000000
          -9 callgsubr
          hintmask 0111001010000000
          213 callgsubr
          38 36 13 23 31 vhcurveto
          -2 -56 -3 -52 -5 -48 rrcurveto
          43 -30 -32 24 -46 hhcurveto
          hintmask 1011101100000000
          -33 -44 -12 -25 hhcurveto
          -30 -22 18 34 19 7 21 6 16 hvcurveto
          9 -19 -29 7 -29 hhcurveto
          -16 -30 -12 -38 -39 vvcurveto
          -76 47 -52 76 vhcurveto
          hintmask 0111001100000000
          49 47 13 46 hhcurveto
          hintmask 0111001010000000
          55 17 -25 -23 23 hvcurveto
          endchar
        </CharString>
        <CharString name="bn_ca">
          -107 -30 82 486 251 callsubr
          278 rmoveto
          68 -32 33 -58 28 vhcurveto
          -57 27 -55 36 -22 68 rrcurveto
          7 8 0 7 hhcurveto
          hintmask 11100000
          -9 callgsubr
          hintmask 11011000
          213 callgsubr
          129 104 155 153 vhcurveto
          -249 -226 110 callsubr
          endchar
        </CharString>
        <CharString name="bn_ca.half">
          -107 138 60 340 251 callsubr
          357 rmoveto
          48 -32 24 -58 19 vhcurveto
          -55 18 -54 25 -23 47 rrcurveto
          6 7 0 7 hhcurveto
          hintmask 11100000
          -9 callgsubr
          hintmask 11011000
          24 6 32 5 34 4 rrcurveto
          -20 -82 -17 -107 -67 vvcurveto
          -95 77 -40 78 129 104 110 109 vhcurveto
          -249 -159 rmoveto
          -22 -10 13 33 55 15 94 20 82 hvcurveto
          15 -33 29 -24 34 -16 rrcurveto
          24 -12 15 -7 -19 vvcurveto
          -68 -61 -98 -59 vhcurveto
          endchar
        </CharString>
        <CharString name="bn_ch_ba">
          -50 -250 433 54 67 238 -85 callsubr
          65 -11 109 94 106 18 108 hintmask 01101010
          186 304 100 callgsubr
          150 callsubr
          289 callgsubr
          hintmask 11101110
          71 -474 rmoveto
          -36 32 -55 25 -54 23 50 24 62 20 55 13 -11 -46 -9 -48 252 callgsubr
          14 vhcurveto
          32 -27 32 -29 33 -32 105 callsubr
          hintmask 11110010
          126 callsubr
          -69 10 -69 20 -40 34 rrcurveto
          2 27 28 1 28 12 callgsubr
          -104 -117 -14 -18 -52 -61 callgsubr
          17 5 22 4 26 4 rrcurveto
          hintmask 11101010
          -7 -61 -4 -67 -41 48 callsubr
          14 -121 32 -13 30 -15 31 -17 rlinecurve
          -89 -25 -72 -27 -51 -36 rrcurveto
          -39 9 -36 26 -37 vhcurveto
          89 -11 102 -23 45 -61 rrcurveto
          hintmask 11101110
          37 -1 48 2 33 15 rrcurveto
          endchar
        </CharString>
        <CharString name="bn_ch_ra">
          -50 -190 114 313 67 238 -78 callgsubr
          -37 93 -56 64 -11 109 100 106 12 108 hintmask 11100101
          185 304 100 callgsubr
          150 callsubr
          289 callgsubr
          hintmask 11100111
          189 -537 rmoveto
          -7 42 -3 55 4 61 31 -26 31 -29 31 -30 105 callsubr
          hintmask 11101001
          126 callsubr
          -69 10 -69 20 -40 34 rrcurveto
          2 28 28 1 28 12 callgsubr
          -104 -117 -14 -18 -52 -61 callgsubr
          17 4 22 5 25 4 rrcurveto
          hintmask 11100101
          -7 -61 -4 -67 -41 48 callsubr
          14 -121 rlineto
          hintmask 11100111
          61 -24 58 -34 57 -41 -9 -44 -8 -49 -5 -45 rrcurveto
          57 -22 -29 14 -36 hhcurveto
          hintmask 11110001
          118 callgsubr
          6 20 7 17 80 callgsubr
          -29 1 rrcurveto
          -16 -32 -13 -36 -40 vvcurveto
          -69 50 -48 85 203 callgsubr
          hintmask 11100111
          303 callsubr
        </CharString>
        <CharString name="bn_cha">
          -50 237 67 238 -85 callsubr
          65 -11 109 218 108 hintmask 11011000
          186 304 rmoveto
          -16 -7 9 20 37 3 52 6 49 hvcurveto
          21 -23 34 -18 41 -8 rrcurveto
          -3 vlineto
          289 callgsubr
          276 -464 rmoveto
          27 21 23 25 19 25 200 callgsubr
          -72 10 -74 19 -39 35 rrcurveto
          2 30 30 1 30 12 callgsubr
          hintmask 11101000
          -104 -117 -14 -18 -52 -61 callgsubr
          17 5 22 4 26 4 rrcurveto
          hintmask 11011000
          -7 -61 -4 -68 -40 48 callsubr
          19 -139 120 -49 116 -73 112 -110 rlinecurve
          endchar
        </CharString>
        <CharString name="bn_cha.half">
          -50 206 81 35 50 170 -85 callsubr
          64 -10 109 218 108 hintmask 11101100
          186 372 rmoveto
          -16 -7 7 15 26 3 36 5 35 hvcurveto
          20 -16 28 -12 36 -7 rrcurveto
          -2 vlineto
          -43 -37 -39 -32 vhcurveto
          276 -330 rmoveto
          27 15 23 18 19 17 -76 44 -71 38 -71 32 rrcurveto
          103 10 73 44 77 vvcurveto
          67 -57 56 -65 34 vhcurveto
          -72 7 -73 14 -39 24 rrcurveto
          2 29 31 1 29 12 callgsubr
          hintmask 11110100
          -104 -117 -14 -18 -52 -61 callgsubr
          17 4 22 5 25 4 rrcurveto
          hintmask 11101100
          -6 -43 -4 -45 -28 vvcurveto
          -56 67 -33 64 82 67 40 53 26 vhcurveto
          13 -13 8 -17 -19 vvcurveto
          -51 -55 -28 -83 -41 -51 5 14 -56 vhcurveto
          19 -99 120 -34 116 -53 112 -78 rlinecurve
          endchar
        </CharString>
        <CharString name="bn_chandrabindu">
          -582 678 94 48 114 hstem
          -48 110 vstem
          62 875 rmoveto
          32 -23 27 -33 -30 -24 -25 -32 -30 23 -27 32 31 24 25 30 vhcurveto
          98 -43 rmoveto
          -60 20 rlineto
          -46 -13 -32 -34 -47 hhcurveto
          -39 -35 28 34 -9 hvcurveto
          -86 -24 rlineto
          -73 8 62 -59 84 hhcurveto
          84 68 65 89 15 hvcurveto
          endchar
        </CharString>
        <CharString name="bn_currency1">
          -15 -40 631 hstem
          54 504 192 callsubr
          -103 -250 -143 -168 -175 -86 rrcurveto
          endchar
        </CharString>
        <CharString name="bn_currency16">
          -65 163 95 239 95 hstem
          58 76 234 76 vstem
          444 409 rmoveto
          117 -61 66 -113 -146 -66 -135 -110 -117 62 -67 113 145 66 135 111 vhcurveto
          -310 -51 rmoveto
          80 54 59 79 59 42 -32 -68 -80 -54 -59 -79 -59 -42 31 69 vhcurveto
          endchar
        </CharString>
        <CharString name="bn_currency2">
          -15 220 99 89 97 hstem
          -7 69 185 62 192 callsubr
          -47 -115 -56 -97 -63 -80 rrcurveto
          4 0 5 4 vvcurveto
          132 -98 61 -75 -88 -55 -54 -75 -88 64 -68 80 25 25 8 4 5 vhcurveto
          7 28 0 44 -4 34 187 callsubr
          -37 -23 18 25 27 27 19 39 50 69 -36 -68 -96 -97 -69 -96 -52 hvcurveto
          endchar
        </CharString>
        <CharString name="bn_currency3">
          -15 -15 81 376 70 hstemhm
          10 122 -91 100 109 105 hintmask 11011000
          195 442 rmoveto
          33 22 -24 -28 hvcurveto
          hintmask 11101000
          -124 -240 -1 -142 vvcurveto
          -69 71 -69 123 191 134 183 398 50 vhcurveto
          -27 11 -28 8 -28 6 rrcurveto
          -309 -43 -136 -216 -126 hhcurveto
          -33 -26 15 29 hvcurveto
          75 223 13 170 vvcurveto
          83 -78 61 -98 vhcurveto
          hintmask 11011000
          -79 -59 -59 -73 -22 6 -22 4 -4 hvcurveto
          28 -6 44 -1 34 4 rrcurveto
          -10 16 -6 23 19 vvcurveto
          35 17 20 37 vhcurveto
          endchar
        </CharString>
        <CharString name="bn_currency4">
          -282 -81 676 hstem
          49 105 vstem
          183 -81 rmoveto
          -19 83 -10 124 136 vvcurveto
          125 8 102 7 106 vhcurveto
          -98 -13 rlineto
          -21 -193 -1 -129 -202 vvcurveto
          -35 2 -31 1 -30 vhcurveto
          endchar
        </CharString>
        <CharString name="bn_currencyless">
          -67 -29 679 hstem
          103 92 147 99 vstem
          358 -29 rmoveto
          233 callgsubr
          39 callgsubr
          vvcurveto
          50 -1 48 -3 46 vhcurveto
          -88 -11 2 -151 -19 -182 -48 -153 rlinecurve
          16 callgsubr
          endchar
        </CharString>
        <CharString name="bn_d_ba">
          -28 385 108 48 -85 callsubr
          554 -440 89 212 82 hintmask 11011000
          497 318 rmoveto
          100 -69 75 -70 -46 -60 -30 -46 -57 vhcurveto
          5 37 3 37 33 5 0 5 5 vvcurveto
          1 27 28 1 30 hhcurveto
          hintmask 11100000
          102 107 -13 -14 57 hvcurveto
          5 -16 callgsubr
          17 12 flex1
          17 -51 -109 14 -102 hhcurveto
          hintmask 11011000
          -123 -103 -14 -17 -66 hvcurveto
          -5 -10 -3 -18 0 -18 0 -25 4 -21 -12 flex1
          31 7 39 6 44 5 -4 -80 -22 -94 -34 -80 24 -29 44 -25 35 -7 rrcurveto
          67 60 112 101 52 hhcurveto
          24 10 -16 -27 -12 0 -15 -2 -17 hvcurveto
          -99 -37 -131 -73 -52 -44 2 -38 14 -31 25 -36 67 -18 55 -52 36 -82 rrcurveto
          -11 27 49 -10 41 hhcurveto
          32 100 18 197 155 vvcurveto
          -142 -358 rmoveto
          -24 56 -39 46 -46 31 46 31 59 32 43 18 -9 -76 -12 -74 -18 -64 rrcurveto
          endchar
        </CharString>
        <CharString name="bn_d_bh_ra">
          48 -238 97 -69 98 50 84 519 -85 callsubr
          630 -587 89 65 90 -78 84 128 86 hintmask 0111011010000000
          510 -276 rmoveto
          28 2 50 11 24 13 -18 109 -7 112 -22 90 -16 14 -22 15 -19 12 rrcurveto
          -1 22 0 22 21 vvcurveto
          90 25 77 27 83 114 callgsubr
          hintmask 1011100000000000
          122 118 -13 -14 77 hvcurveto
          87 callgsubr
          hintmask 1011011010000000
          32 callgsubr
          hintmask 0111010110000000
          -27 -38 32 callsubr
          42 38 15 25 36 vhcurveto
          4 -53 4 -50 6 -51 rrcurveto
          42 -31 -36 22 -49 hhcurveto
          hintmask 1011011010000000
          -54 -87 -29 -46 hhcurveto
          -35 -28 22 39 25 10 30 10 23 hvcurveto
          9 -20 -28 6 -30 hhcurveto
          -18 -33 -13 -43 -43 vvcurveto
          -78 57 -54 92 vhcurveto
          hintmask 0111011010000000
          73 73 28 64 hhcurveto
          63 19 -33 -33 26 hvcurveto
          endchar
        </CharString>
        <CharString name="bn_d_bha">
          346 callgsubr
          0 630 -433 90 -78 84 128 99 -8 84 hintmask 11101001
          380 -260 rmoveto
          328 callgsubr
          hintmask 11101010
          -10 9 -12 8 -12 9 rrcurveto
          -7 39 -4 37 36 vvcurveto
          78 16 72 23 68 114 callgsubr
          hintmask 11110000
          122 118 -13 -14 77 hvcurveto
          87 callgsubr
          hintmask 11101010
          32 callgsubr
          hintmask 11100101
          -27 -38 32 callsubr
          52 46 23 37 43 vhcurveto
          160 callsubr
          hintmask 11101001
          334 callsubr
        </CharString>
        <CharString name="bn_d_d_ba">
          238 callgsubr
          651 -222 rmoveto
          -19 83 -16 78 72 vvcurveto
          98 18 71 38 72 vhcurveto
          -25 40 -36 32 -46 18 -61 -35 -61 -45 -57 -63 17 76 28 71 31 63 -29 callgsubr
          40 64 63 69 70 55 -29 -69 -21 -91 -6 -79 33 -35 33 -12 36 -6 41 56 66 51 70 44 rrcurveto
          -10 -31 -7 -34 -5 -34 -71 -37 -83 -57 -45 -38 3 -35 7 -24 19 -33 78 -12 70 -42 47 -64 37 2 41 12 23 14 rrcurveto
          -134 195 rmoveto
          -43 4 -41 7 -41 vhcurveto
          -27 33 -37 24 -40 17 29 23 35 25 29 17 rrcurveto
          -5 0 -4 -5 vvcurveto
          endchar
        </CharString>
        <CharString name="bn_d_da">
          238 callgsubr
          637 -156 rmoveto
          -14 59 -7 57 51 vvcurveto
          92 20 67 36 69 vhcurveto
          -25 40 -36 32 -46 18 -64 -37 -63 -51 -60 -69 18 86 32 81 34 70 -29 callgsubr
          43 69 71 76 76 57 -41 -85 -31 -121 -8 -105 25 -27 47 -23 38 -6 37 67 67 72 72 55 rrcurveto
          -19 -62 -11 -71 -67 vvcurveto
          -55 6 -52 12 -49 vhcurveto
          37 1 42 12 23 14 rrcurveto
          endchar
        </CharString>
        <CharString name="bn_d_dh_ba">
          92 394 107 45 -85 callsubr
          674 -566 82 171 89 -56 81 51 91 hintmask 01011010
          480 -219 rmoveto
          -20 52 -10 87 75 vvcurveto
          79 7 75 14 78 vhcurveto
          22 8 22 7 21 6 rrcurveto
          -7 -52 -3 -50 -49 vvcurveto
          -79 8 -71 18 -67 vhcurveto
          39 40 11 16 26 hvcurveto
          -27 71 -13 73 83 vvcurveto
          45 4 49 8 51 vhcurveto
          hintmask 11010110
          -73 88 -27 -8 -27 -10 -27 -10 rlinecurve
          93 -6 -65 69 -66 hhcurveto
          -44 -55 -29 -44 -54 hvcurveto
          3 33 2 34 33 4 0 5 4 vvcurveto
          3 44 47 2 51 hhcurveto
          hintmask 01100000
          43 callsubr
          36 6 41 5 -4 -76 -22 -89 -32 -77 23 -31 40 -22 32 -8 rrcurveto
          67 58 108 98 51 hhcurveto
          23 9 -16 -28 hvcurveto
          -9 0 -10 -10 vvcurveto
          -102 -42 -120 -71 -56 -45 2 -37 13 -32 23 -35 28 -6 26 -11 24 -15 -32 -21 -29 -22 -21 -17 3 -36 7 -23 19 -33 rrcurveto
          hintmask 01011010
          78 -13 70 -42 47 -63 rrcurveto
          31 44 7 17 31 hvcurveto
          -197 278 rmoveto
          -17 21 -19 18 -21 14 45 32 56 33 52 26 -6 -32 -5 -34 -3 -33 -25 -12 -26 -14 -26 -16 rrcurveto
          73 -90 rmoveto
          -43 2 -49 3 -43 vhcurveto
          -28 41 -43 30 -47 20 35 28 45 29 34 17 rrcurveto
          -1 -10 0 -10 -10 vvcurveto
          endchar
        </CharString>
        <CharString name="bn_d_dha">
          92 384 109 53 -85 callsubr
          674 -564 89 176 98 -79 82 55 90 hintmask 11010110
          531 102 rmoveto
          -81 6 -74 15 -71 vhcurveto
          40 40 7 14 26 hvcurveto
          -25 77 -12 77 88 vvcurveto
          40 3 41 5 41 vhcurveto
          -73 88 -27 -8 -26 -10 -27 -10 rlinecurve
          97 -69 75 -69 -41 -53 -27 -41 -52 vhcurveto
          5 36 2 35 33 4 0 4 4 vvcurveto
          3 41 45 2 47 hhcurveto
          hintmask 11100000
          43 callsubr
          37 6 42 5 -4 -78 -22 -92 -34 -80 22 -32 43 -25 33 -8 rrcurveto
          66 56 110 101 49 hhcurveto
          23 8 -16 -28 -11 -1 -13 -1 -16 hvcurveto
          -106 -45 -106 -61 -64 -51 2 -38 12 -31 26 -35 67 -18 53 -52 35 -83 rrcurveto
          hintmask 11011010
          -11 27 48 -10 40 hhcurveto
          24 77 17 133 6 129 21 8 21 8 21 7 rrcurveto
          hintmask 11010110
          -3 -43 -2 -41 -41 vvcurveto
          hintmask 11011010
          -195 -143 rmoveto
          -22 57 -39 46 -44 31 43 29 52 30 49 25 -8 -78 -13 -76 -18 -64 rrcurveto
          endchar
        </CharString>
        <CharString name="bn_d_ga">
          405 378 88 58 117 -100 -78 callgsubr
          105 90 147 99 45 373 callgsubr
          hintmask 1011111100000000
          883 167 callsubr
          20 7 vhcurveto
          hintmask 1011111010000000
          12 5 11 3 13 4 rrcurveto
          5 125 callsubr
          hintmask 1101111100000000
          164 callgsubr
          -59 -46 -27 -42 -29 hvcurveto
          3 vlineto
          hintmask 1011111100000000
          16 -3 16 -4 11 vhcurveto
          17 -47 -106 14 -86 hhcurveto
          20 callgsubr
          16 callgsubr
          233 callgsubr
          39 callgsubr
          11 0 11 11 279 callsubr
          77 92 -10 -12 55 hvcurveto
          -7 -22 -3 -23 -25 42 callgsubr
          hintmask 1101111100000000
          213 callsubr
          hintmask 1011111100000000
          -9 30 55 -6 41 hhcurveto
          endchar
        </CharString>
        <CharString name="bn_d_gha">
          405 546 108 hstem
          105 90 147 99 36 103 202 112 vstem
          459 -3 rmoveto
          39 callgsubr
          10 0 10 10 vvcurveto
          6 92 105 4 103 6 7 0 6 hhcurveto
          -25 -27 -12 -31 -34 73 callsubr
          31 -4 28 -4 23 -4 -13 callsubr
          22 -96 -208 14 -186 hhcurveto
          -190 -202 -13 -23 -105 -82 callgsubr
          29 5 36 5 40 4 -5 -119 -25 -136 -37 -120 16 callgsubr
          233 callgsubr
          288 315 37 callsubr
          -27 -23 19 33 33 26 39 80 28 hvcurveto
          41 -2 41 -3 37 -2 rrcurveto
          -16 -137 -7 -106 -147 204 callgsubr
          endchar
        </CharString>
        <CharString name="bn_d_ma">
          325 -130 94 75 65 448 -85 callsubr
          907 -736 90 -62 68 112 79 160 110 hintmask 00100111
          527 409 rmoveto
          -26 40 -36 32 -46 18 rrcurveto
          hintmask 00101011
          -56 -32 -56 -43 -55 -57 rrcurveto
          6 51 3 48 40 vvcurveto
          13 0 13 -1 13 vhcurveto
          4 61 66 3 70 hhcurveto
          66 63 -2 -4 59 hvcurveto
          -21 -110 -6 -139 -111 vvcurveto
          -129 11 -90 14 -70 vhcurveto
          -52 58 -76 52 -57 33 rrcurveto
          hintmask 00100111
          1 96 20 173 48 100 rrcurveto
          149 -645 50 callgsubr
          vvcurveto
          104 4 66 6 77 vhcurveto
          hintmask 00110000
          67 -7 58 -9 44 -8 -83 callsubr
          21 -92 -167 21 -191 hhcurveto
          hintmask 01101011
          -194 -165 -20 -22 -98 -92 callgsubr
          45 8 58 9 68 6 -5 -106 -21 -121 -39 -107 25 -28 47 -24 38 -7 45 72 74 78 79 58 -23 -70 -9 -107 -3 -90 rrcurveto
          12 -20 -24 7 -24 hhcurveto
          hintmask 11100111
          -65 -47 -49 -67 -66 50 -52 73 63 47 36 54 15 hvcurveto
          91 -42 86 -55 49 -89 rrcurveto
          hintmask 00100111
          1 -4 1 -3 1 -3 rrcurveto
          hintmask 11100111
          -365 200 rmoveto
          -27 -17 15 21 23 17 16 24 18 26 -9 -17 23 hvcurveto
          -32 -9 -26 -17 -29 hhcurveto
          endchar
        </CharString>
        <CharString name="bn_d_na">
          47 -219 98 94 102 466 -85 callsubr
          629 -455 70 -24 89 146 99 hintmask 11101010
          375 -208 rmoveto
          6 28 0 45 -3 33 rrcurveto
          -12 -20 362 callgsubr
          29 30 22 19 46 88 68 -69 -112 25 hvcurveto
          28 1 50 12 24 13 rrcurveto
          -27 125 -14 113 108 vvcurveto
          83 14 75 21 71 vhcurveto
          -33 44 -33 29 -46 19 rrcurveto
          hintmask 11100110
          -60 -36 -59 -50 -58 -66 rrcurveto
          6 60 3 59 54 12 0 12 11 vvcurveto
          hintmask 11110000
          116 138 -8 -19 66 37 callgsubr
          22 -62 -144 9 -115 hhcurveto
          hintmask 11100110
          -125 -112 -12 -19 -71 36 callsubr
          55 12 76 10 89 3 -5 -121 -24 -141 -39 -124 27 -21 56 -18 41 -5 48 79 77 88 82 63 rrcurveto
          -18 -65 -10 -76 -76 vvcurveto
          -50 3 -50 6 -50 vhcurveto
          72 -44 -53 31 -59 hhcurveto
          hintmask 11101010
          -76 -58 -58 -80 -88 66 -68 80 269 callgsubr
        </CharString>
        <CharString name="bn_d_ra">
          47 -87 109 -72 110 481 -78 callgsubr
          -6 92 -86 629 -409 89 146 99 hintmask 01110110
          117 callgsubr
          83 14 75 21 71 49 callsubr
          12 0 12 11 vvcurveto
          hintmask 10101000
          116 137 -8 -19 67 37 callgsubr
          22 -61 -146 9 -114 hhcurveto
          hintmask 01110110
          -125 -113 -12 -19 -70 36 callsubr
          55 12 77 10 88 3 -5 -121 -24 -141 22 callsubr
          hintmask 10110110
          31 callgsubr
          hintmask 01110110
          193 callgsubr
        </CharString>
        <CharString name="bn_d_ra_ukaar">
          251 -87 109 -72 110 49 125 128 109 75 295 callgsubr
          185 76 hintmask 0111110111000000
          117 callgsubr
          33 2 31 4 30 vhcurveto
          -99 27 47 -50 63 hhcurveto
          72 210 callsubr
          -55 64 -68 hvcurveto
          hintmask 0111101000000000
          -35 -24 -18 -21 -13 hvcurveto
          1 -45 12 -51 17 -32 rrcurveto
          hintmask 0111110111000000
          28 12 22 30 22 hhcurveto
          20 13 -17 -33 -43 -26 -35 -38 -37 -49 33 69 -15 hvcurveto
          4 19 5 19 6 19 -24 callsubr
          13 0 13 12 vvcurveto
          1 33 33 1 33 hhcurveto
          hintmask 0111101000000000
          157 178 -12 -20 90 hvcurveto
          -77 callsubr
          22 -83 -179 14 -160 hhcurveto
          hintmask 0111110111000000
          -157 -167 -14 -22 -87 -82 callgsubr
          53 11 79 9 88 6 -5 -121 -24 -142 22 callsubr
          hintmask 1011110111000000
          31 callgsubr
          hintmask 0111110111000000
          193 callgsubr
        </CharString>
        <CharString name="bn_d_ra_uukaar">
          251 -87 109 -72 110 486 295 callgsubr
          109 91 hintmask 01110111
          117 callgsubr
          22 1 21 2 20 vhcurveto
          36 16 39 17 37 15 rrcurveto
          -3 -28 -3 -28 -26 -54 callgsubr
          31 6 32 vhcurveto
          -63 86 -43 -13 -39 -19 -42 -19 rlinecurve
          3 14 4 14 4 14 -24 callsubr
          13 0 13 12 vvcurveto
          1 33 33 1 33 hhcurveto
          hintmask 01101000
          157 177 -12 -20 91 hvcurveto
          -77 callsubr
          22 -83 -179 14 -160 hhcurveto
          hintmask 01110111
          -157 -168 -14 -22 -86 -82 callgsubr
          53 11 79 9 88 6 -5 -121 -24 -142 22 callsubr
          hintmask 10110111
          31 callgsubr
          hintmask 01110111
          193 callgsubr
        </CharString>
        <CharString name="bn_da">
          -67 541 -85 callsubr
          515 -410 90 147 99 hintmask 10110000
          459 -3 rmoveto
          39 callgsubr
          11 0 11 11 279 callsubr
          hintmask 11000000
          87 105 -13 -14 51 37 callgsubr
          17 -47 -106 14 -86 hhcurveto
          hintmask 10110000
          20 callgsubr
          16 callgsubr
          233 callgsubr
          endchar
        </CharString>
        <CharString name="bn_da.half">
          -67 541 -85 callsubr
          515 -410 90 145 101 hintmask 10110000
          459 158 rmoveto
          -12 44 -6 41 39 vvcurveto
          57 13 53 21 49 vhcurveto
          -33 31 -33 20 -46 13 -60 -26 -59 -35 -59 -47 rrcurveto
          7 43 3 43 39 6 0 5 6 279 callsubr
          hintmask 11000000
          87 105 -13 -14 51 37 callgsubr
          17 -47 -106 14 -86 hhcurveto
          hintmask 10110000
          -112 -101 -14 -17 -63 36 callsubr
          29 6 35 6 41 5 -6 -83 -24 -95 -37 -84 27 -14 56 -13 42 -3 45 54 76 58 80 43 rrcurveto
          -15 -43 -9 -49 -50 vvcurveto
          -37 5 -39 11 -36 vhcurveto
          28 1 52 7 23 10 rrcurveto
          endchar
        </CharString>
        <CharString name="bn_da_ukaar">
          -67 -258 86 78 89 546 -85 callsubr
          515 -476 66 0 90 hintmask 11100100
          425 -270 rmoveto
          23 21 18 26 11 24 -114 81 rcurveline
          59 125 22 193 31 193 -24 callsubr
          11 0 11 11 279 callsubr
          hintmask 11110000
          87 105 -13 -14 51 37 callgsubr
          17 -47 -106 14 -86 hhcurveto
          hintmask 11100100
          20 callgsubr
          28 -22 55 -17 42 -5 45 76 73 84 77 61 -26 -154 -17 -148 -39 -95 rrcurveto
          35 -33 -37 27 -48 hhcurveto
          hintmask 11101000
          -66 -53 -51 -74 -79 52 -49 80 63 48 25 44 36 hvcurveto
          -165 17 rmoveto
          -28 -20 15 24 24 19 15 29 29 28 -17 -25 24 hvcurveto
          -23 -22 -26 -13 -33 hhcurveto
          endchar
        </CharString>
        <CharString name="bn_da_uukaar">
          -67 -258 86 128 94 487 -78 callgsubr
          -7 528 -489 66 7 90 hintmask 11101000
          477 -199 rmoveto
          -219 94 rlineto
          -46 -22 -37 -21 -42 hhcurveto
          -35 -24 24 36 41 45 27 69 52 59 -20 -27 52 hvcurveto
          45 136 24 175 31 173 -33 44 -33 29 -46 19 rrcurveto
          hintmask 11100100
          -60 -36 -59 -50 -58 -66 rrcurveto
          6 60 3 59 54 10 0 11 10 vvcurveto
          78 2 79 -3 56 -4 rrcurveto
          hintmask 11110000
          73 -6 35 -6 3 16 rrcurveto
          3 21 -1 22 16 vvcurveto
          -18 20 -37 14 -61 11 -105 9 -89 -5 -101 -6 -68 -10 -43 -14 -5 -11 -2 -17 0 -19 1 -20 rrcurveto
          hintmask 11100100
          21 -13 31 -8 60 5 -5 -120 -24 -137 -38 -121 28 -22 55 -17 42 -5 45 76 72 83 78 62 -19 -110 -10 -117 -22 -91 rrcurveto
          26 -31 -34 12 -48 hhcurveto
          hintmask 11101000
          -89 -73 -64 -95 -92 57 -57 85 58 41 12 35 30 hvcurveto
          122 -59 23 21 18 26 11 24 rlinecurve
          endchar
        </CharString>
        <CharString name="bn_danda">
          4 -103 698 hstem
          334 106 vstem
          469 -81 rmoveto
          10 callgsubr
          endchar
        </CharString>
        <CharString name="bn_dd_dda">
          451 -31 124 124 103 223 110 hstemhm
          0 1033 -811 95 336 96 183 80 hintmask 11101110
          813 93 rmoveto
          -103 -83 78 144 -58 hvcurveto
          -7 31 -11 29 -12 25 222 callsubr
          80 24 71 hvcurveto
          52 1 56 1 60 50 48 -1 45 hflex1
          -11 -52 -9 -53 -35 vvcurveto
          -85 57 -101 96 55 37 33 41 31 vhcurveto
          2 -16 1 -17 -17 vvcurveto
          -91 -38 -57 -81 vhcurveto
          -8 -124 rmoveto
          134 73 99 144 70 -17 68 -24 50 hvcurveto
          -29 91 callgsubr
          119 callgsubr
          33 20 78 23 69 hvcurveto
          hintmask 11110000
          93 -5 80 -8 68 -11 rrcurveto
          6 16 3 25 0 20 0 17 -2 -26 callsubr
          22 -122 -170 13 -211 hhcurveto
          -225 -174 -12 -23 -131 237 callsubr
          -17 0 -18 0 -21 4 -24 -50 callsubr
          hintmask 11101110
          69 10 80 8 91 6 rrcurveto
          -10 -51 -8 -50 -34 -74 callgsubr
          105 68 62 97 24 hvcurveto
          -91 52 74 -68 108 hhcurveto
          endchar
        </CharString>
        <CharString name="bn_dd_ra">
          20 -209 235 callgsubr
          48 205 callgsubr
          hstemhm
          -25 93 -68 602 -380 95 75 94 14 80 hintmask 0111110111000000
          390 -237 154 callgsubr
          4 72 2 78 2 74 rrcurveto
          hintmask 1011110101000000
          56 41 30 74 92 vvcurveto
          70 -16 68 -25 50 vhcurveto
          222 callsubr
          81 24 71 hvcurveto
          hintmask 1011101000000000
          -75 callgsubr
          hintmask 1011110101000000
          63 14 80 12 99 4 rrcurveto
          -12 -52 -8 -53 -36 vvcurveto
          -85 56 -101 96 55 37 33 40 31 vhcurveto
          2 -16 1 -16 -17 vvcurveto
          -91 -37 -57 -82 -128 -92 133 232 -68 vhcurveto
          -29 -10 -28 -13 -26 -16 rrcurveto
          hintmask 0111110111000000
          -201 52 94 -249 218 hhcurveto
          6 6 0 1 6 hvcurveto
          -2 -42 -3 -39 -3 -36 122 callgsubr
          hintmask 1011110101000000
          22 callgsubr
          -13 -38 -42 vvcurveto
          -76 55 -53 91 vhcurveto
          hintmask 0111110101000000
          59 57 20 55 hhcurveto
          hintmask 0111110111000000
          218 callgsubr
        </CharString>
        <CharString name="bn_dda">
          20 -31 205 callgsubr
          hstemhm
          0 602 -380 95 183 80 hintmask 11101100
          374 -31 rmoveto
          -8 callgsubr
          21 81 24 71 hvcurveto
          hintmask 11110000
          -75 callgsubr
          hintmask 11101100
          63 14 80 12 99 4 rrcurveto
          -12 -52 -8 -53 -36 -74 callgsubr
          endchar
        </CharString>
        <CharString name="bn_dda.half">
          20 139 297 callsubr
          169 95 hintmask 11101100
          327 callgsubr
          47 -25 37 170 callsubr
          hintmask 11110000
          -75 callgsubr
          hintmask 11101100
          38 callgsubr
          endchar
        </CharString>
        <CharString name="bn_ddh_ra">
          276 callsubr
          hstemhm
          -43 92 -49 209 callsubr
          91 90 -19 131 hintmask 1111001100000000
          333 callsubr
          hintmask 1111001010000000
          58 54 43 81 79 vvcurveto
          -97 callgsubr
          144 16 165 23 122 156 callsubr
          hintmask 1111010000000000
          -72 callgsubr
          hintmask 1111001100000000
          -23 callsubr
          13 13 2 3 13 vhcurveto
          -6 -40 -6 -42 -3 -39 rrcurveto
          56 -23 -28 14 -37 hhcurveto
          hintmask 1111101100000000
          72 callsubr
          hintmask 1111001100000000
          302 callsubr
        </CharString>
        <CharString name="bn_ddha">
          -79 -30 234 callsubr
          149 -85 callsubr
          209 callsubr
          162 131 hintmask 11101100
          473 247 rmoveto
          -97 callgsubr
          144 16 165 23 122 156 callsubr
          hintmask 11110000
          -72 callgsubr
          hintmask 11101100
          -23 callsubr
          76 callsubr
          vhcurveto
          endchar
        </CharString>
        <CharString name="bn_ddha.half">
          -60 callgsubr
          endchar
        </CharString>
        <CharString name="bn_dh_ba">
          341 541 -78 callgsubr
          28 99 213 112 282 112 13 64 hintmask 11110000
          873 -4 rmoveto
          -21 75 -6 262 callsubr
          83 4 69 9 76 vhcurveto
          hintmask 11111000
          199 callsubr
          -56 -94 14 -83 hhcurveto
          -106 -102 -26 -34 -63 hvcurveto
          -30 -17 -14 -24 -7 -46 -1 -4 0 -5 -1 -4 -44 -14 -41 -96 callsubr
          96 -22 82 -65 63 -125 rrcurveto
          41 53 7 18 34 hvcurveto
          -13 68 -4 99 -1 104 8 -34 15 -32 24 -34 rrcurveto
          hintmask 11110000
          302 callgsubr
          -415 455 rmoveto
          2 27 3 17 17 9 rrcurveto
          hintmask 11111000
          26 58 57 11 91 hhcurveto
          27 29 -2 -2 29 hvcurveto
          -2 -9 -2 -9 -2 -9 -133 -53 -109 -72 -71 -76 rrcurveto
          hintmask 11110000
          40 2 53 4 49 vhcurveto
          276 -312 162 callgsubr
          -394 -18 143 callsubr
        </CharString>
</ttFont>
